<svg xmlns="http://www.w3.org/2000/svg" width="120" height="31" fill="none"><path fill="#858585" d="M70.05 10.137c1.558 0 2.804-1.197 2.804-2.804 0-1.606-1.246-2.764-2.803-2.764-1.558 0-2.765 1.197-2.765 2.764 0 1.568 1.197 2.804 2.765 2.804Z"/><path fill="#858585" d="M106.554 25.05a1.762 1.762 0 0 1-.935.262c-1.07 0-1.382-1.07-1.382-2.229V11.91c-.73.37-1.441.69-2.132.973-1.197-.798-2.794-1.061-4.059-1.061-4.36 0-8.323 3.027-8.323 8.41 0 .38.02.74.049 1.09-.993 2.522-2.687 3.894-4.857 3.894-3.164 0-5.072-2.54-4.984-6.59.048-3.164 1.47-5.48 3.115-5.48.798 0 1.333.574 1.333 1.694 0 1.022-.399 2.044-1.07 2.667.486.886 1.518 1.47 2.667 1.47 1.42 0 2.492-1.11 2.54-2.765.049-2.58-2.18-4.41-5.431-4.41-4.634 0-7.749 3.34-7.749 8.236 0 .778.107 1.567.322 2.336-.692 1.684-1.607 2.832-2.502 2.832-.672 0-.983-.447-.983-1.83V11.753c-1.606.847-3.115 1.421-4.449 1.869v8.342c-.72 1.898-1.684 3.232-2.628 3.232-.672 0-.983-.448-.983-1.83v-6.727c0-3.514-1.47-4.857-3.65-4.857-2.59 0-4.45 2.268-5.306 4.634-.058-3.359-1.606-4.634-3.738-4.634-2.647 0-4.545 2.365-5.383 4.78v-4.829c-2.443 1.237-5.227 2.317-8.371 2.998V2.34c-7.612.671-11.126 4.05-12.956 12.197-.098.409-.185.817-.283 1.207-7.086.69-10.98 4.39-10.98 8.361 0 2.58 1.918 4.235 4.546 4.235 4.186 0 6.639-3.534 8.41-11.126l6.552-.292v10.707h4.72V16.367a33.06 33.06 0 0 0 3.914-1.013V27.64h4.448v-6.142c0-4.098 2.142-6.318 3.427-6.318.934 0 1.246.935 1.246 3.203v9.257h4.448v-6.142c0-4.01 1.957-6.318 3.203-6.318.886 0 1.382.935 1.382 3.203v6.103c0 2.317 1.07 3.475 3.164 3.475 2.093 0 3.728-1.294 4.818-3.329.127 2.22 1.266 3.33 3.28 3.33 2.463 0 4.186-1.587 5.237-4.03 1.169 2.277 3.466 4.03 6.96 4.03 3.018 0 5.559-1.792 6.921-4.634.935 3.085 3.29 4.633 5.675 4.633 1.957 0 3.466-.934 4.478-2.706.448 1.626 1.597 2.706 3.271 2.706s3.076-1.197 2.979-2.89l.029-.02Zm-87.793.535c-1.07 0-1.83-.76-1.83-1.957 0-2.832 3.008-5.529 7.077-6.21-1.46 5.276-3.193 8.177-5.247 8.177v-.01Zm8.002-9.968c1.577-7.193 3.767-9.101 6.2-10.026v9.773l-6.2.253Zm71.118 9.608c-2.093 0-3.602-2.492-3.602-6.23 0-3.738 1.382-5.83 3.563-5.83.69 0 1.557.184 2.268.934v9.607c-.497 1.023-1.227 1.529-2.23 1.529v-.01Z"/></svg>