<svg xmlns="http://www.w3.org/2000/svg" width="120" height="22" fill="none"><path fill="#F7F7F7" d="M18.118 0C8.173 0 0 8.128 0 18.118v.863h14.939a10.724 10.724 0 0 0 3.179 2.146 10.715 10.715 0 0 0 3.178-2.146h14.94v-.863C36.235 8.128 28.061 0 18.117 0"/><path fill="#DEDEDE" d="M18.118 20.175c3.907-1.887 5.301-5.452 5.49-9.639h-5.49v9.64"/><path fill="#B3B3B3" d="M18.118 20.175c-3.907-1.887-5.301-5.452-5.49-9.639h5.49v9.64"/><path fill="#DEDEDE" d="M10.15 18.115a34.335 34.335 0 0 1-2.974-2.157c-3.44.936-6.311 2.157-6.311 2.157h9.285Zm25.22 0s-2.869-1.221-6.31-2.157a34.527 34.527 0 0 1-2.973 2.157h9.284ZM11.673 13.43a34.268 34.268 0 0 1-1.139-3.495 55.826 55.826 0 0 0-6.37-1.965S5.768 10.648 8 13.426a34.71 34.71 0 0 1 3.672.005Zm12.892 0c1.28-.076 2.561-.058 3.672-.005a54.774 54.774 0 0 0 3.838-5.455s-3.064.71-6.37 1.965a34.587 34.587 0 0 1-1.14 3.495Zm-3.983-2.895a34.3 34.3 0 0 1 2.967-2.162c.174-3.562-.1-6.67-.1-6.67s-2.059 2.37-4 5.336a34.088 34.088 0 0 1 1.133 3.496Zm-7.792-8.833s2.059 2.372 3.999 5.337a34.187 34.187 0 0 0-1.132 3.496 34.297 34.297 0 0 0-2.969-2.162 55.224 55.224 0 0 1 .102-6.67"/><path fill="#B3B3B3" d="M35.371 18.115a17.168 17.168 0 0 0-3.296-10.143c-.003.004-1.606 2.676-3.839 5.454 1.953.095 3.386.302 3.386.302a31.222 31.222 0 0 1-2.563 2.23c3.442.936 6.312 2.157 6.312 2.157M32.075 7.971a17.298 17.298 0 0 0-8.625-6.268s.272 3.109.1 6.67a40.306 40.306 0 0 1 2.914-1.745s-.247 1.425-.76 3.308c3.307-1.255 6.37-1.965 6.37-1.965M12.79 1.704s2.059 2.371 3.998 5.337c.689-1.813 1.33-3.123 1.33-3.123s.643 1.31 1.331 3.123c1.94-2.966 4-5.337 4-5.337a17.267 17.267 0 0 0-5.33-.84c-1.86 0-3.652.296-5.33.84M4.163 7.972A17.164 17.164 0 0 0 .865 18.115s2.87-1.221 6.311-2.157a31.225 31.225 0 0 1-2.56-2.23S6.048 13.52 8 13.426c-2.232-2.778-3.835-5.45-3.837-5.454M4.164 7.971s3.062.71 6.37 1.965a39.728 39.728 0 0 1-.76-3.308s1.28.675 2.914 1.746c-.172-3.562.101-6.671.101-6.671A17.29 17.29 0 0 0 4.164 7.97"/><path fill="#858585" d="m82.93 11.233-.364-6.067-2.646 6.067h-.898l-2.66-6.067-.406 6.067H74.1l.72-9.5h1.94l2.803 6.255 2.701-6.255h1.9l.72 9.5H82.93ZM39.477 11.233v-9.5h6.671l-.492 1.577h-4.201v2.481h3.89v1.57h-3.89v3.872h-1.977ZM89.96 11.233v-9.5h6.395l-.492 1.577H91.94v2.185h3.872v1.57H91.94V9.61h4.3v1.622h-6.278M54.434 7.82 53.015 4.12l-1.4 3.698h2.819Zm1.224 3.413-.716-1.921h-3.826l-.706 1.92h-2.014l3.772-9.5h1.847l3.812 9.5h-2.17ZM104.518 6.08c1.255 0 1.771-.636 1.771-1.407 0-.77-.512-1.407-1.756-1.407h-1.205V6.08h1.19Zm2.244 5.154-2.548-3.651h-.886v3.651h-1.985v-9.5h3.376c2.636 0 3.566 1.47 3.566 2.865 0 1.262-.763 2.227-2.003 2.66l2.895 3.975h-2.415M65.19 6.08c1.256 0 1.772-.636 1.772-1.407 0-.77-.512-1.407-1.756-1.407H64V6.08h1.19Zm2.245 5.154-2.548-3.651H64v3.651h-1.985v-9.5h3.376c2.637 0 3.567 1.47 3.567 2.865 0 1.262-.764 2.227-2.003 2.66l2.894 3.975h-2.415ZM116.425 11.381c-1.273 0-2.334-.3-3.549-1.09l.877-1.49c.928.619 1.622.923 2.672.923 1.041 0 1.614-.412 1.614-1.12 0-.66-.643-.927-1.012-1.063-.369-.137-1.23-.454-1.835-.687-1.232-.475-1.854-1.323-1.854-2.506 0-1.275.898-2.763 3.427-2.763.837 0 1.885.22 2.565.495v1.84c-.761-.445-1.676-.766-2.623-.766-.656 0-1.436.196-1.436 1.016 0 .62.576.879.927 1.017.392.155 1.262.473 1.845.69 1.294.48 1.957 1.326 1.957 2.52 0 1.486-1.105 2.984-3.575 2.984M89.618 21.254v-5.225h3.54l-.257.816h-2.229v1.266h2.19v.823h-2.19v1.48h2.433v.84h-3.487ZM39.477 21.25v-5.225h1.054v5.225h-1.053ZM46.695 21.254l-2.5-3.552v3.552H43.2v-5.225h.937l2.457 3.48v-3.48h.995v5.225h-.894M79.463 21.254l-2.502-3.552v3.552h-.994v-5.225h.937l2.457 3.48v-3.48h.995v5.225h-.893M59.335 16.03h1.053v3.151c0 .7-.108 1.177-.468 1.57-.351.388-.87.585-1.647.585-.77 0-1.296-.19-1.647-.584-.36-.386-.476-.863-.476-1.563v-3.16h1.053v3.209c0 .453.05.659.217.856.176.206.451.33.845.33.401 0 .677-.124.852-.33.168-.197.218-.403.218-.856v-3.209M65.378 16.992c-.184-.123-.384-.172-.677-.172h-.602v1.628h.593c.302 0 .502-.05.686-.172a.771.771 0 0 0 .318-.642.772.772 0 0 0-.318-.642Zm.548 4.262-1.368-2.032h-.46v2.032h-1.053v-5.225h1.772c.536 0 1.012.107 1.339.354.342.263.585.676.585 1.21 0 .74-.444 1.25-1.088 1.464l1.547 2.197h-1.274M52.03 15.946c-1.421 0-1.907.833-1.907 1.507 0 .765.494 1.16 1.029 1.366.142.057.82.295 1.028.378.21.082.602.23.602.625s-.318.642-.944.642c-.628 0-1.04-.198-1.501-.501l-.464.788c.54.351 1.163.585 1.965.585 1.446 0 1.99-.88 1.99-1.629 0-.584-.294-1.086-1.088-1.374-.15-.057-.82-.296-1.011-.37-.193-.082-.577-.222-.577-.608 0-.387.3-.585.844-.585.48 0 .984.142 1.452.404v-.962a4.366 4.366 0 0 0-1.418-.266M85.362 15.946c-1.386 0-2.61.964-2.61 2.692 0 1.727 1.098 2.698 2.568 2.698a3.61 3.61 0 0 0 1.875-.506l-.396-.86c-.39.269-.851.428-1.404.428-.928 0-1.574-.707-1.574-1.777 0-1.07.671-1.769 1.591-1.769.64 0 1.136.157 1.56.415v-1.036c-.449-.174-.911-.285-1.61-.285M70.579 19.353l.755-2.12.767 2.12h-1.522Zm2.187 1.9h1.12l-2.034-5.224h-.953l-2.012 5.225h1.036l.375-1.069h2.087l.38 1.069"/></svg>