<svg xmlns="http://www.w3.org/2000/svg" width="112" height="40" fill="none"><path fill="#858585" fill-rule="evenodd" d="M21.943 3.251c-.524 2.495-1.04 4.941-1.549 7.39-.041.199-.104.32-.33.296-.072-.008-.146 0-.218-.002-.26-.004-.58.08-.763-.04-.168-.11-.037-.453-.076-.69-.164-1.004-.173-2.024-.51-3.012-.548-1.61-2.027-2.933-3.863-3.11-1.25-.12-2.452-.096-3.636.315C9.472 4.93 8.256 5.9 7.245 7.12c-1.718 2.074-2.567 4.511-2.973 7.134a16.696 16.696 0 0 0-.142 3.953c.175 2.09.893 3.951 2.692 5.234.686.49 1.468.764 2.3.89 1.293.194 2.547.069 3.75-.468a6.838 6.838 0 0 0 1.117-.649c.466-.325.433-.874.558-1.33.332-1.216.621-2.445.869-3.68.152-.762-.036-1.249-.82-1.478-.701-.206-1.41-.36-2.148-.347-.055 0-.147-.006-.16-.035-.14-.318.106-.588.12-.886.009-.165.082-.189.216-.183.13.005.26 0 .391 0 2.902 0 5.803.005 8.705-.005.337 0 .453.033.34.42-.204.698-.178.66-1.14.77-1.427.167-2.027.575-2.358 1.847-.093.356-.186.713-.257 1.075-.244 1.238-.679 2.442-.787 3.699-.065.758-.581.886-1.11 1.11-1.629.69-3.338 1.101-5.067 1.42-1.063.197-2.166.181-3.23.078-1.737-.169-3.381-.731-4.726-1.888-1.107-.952-1.958-2.105-2.426-3.518-.303-.916-.443-1.843-.515-2.802-.14-1.88.13-3.7.73-5.47a14.015 14.015 0 0 1 2.76-4.808c2.154-2.44 4.848-3.95 8.103-4.366 2.674-.341 5.252-.01 7.621 1.376.14.082.173.064.253-.066.119-.192.283-.357.426-.534.2-.245.427-.407.774-.367.257.03.52.006.832.006ZM52.44 11.563c-.211.872-.398 1.627-.575 2.383-.564 2.418-1.13 4.837-1.685 7.257-.151.661-.263 1.329-.227 2.013.03.576.315 1.003.863 1.182.417.137.843.257 1.274.339.218.042.262.06.224.304-.06.394-.162.566-.63.56-2.168-.032-4.337-.014-6.506-.02-.038-.006-.02-.025-.021-.06-.01-.592.286-.845.885-.872.333-.015.667-.143.988-.255.754-.26 1.186-.837 1.43-1.544.31-.904.516-1.837.736-2.767.261-1.104.525-2.208.783-3.313.365-1.56.751-3.115 1.11-4.677.275-1.198-.553-2.286-1.848-2.461-.567-.077-.687-.269-.487-.769.06-.152.185-.156.319-.156 1.489.001 2.978.008 4.468-.005.282-.003.318.19.401.358 1.16 2.36 2.315 4.723 3.478 7.08.86 1.74 1.73 3.476 2.6 5.21.053.107.067.301.21.288.172-.017.141-.207.17-.341.257-1.175.51-2.35.786-3.52.356-1.51.67-3.028 1.022-4.538.354-1.52.709-3.038 1.046-4.562.338-1.524.711-3.041 1.038-4.57.268-1.256.603-2.5.864-3.76.045-.214.13-.37.425-.344.413.035.831.009 1.267.009-.404 1.748-.795 3.456-1.194 5.163-.69 2.95-1.374 5.902-2.08 8.848-.426 1.785-.851 3.571-1.274 5.357a690.426 690.426 0 0 0-1.398 6.056c-.06.261-.155.315-.392.32-1.034.024-1.03.027-1.48-.872-.61-1.222-1.264-2.425-1.834-3.664-.753-1.636-1.574-3.239-2.37-4.854-.56-1.138-1.074-2.298-1.7-3.407-.233-.415-.378-.878-.687-1.396ZM108.863 13.787c-.016-1.217-.144-2.421-.762-3.518-.537-.955-1.325-1.568-2.42-1.738-1.973-.304-3.587.423-4.785 1.933-2.393 3.015-3.19 6.524-2.556 10.272.528 3.12 2.928 3.84 5.26 3.107 1.513-.476 2.541-1.596 3.351-2.915 1.339-2.182 1.82-4.604 1.912-7.141Zm-7.046 11.292c-1.415.053-2.714-.295-3.856-1.145-1.303-.969-2.093-2.276-2.446-3.86a8.747 8.747 0 0 1-.182-2.328c.104-2.163.8-4.13 2.013-5.92 1.458-2.155 3.407-3.609 5.957-4.155 2.171-.465 4.238-.224 6.026 1.234 1.129.92 1.847 2.129 2.085 3.562.668 4.022-.549 7.429-3.511 10.183-1.215 1.13-2.664 1.874-4.3 2.258-.6.14-1.192.12-1.786.17ZM70.145 25.047c-1.514.107-2.932-.304-4.259-1.064-.135-.077-.182-.069-.258.037-.073.103-.171.193-.226.305-.24.49-.68.408-1.094.398-.229-.005-.174-.187-.149-.309.348-1.688.705-3.373 1.01-5.07.022-.125-.012-.386.228-.4.265-.014.534-.002.797.03.083.011.033.15.045.23.12.776.171 1.569.472 2.304.845 2.065 2.364 2.748 4.414 2.497 1.476-.181 2.578-.937 3.03-2.415.3-.982.278-1.964-.332-2.87-.381-.566-.935-.884-1.53-1.13-.98-.407-2.004-.72-2.964-1.168-1.03-.48-1.829-1.247-2.212-2.363-.594-1.728-.139-3.214 1.02-4.56 1.088-1.265 2.503-1.81 4.098-1.991 1.587-.18 3.072.108 4.4 1.037.174.122.196.03.266-.092.285-.494.697-.716 1.278-.613.174.03.216.083.183.238-.366 1.714-.734 3.427-1.09 5.142-.064.309-.284.2-.463.229-.416.067-.568-.069-.586-.53-.03-.806-.122-1.614-.389-2.388-.6-1.74-2.505-2.565-4.356-1.884-1.662.61-2.557 2.59-1.909 4.23.242.611.7 1.01 1.262 1.324.867.486 1.823.741 2.731 1.12 1.073.449 2.084 1.008 2.718 2.019.831 1.325.687 2.73.065 4.078-.97 2.098-2.769 3.1-4.926 3.564-.199.043-.41.035-.617.083-.198.047-.419-.007-.657-.018ZM28.703 11.268c-.137 0-.16.078-.193.131-1.232 1.965-2.457 3.933-3.696 5.893-.21.333-.032.32.222.32 1.412-.004 2.823-.015 4.235.007.384.006.478-.08.411-.463-.34-1.955-.654-3.915-.98-5.888Zm2.618 13.116c-1.014 0-2.028.005-3.042-.006-.132-.001-.341.114-.393-.114-.057-.249.209-.68.406-.703.587-.068 1.185-.082 1.723-.37.317-.171.491-.337.388-.778-.164-.698-.18-1.429-.265-2.145-.058-.488-.14-.973-.186-1.462-.026-.276-.215-.208-.37-.208-1.643-.003-3.286.02-4.928-.015-.52-.011-.814.13-1.065.591-.498.916-1.04 1.808-1.49 2.749-.451.943-.32 1.203.79 1.506.244.066.501.081.75.128.145.028.43-.078.361.195-.058.232.086.65-.413.635-.4-.013-.8-.003-1.2-.003-1.542 0-3.085.005-4.627-.007-.138-.001-.463.1-.394-.12.074-.232-.073-.652.398-.702a3.764 3.764 0 0 0 1.741-.65c.728-.49 1.168-1.199 1.62-1.909 1.119-1.754 2.238-3.507 3.334-5.276 1.625-2.623 3.296-5.22 4.947-7.828.218-.345.742-.526 1.128-.39.108.04.15.115.166.22.172 1.141.344 2.281.52 3.42.21 1.346.425 2.689.635 4.034.19 1.22.376 2.443.565 3.664.171 1.098.328 2.198.523 3.29.134.75.823 1.303 1.686 1.428.142.02.433-.072.335.21-.079.224.086.635-.43.623-1.07-.024-2.142-.007-3.213-.007ZM95.32 7.863l-1.228 5.561c-.035.16-.03.395-.2.424a2.608 2.608 0 0 1-.87-.013c-.137-.023-.074-.225-.07-.344.024-.891-.044-1.762-.328-2.626-.478-1.455-1.632-2.289-3.137-2.407-1.54-.12-2.885.376-4.063 1.342-1.828 1.498-2.696 3.495-3.198 5.693a11.045 11.045 0 0 0-.25 3.326c.14 1.78.737 3.367 2.381 4.378 1.256.771 2.63.774 3.983.328 1.729-.57 3.002-1.712 3.878-3.258.137-.242.239-.268.463-.15.807.426.755.225.27.953-.962 1.448-2.15 2.665-3.825 3.354-.974.4-1.99.604-3.049.65-1.533.066-2.971-.174-4.26-1.049-1.38-.936-2.14-2.247-2.555-3.791-.252-.94-.237-1.905-.17-2.845.087-1.214.365-2.41.887-3.543.41-.89.874-1.744 1.485-2.513 1.74-2.192 3.952-3.599 6.862-3.837 1.763-.145 3.442.103 4.996.957.252.138.45.089.554-.115.325-.641.884-.508 1.445-.475ZM44.063 8.156c1.15 0 2.299-.005 3.448.008.121.001.433-.133.334.175-.072.226.122.632-.385.659-.463.024-.922.124-1.383.198-.707.113-1.08.552-1.237 1.223-.685 2.94-1.377 5.879-2.067 8.817-.276 1.176-.552 2.351-.833 3.525-.146.612.073 1.008.687 1.207.406.132.826.203 1.249.245.215.02.288.05.247.304-.068.425-.24.56-.694.554-2.24-.029-4.483-.01-6.724-.02-.123-.001-.407.15-.361-.175.036-.252-.092-.626.377-.652.386-.02.772-.045 1.154-.094.595-.076 1.294-.451 1.482-1.324.358-1.66.775-3.306 1.165-4.96.556-2.36 1.108-4.722 1.663-7.083.22-.94-.065-1.397-1.03-1.574-.22-.04-.43-.112-.66-.128-.31-.021-.579-.13-.386-.56.1-.225.172-.358.462-.353 1.164.02 2.328.008 3.492.008ZM18.713 32.415l-2.182 3.355h2.756l-.574-3.355Zm1.465 6.903c-.527 0-1.054-.003-1.581.002-.17.001-.31-.008-.312-.217-.002-.183.13-.211.276-.223.092-.008.186-.006.278-.015.578-.055.736-.231.756-.761.02-.533-.208-1.035-.19-1.568.007-.18-.152-.226-.329-.225-.899.004-1.797.006-2.697-.001-.178-.001-.278.06-.361.207-.281.496-.598.974-.861 1.478-.275.527-.187.673.416.833.102.027.211.03.317.042.134.017.28-.006.266.208-.012.192-.092.245-.285.243-.729-.008-1.457-.003-2.186-.003-.279 0-.558.005-.837-.003-.092-.002-.248.054-.237-.114.009-.133-.021-.294.213-.326.785-.105 1.277-.58 1.676-1.188 1.51-2.298 3.038-4.587 4.537-6.892.165-.254.35-.32.6-.272.22.043.2.254.226.418.273 1.657.548 3.314.817 4.972.107.657.21 1.315.3 1.975.076.557.303.846.873.969.197.043.257.1.248.28-.01.206-.16.18-.296.18-.542.002-1.085 0-1.627 0ZM76.882 33.69c-.497-.023-.907.193-1.244.53-1.147 1.142-1.47 2.55-1.23 4.117.053.348.213.647.553.815.705.347 2.072-.245 2.267-1.014a79.66 79.66 0 0 0 .727-3.136c.167-.792-.271-1.304-1.073-1.312Zm-.145-.462c.419-.038.82.057 1.204.224.405.177.782.033 1.16-.08.358-.11.454-.057.354.352-.347 1.434-.656 2.876-.978 4.316a1.9 1.9 0 0 0-.052.318c-.033.674.184.868.85.772.147-.021.35-.196.431.01.095.235-.128.335-.316.429-.505.253-1.032.37-1.594.306-.276-.032-.49-.147-.573-.437-.13-.457-.292-.443-.627-.124-.582.555-1.291.794-2.111.639-.86-.163-1.22-.804-1.418-1.545-.493-1.833.627-4.13 2.204-4.859.465-.215.944-.359 1.466-.32ZM22.102 34.121c.184-.771.829-.685 1.308-.878.013-.005.03-.002.045-.003 1.227-.147 1.44.534 1.208 1.493-.253 1.045-.47 2.099-.705 3.148-.068.3-.071.6.056.878.166.362.433.543.845.446a2.376 2.376 0 0 0 1.436-.963c.288-.417.262-.984.388-1.481.262-1.042.517-2.088.712-3.145.058-.314.183-.335.406-.355.895-.082.9-.083.705.8-.289 1.308-.587 2.614-.878 3.92a2.232 2.232 0 0 0-.043.327c-.053.732.168.936.873.83.136-.02.325-.219.408.042.074.237-.12.327-.3.394-.437.163-.865.333-1.35.347-.462.014-.75-.143-.904-.589-.103-.296-.216-.376-.501-.123-.615.544-1.32.875-2.168.771-.537-.066-.937-.48-.98-1.047-.06-.75.14-1.454.292-2.172.153-.723.428-1.413.432-2.18.002-.473-.222-.548-.556-.59-.23-.03-.443.085-.729.13ZM50.442 34.353c.746-.649 1.448-1.166 2.406-1.132.922.033 1.484.69 1.29 1.623-.218 1.036-.474 2.063-.725 3.091-.021.09-.052.175-.062.27-.096.961.078 1.128 1.003.97.088-.014.221-.122.273.04.045.144.006.294-.136.369-.587.307-1.204.502-1.867.377-.476-.089-.775-.751-.623-1.363.25-1.008.527-2.01.771-3.02.06-.247.163-.499.11-.764-.154-.753-.647-.971-1.408-.663-.758.307-1.197.862-1.348 1.731-.222 1.275-.542 2.53-.819 3.795-.025.115-.052.223-.19.224-.306.002-.661.102-.905-.026-.347-.182-.04-.518.016-.78.257-1.211.521-2.421.803-3.627.04-.165.035-.33.08-.498.178-.667-.18-1.032-.827-.87-.15.038-.325.196-.404-.048-.065-.203.096-.33.266-.413.513-.25 1.053-.38 1.618-.31.53.064.65.484.678 1.024ZM82.308 34.358c.482-.41.917-.766 1.44-.977.422-.17.866-.19 1.302-.132.689.091 1.123.825.954 1.614-.195.91-.43 1.811-.64 2.718-.063.273-.127.55-.152.828-.062.7.133.88.797.827.158-.012.392-.27.484.04.087.295-.214.331-.392.425-.48.251-.994.339-1.525.282-.557-.06-.872-.724-.69-1.42.262-1.002.527-2.004.778-3.01.058-.234.121-.493.082-.722-.131-.757-.625-.984-1.391-.68-.737.292-1.197.827-1.354 1.672-.238 1.285-.545 2.557-.82 3.835-.028.13-.053.25-.217.248-.305-.004-.669.102-.902-.034-.325-.19-.017-.528.04-.795.252-1.198.52-2.392.78-3.587.02-.092.048-.182.06-.274.145-1.124.144-1.123-.97-1.043-.084.006-.184.041-.228-.087-.05-.141.031-.257.101-.337.295-.338 1.599-.534 2.017-.34.378.174.418.53.447.949ZM60.068 34.04c.12-.649.697-.616 1.128-.76.252-.084.548-.064.819-.037.465.046.74.535.66 1.096-.157 1.115-.52 2.181-.721 3.286a3.86 3.86 0 0 0-.06.464c-.024.381-.05.787.322 1.014.398.243.782.042 1.163-.121.871-.373 1.036-1.192 1.21-2.011.238-1.12.48-2.238.721-3.356.087-.398.4-.359.685-.372.614-.03.627-.027.494.599-.304 1.432-.626 2.86-.932 4.291-.18.843.12 1.15.94.963.119-.027.23-.065.351-.03-.11.456-.734.806-1.453.828-.82.024-.986-.102-1.257-.977-.395.26-.736.592-1.164.796-.612.292-1.215.424-1.842.086-.35-.188-.691-.985-.604-1.363l.77-3.376c.222-.967-.066-1.253-1.002-.99-.074.02-.148.037-.228-.03ZM34.284 37.584c0 .313.012.622.087.929.214.87.873 1.235 1.688.926.397-.15.704-.426.923-.787.735-1.215.954-2.548.703-3.945-.147-.817-.804-1.167-1.575-.933-.537.163-.905.536-1.172 1.026-.471.863-.624 1.809-.654 2.784Zm1.104 2.403c-.88.079-1.632-.213-2.06-1.064-.324-.645-.462-1.33-.326-2.105a5.771 5.771 0 0 1 .855-2.187c.775-1.196 2.728-1.782 3.956-1.16.828.42 1.216 1.19 1.237 2.107.035 1.513-.427 2.827-1.653 3.757-.591.449-1.241.715-2.01.652ZM46.503 30.52c.578 0 1.156-.004 1.734.005.112.001.305-.088.305.14 0 .187-.084.31-.307.29-.074-.007-.15.016-.224.02-1.031.05-1.114.845-1.283 1.56-.415 1.76-.814 3.524-1.227 5.284-.18.76-.09.912.692 1.032.18.028.373-.019.35.267-.022.276-.225.19-.37.192-1.141.006-2.282.005-3.423 0-.124-.001-.31.086-.31-.184 0-.223.13-.236.285-.252.21-.022.426-.012.626-.065.464-.123.651-.474.75-.905.403-1.738.818-3.473 1.229-5.209.068-.288.151-.574.213-.864.094-.44-.183-.715-.798-.81-.353-.055-.36-.056-.344-.16.033-.23.11-.37.415-.35.56.034 1.124.01 1.687.01ZM96.875 34.507c.006-.594-.212-.808-.791-.791-.28.008-.532.101-.753.268-.797.603-1.172 1.464-1.355 2.437-.03.163-.013.264.2.226.59-.107 1.184-.19 1.721-.487.636-.352.972-.898.978-1.653Zm-2.077 5.487c-1.334.08-2.087-.777-2.176-2.171-.088-1.36.29-2.556 1.17-3.544.844-.947 2.14-1.31 3.403-.88.99.34 1.068 1.543.416 2.383-.39.5-.955.74-1.52.91-.604.181-1.206.408-1.854.409-.245 0-.393.135-.355.444.085.68.23 1.32.897 1.641.54.26 1.465.007 1.936-.492.158-.166.338-.314.477-.496.11-.145.184-.22.349-.08.17.144.16.273.025.43-.738.854-1.568 1.518-2.768 1.446Z" clip-rule="evenodd"/><path fill="#858585" fill-rule="evenodd" d="M56.582 39.985c-.681.02-1.265-.085-1.72-.634-.299-.362-.29-.918.02-1.196.255-.227.695-.115.934.254.071.108.111.244.157.371.258.713.516.876 1.158.727.519-.121.816-.592.869-1.195.04-.46-.165-.663-.451-.869-.321-.23-.68-.361-1.026-.52-.69-.318-1.151-.939-1.162-1.62-.01-.696.589-1.612 1.23-1.869.672-.269 1.358-.269 2.043-.088.476.126.775.529.754.944-.016.335-.165.578-.45.622-.268.042-.59.116-.707-.329-.026-.1-.098-.186-.123-.287-.116-.47-.381-.66-.8-.588-.458.077-.81.398-.882.812-.101.581.033.943.485 1.196.398.223.811.411 1.218.613 1.314.655.97 2.398.227 3.053-.54.475-1.154.676-1.774.603ZM88.5 37.044c.029.324.014.66.093.97.382 1.488 1.718 1.54 2.626.766.221-.188.417-.409.615-.623.147-.16.272-.121.426-.01.228.164.033.26-.046.365-.852 1.127-1.95 1.651-3.352 1.442-.782-.116-1.62-1.114-1.666-2.01-.06-1.191.133-2.318.833-3.306.874-1.235 2.134-1.661 3.592-1.287.854.219 1.223 1.16.833 1.955-.16.326-.433.44-.786.447-.311.006-.416-.204-.573-.41-.203-.27.047-.464.074-.684.03-.235.324-.5.122-.702-.252-.253-.624-.318-.996-.21-.72.208-1.077.78-1.38 1.414-.284.593-.382 1.227-.415 1.883ZM32.837 33.703c.148 0 .299-.018.443.006.126.022.375-.132.345.167-.022.213-.062.45-.387.429-.339-.022-.683.023-1.02-.013-.336-.035-.45.109-.515.417-.254 1.198-.534 2.39-.795 3.587-.135.621.12.936.754.935.22 0 .44-.042.658-.068.082-.01.18-.083.232.018.025.049-.033.136-.04.207-.017.181-.16.257-.291.297-.596.183-1.194.372-1.833.299-.51-.058-.917-.561-.768-1.193.335-1.423.635-2.855.967-4.28.044-.188-.011-.209-.153-.21a34.68 34.68 0 0 0-.577 0c-.15 0-.3.02-.297-.214.001-.205.065-.343.275-.382.015-.003.03 0 .044-.001.306-.026.737.143.89-.066.212-.291.233-.732.315-1.113.046-.214.014-.554.176-.604.299-.091.645-.052.967-.024.188.016.084.196.065.29-.083.42-.158.846-.29 1.251-.088.27.02.273.213.267.207-.006.415-.002.622-.002ZM67.716 40c.194-.92.394-1.758.546-2.606.157-.886.466-1.742.462-2.66-.003-.558-.151-.684-.688-.65-.174.011-.326.167-.51.083.17-.588.81-.887 1.788-.84.422.02.6.257.769 1.026.327-.275.654-.547.978-.824.373-.318.808-.349 1.246-.277.406.066.62.433.641 1 .018.472-.25 1.04-.545 1.156-.43.169-.981-.08-.989-.502a1.354 1.354 0 0 1 .283-.847c-.284-.13-.479-.019-.691.095-.9.48-1.248 1.314-1.404 2.332-.157 1.02-.416 2.02-.605 3.033-.061.329-.188.443-.495.412-.227-.022-.466-.051-.786.068ZM100.427 36.285c.739.007 1.308-.6 1.302-1.386-.006-.776-.59-1.392-1.316-1.388-.715.004-1.283.595-1.3 1.353-.017.81.54 1.413 1.314 1.42Zm-.141.324c-.984.02-1.578-.882-1.574-1.504.008-1.472.82-1.924 1.817-1.883.892.037 1.596.802 1.572 1.74-.025.97-.793 1.666-1.815 1.647Z" clip-rule="evenodd"/><path fill="#858585" fill-rule="evenodd" d="M100.417 34.297c0 .118-.039.25.204.22.178-.024.413 0 .411-.212-.002-.186-.211-.184-.381-.2-.195-.018-.261.062-.234.192Zm-.327.276c0-.045-.008-.09.002-.134.033-.159-.121-.393.081-.464.296-.104.659-.105.971.015.266.102.341.302.153.473-.141.128-.158.2-.026.32.052.048.091.127.082.187-.014.093.191.227-.045.276-.226.047-.249-.108-.279-.227-.028-.112-.049-.228-.21-.272-.221-.06-.425-.108-.414.184.003.1.157.313-.138.314-.317 0-.141-.218-.171-.338-.027-.107-.006-.223-.006-.334Z" clip-rule="evenodd"/></svg>