<svg xmlns="http://www.w3.org/2000/svg" width="120" height="31" fill="none"><path fill="#858585" d="M93.375 25.511h3.535v.9h-2.602v1.134h2.401v.8h-2.4v1.335h2.767v.867h-3.701V25.51ZM90.34 27.18a1.1 1.1 0 0 0-1.1-.9c-1 0-1.434.866-1.434 1.767 0 .867.4 1.767 1.434 1.767.666 0 1-.433 1.2-1l.867.367c-.4 1-1.067 1.5-2.067 1.5-1.634 0-2.435-1.234-2.435-2.668 0-1.4.9-2.634 2.435-2.634 1 0 1.767.533 2 1.6l-.9.234v-.033Zm-9.804-1.668h.867l2.1 3.602V25.51h.901v5.036h-.867l-2.168-3.535v3.568h-.867v-5.002l.034-.067Zm-4.936 0h1.134l1.667 5.036h-1l-.267-1H75.2l-.267 1h-1l1.667-5.002v-.034Zm.567.934-.7 2.301h1.4l-.666-2.334-.034.033Zm-8.003-.934h2.1c1.068 0 1.668.667 1.668 1.534 0 1.134-.734 1.4-1 1.468l1.133 2.034h-1.034l-1-1.834h-.9v1.834h-.934v-5.002l-.033-.034Zm.933 2.335h1.034c.5 0 .834-.267.834-.734 0-.467-.334-.767-1-.767h-.868v1.534-.033Zm-3.668 1.167c0 1-.8 1.667-2 1.667-1.235 0-2.035-.667-2.035-1.667V25.51h.934v3.235c0 .634.266 1 1.1 1 .8 0 1.067-.366 1.067-1v-3.235h.967v3.502h-.033Zm-10.071 0c.333.567.9.8 1.534.8.467 0 1.067-.167 1.067-.667 0-.367-.367-.5-1.034-.667l-.567-.1c-.8-.2-1.5-.5-1.5-1.4 0-1.068 1-1.601 1.934-1.601.867 0 1.567.333 2.1 1l-.766.634c-.267-.467-.734-.734-1.334-.734-.534 0-.967.2-.967.534 0 .433.467.533 1.034.667l.633.133c.734.167 1.468.467 1.468 1.4 0 1.235-1.168 1.668-2.235 1.668a2.668 2.668 0 0 1-2.167-1.067l.8-.567v-.033Zm-6.803-3.502h.867l2.134 3.602V25.51h.867v5.036h-.867l-2.134-3.535v3.568h-.867v-5.069Zm-3.735 5.036v-5.002h.934v5.002h-.934Zm20.309-8.204v-.367h52.19v.367h-52.19Zm-41.152 0v-.367H60.16v.367H23.977Zm94.976-5.769c.567 0 1.033.433 1.033 1.067a1.032 1.032 0 0 1-1.988.396 1.033 1.033 0 0 1-.079-.396c0-.633.5-1.067 1.034-1.067Zm0 1.9c.433 0 .8-.333.8-.833 0-.467-.333-.834-.8-.834-.434 0-.767.334-.767.834 0 .5.333.834.767.834Zm-.401-1.4h.434c.3 0 .434.1.434.334 0 .233-.101.333-.267.333l.333.5h-.267l-.3-.5h-.133v.5h-.234v-1.167Zm.234.5h.2c.133 0 .233 0 .233-.166 0-.134-.133-.167-.233-.167h-.2v.333Zm-4.469-7.17c0-.833-.266-1.133-1.134-1.167v-.266l2.668-.2h.234v8.47c0 .8.2 1 1.067 1.2v.267h-4.002v-.266c.901-.167 1.167-.434 1.167-1.201v-6.836Zm-2.334 7.137c0 .567.1.8.333.8.267 0 .434-.2.501-.567h.266c-.066.734-.6 1.168-1.467 1.168-.734 0-1.134-.234-1.434-.834l-.167.1a2.564 2.564 0 0 1-1.867.734c-1.001 0-1.801-.7-1.801-1.568 0-1.634 2.401-1.734 3.835-2.3 0-1.034-.4-1.568-1.467-1.568-.834 0-1.434.333-1.801 1h-.233c.333-1.267 1.267-2 2.667-2 1.268 0 2.635.566 2.635 2.2v2.835Zm-1.801.133v-2.267c-1.501.633-1.967 1-1.967 1.8 0 .668.333 1.068.833 1.068.367 0 .701-.2 1.134-.6Zm-11.205-3.668c0-.667-.233-.867-.934-1v-.267l2.435-.267h.267v4.402c0 .734.467 1.067 1.133 1.067.601 0 .968-.267 1.468-1.067v-3.001c0-.467-.334-.767-.934-.867v-.267l2.468-.267h.267v4.769c0 .8.166 1 .933 1.2v.267l-2.734.234v-1.468c-.667 1-1.434 1.468-2.401 1.468-1.234 0-2.001-.667-2.001-1.834v-3.069l.033-.033Zm-4.935-.767h-1.1v-.333c.766-.434 1.733-1.368 2.567-2.468h.334v2.334h1.934v.467h-1.968v3.435c0 .967.267 1.534 1.1 1.534.334 0 .567-.133.868-.467l.2.167c-.467.734-1.034 1.067-1.934 1.067-1.1 0-2.001-.534-2.001-1.9v-3.87.034Zm-8.47.767c0-.667-.234-.9-.934-1.034v-.266l2.434-.267h.267v4.402c0 .733.467 1.067 1.133 1.067.6 0 .934-.267 1.468-1.067v-3.002c0-.466-.334-.767-.934-.867v-.266l2.468-.267h.267v4.769c0 .8.166 1 .933 1.2v.267l-2.734.233v-1.467c-.667 1-1.434 1.467-2.401 1.467-1.234 0-2.001-.667-2.001-1.834v-3.068h.033Zm-2.135 2.935c.1.834.5 1.267 1.4 1.467v.267H80.27v-.267c1-.267 1.167-.867 1-2.068l-.767-5.268-3.001 7.603h-.333l-3.002-7.603h-.033l-.8 5.435c-.167 1.067.033 1.801 1.067 1.901v.267h-3.335v-.267c1-.067 1.434-.634 1.667-2.068l.9-6.035a2.034 2.034 0 0 0-1.333-.667v-.234h3.334l2.402 6.103 2.467-6.103h3.135v.267c-.967.167-1.167.667-1.067 1.5l.867 5.77Zm-17.274-4.269h2.468v.267c-.768.2-.934.434-1.434 1.534l-3.002 6.87c-.667 1.467-1.334 2-2.568 2l-.5-.033.334-1.834c.4.134.6.167.833.167 1.1 0 1.734-.8 2.468-2.768l-2.168-4.602c-.4-.8-.666-1.134-1.5-1.134h-1.6v3.435c0 1 .233 1.534 1.066 1.534.334 0 .6-.133.867-.467l.2.167c-.433.767-1 1.067-1.9 1.067-1.134 0-2.035-.534-2.035-1.9v-3.836h-1.067v-.3c.734-.434 1.7-1.4 2.568-2.468h.3v2.301h5.27v.267c-.668.1-.668.434-.334 1.2l1.3 2.602.8-1.901c.567-1.267.367-1.734-.366-1.901v-.267ZM56.025 14.74c-.5-.5-.934-.767-1.334-.767-.534 0-.867.233-1.334.867v2.434c0 .7.133.934 1 1.1v.268h-3.801v-.267c.8-.2 1-.434 1-1.1v-3.169c0-.767-.333-1.1-1.067-1.167v-.267l2.601-.233h.267v1.9c.634-1.333 1.267-1.9 2-1.9.401 0 .801.167 1.068.5l-.4 1.8Zm-5.67.4h-4.501c-.1 1.934 1 2.968 2.1 2.968.868 0 1.568-.434 2.135-1.334h.267a3.368 3.368 0 0 1-3.202 2.101c-1.867 0-3.235-1.334-3.235-3.168 0-1.868 1.434-3.268 3.335-3.268 1.668 0 2.902 1.034 3.102 2.668v.033Zm-4.501-.367h2.568c-.034-1.134-.6-1.9-1.334-1.9-.7 0-1.2.766-1.234 1.9Zm-7.837-6.036v4.802a3.07 3.07 0 0 1 2.268-1.1c1.634 0 2.868 1.334 2.868 3.068 0 1.867-1.1 3.368-4.002 3.368-1.134 0-2.035-.067-2.935-.233v-8.57c0-.501-.333-.801-.9-.901v-.267l2.4-.167h.3Zm0 5.203v3.501c0 .667.233 1 .934 1 1.334 0 2.2-.767 2.2-2.734 0-1.434-.666-2.468-1.767-2.468-.467 0-.767.167-1.367.7Zm-4.769-5.203a1 1 0 0 1 1.034 1c0 .6-.467 1.068-1 1.068a1.067 1.067 0 0 1-1.068-1.034c0-.567.467-1.034 1.034-1.034Zm.9 8.637c0 .6.3.934.968 1v.268h-3.769v-.267c.8-.167 1-.367 1-1.134v-3.235c0-.733-.2-.934-1.066-1.1v-.234l2.6-.233h.268v4.935Zm-7.136-.266c0 .767.334 1 1.434 1 1.134 0 1.667-.334 2.401-1.867h.3l-.3 2.4h-7.036v-.266c1.067-.267 1.167-.5 1.167-1.5v-5.937c0-.8-.2-1.034-1.167-1.3V9.37h4.402v.267c-.934.266-1.168.433-1.168 1.233v6.237h-.033Zm-5.336-4.77c.067.1-.1.268-.1.268l-2.334 2.6c.503 2.143.593 4.361.267 6.537-1.968 0-5.703.667-8.904 3.668-1.568 1.5-2.601 3.368-2.801 3.602-.3 0-.567-.2-.767-.334.967-1.8 2.334-3.101 3.201-3.868 1.334-1.167 2.201-1.567 3.668-2.334a11.038 11.038 0 0 0-5.969 3.634c-.9 1.168-1.5 2.201-1.5 2.201-.334-.2-.434-.333-.434-.333-1.934-2.034-2.935-5.202-2.935-8.737 0-2.001.3-3.835.867-5.403l-.066-1.334h-.534a.841.841 0 0 1-.567-.2c-.2-.1-.267-.2-.333-.333l-.167-.333a.61.61 0 0 1-.434-.567c0-.267.067-.4.134-.534-.034-.2-.134-.667-.1-.834-.234 0-.5-.333-.6-.567-.067-.2 0-.4.1-.533-.2 0-.334-.1-.367-.2-.1-.134-.067-.334.033-.5-.5-.2-1.1-.9-1-1.968 0-.634.4-1.4.466-1.534v-.467a.392.392 0 0 1 .534.033l.5-.5a2.201 2.201 0 0 1-.333-1.434c.1-.967 1-1.6 2.1-1.6.768 0 .801.1 1.335.133.533 0 .9-.234 1-.4.333.133.5.5.433.9.234.067.534 0 .768-.133.233-.1.566-.4.633-.667.4.2.7.633.667 1.2 0 .767-.367 1.234-1.034 1.501-.533.2-1.167.333-1.267.667-.033.267 0 .233.067.333l.4-.066c.167 0 .333.133.333.333a.445.445 0 0 0-.133.334c0 .2.167.5.267.833.167.434.2.734.067 1.334-.138.432-.365.83-.667 1.167 0 .234.3.934.633 1.801l.167-.133a7.87 7.87 0 0 1 5.502-1.234l.334-1.7s.033-.2.167-.2c.133 0 .166.2.166.2l.5 1.933a7.17 7.17 0 0 1 3.269 2.001l1.634-1.334s.166-.166.266-.133c.1.067 0 .334 0 .334l-.9 2.434c.267.467.534.967.734 1.5l2.801-1.033s.167-.067.233 0Z"/><path fill="#FFF9F9" d="M4.236 11.171c-.134-.066-.5-.266-.8-.233a1.5 1.5 0 0 0-.801.2c-.1-.067-.134-.2-.067-.333.067-.167.133-.2.133-.2l-.033-1.501s.4-.3.534-.334c.1 0 .166-.1.166-.233.167.133.467.433.6.633.134.2.2.4.234.667l-.033.8c.067.067.167.134.167.268 0 .133 0 .166-.067.266h-.033Zm.566 4.402c-.066-.1-.333-5.602-.333-5.802l.333-.2v-.067c-.233 0-.5-.1-.566-.2l-.1-1.7c-.267 0-.6-.134-.7-.234-.134-.134-.268-.334-.1-.634.166.1.6.233.966.233.067 0 .234.167.334.234.1 0 .3.133.367.167.1.033.133.2.166.3l2.801 7.236.2 1.334c.139.39.306.77.5 1.134-.333 0-.966.2-1.433.667a4.736 4.736 0 0 0-1 2c-.034-.266-1.368-4.334-1.435-4.468Zm3.469 6.803c-.1 1.067-.367 2.001-.767 2.701-.267.434-1 1.334-1.234 1.668.267-.567.467-1.868.467-2.901 0-.667-.234-2.135-.034-3.102.167-1 .467-1.6 1.167-2.267.334-.334 1.1-.734 2.135-.467l.833 1.6c-.466-.1-1.033 0-1.434.3-.767.567-1 1.334-1.133 2.468Zm.1 2.135c.2-.467.467-1.768.533-2.201.1-.567.2-1.401.867-1.935.334-.266.867-.333 1.067-.233l.968 1.934c.066.2.333.267.533.267-.867.267-3.135 1.334-4.002 2.168h.034Zm8.07-6.17c.167-.233.534-.567.767-.7l.033 1.167s.767 1.434 1.1 2.168h-.866c-.167-.267-.3-.467-.434-.9l-.6-1.101a.6.6 0 0 1 0-.667v.033ZM3.435 6.303c-.667 0-1.134.266-1.2.466-.067-.3 0-.5.166-.667.234-.2.6-.333 1-.333.501 0 .868.167 1.068.333.233.2.3.434.267.667a1.767 1.767 0 0 0-1.334-.466h.033ZM2.001 2.267c0-.5.4-1.067 1.234-1.133l1.134.1c.233 0 .867-.067 1-.167.1.167.067.333 0 .533.167.1.7.2.934.167.467 0 .934-.267 1.1-.5.067.267 0 .634-.2.834-.466.366-1.5.6-1.8.833-.267.167-.334.3-.434.434-.1-.1-.167-.167-.333-.167-.167 0-.267.234-.467.2-.267 0-.467-.433-.734-.433-.467 0-.667.333-.834.333-.133.034-.333-.167-.4-.267-.133-.166-.233-.5-.2-.767Zm1.434 2.568c-1.567-.033-2.668.6-2.601 1.568-.067-.2-.167-.334-.133-.567 0-.334.2-.567.333-.8.033-.2 0-.5-.067-.601.1 0 .334.1.434.067.2-.034.233-.1.333-.234.067-.166.134-.266.3-.3.134 0 .434.134.667.1.3-.066.434-.4.667-.4.267 0 .467.334.7.367.234.033.601-.234.868-.134.233.067.1.434.267.6.166.134.567-.033.667-.066 0 .167-.067.267-.034.467 0 .167.267.667.3.834 0 .233 0 .433-.066.667-.034-.7-.834-1.534-2.668-1.568h.033Zm-1.1 3.435h-.6c-.067-.1-.067-.333-.034-.5h.2l-.1-.3c.133-.134.734-.434 1.1-.434v.334c0 .033 0 .1-.1.133l-.3.167h.567c.1 0 .134.033.134.133s0 .2-.067.3c-.067.067-.233.067-.333.067.066.1.066.167.066.267s-.033.133-.133.2c-.1 0-.2.1-.334.167-.066.066-.233.3-.266.433-.134-.067-.267-.4-.334-.533.133-.2.4-.4.534-.434Zm14.673 7.07c0 .1.067.233 0 .333a18.74 18.74 0 0 0-.8-.867l-.467.6.867.768c-.2.1-.434.2-.767.166-.4-.066-1.268-.633-1.3-1.067a5.337 5.337 0 0 0-1.868-.4c-.434 0-.934.133-1.1.167-.134.066-.268-.034-.368-.067h-.066l.333.534c.1.066.3-.067.567-.1.467-.1 1.067 0 1.534.233.333.2 1.234.934 1.434 1.134.167.2.467.233.6.1.134-.1.334-.1.334.067-.034.133-.1.333.033.366.167.067.233-.066.334-.133.1-.067.2-.067.333 0l-.5.6c-.2.134-.467.267-.667.2l-.1.3.833 1.968.434.867c-1.667.267-3.201.8-3.702 1l-.333-1.133.767-1.1s-.834.3-1.067.333c-.034 0-.434.066-.534-.334l-.066-.333c0-.1.1-.234.166-.234.167.034.267 0 .267 0l.133-.233-.333-.067-.334.1c-.066-.033-.166-.133-.133-.267h.9v-.1s-.433-.2-.633-.2c-.167 0-.234.1-.234.1v-.2l.5-.4-.533-.233-.3.066.2-1.2-.1-.2-.5.3v-.667c0-.133.233-.367.433-.5l-.033-.4c-.2.133-.434.2-.567.4-.133.166-.3.4-.267.667-.166-.167-.2-.434-.166-.6.066-.234.133-.367.4-.6-.067-.168-.1-.534 0-.868.066-.534.7-1.567 2.2-1.567.979.096 1.907.48 2.668 1.1 1 .734 1.534 1.367 1.568 1.6Zm-1.668-.234.434-.6c-.1-.133-1.1-.733-1.434-.834l-.333.834c.233.067 1 .434 1.333.667v-.067Zm-1.734-.767.167-.9c-.267-.133-.667-.2-1-.2-.367 0-.767.1-1 .233l.3.8c.366-.1 1.266-.133 1.533.067Zm-2.668.567c.167-.166.5-.4.734-.533l-.3-.667c-.2.2-.6.667-.434 1.2Zm.867 1.334v.334c.167.033.367.233.5.4l.268-.1-.134-.167.367-.1c.233 0 .467.033.567.134l.6-.134.067-.1c-.4-.334-1-.667-1.5-.534-.334.067-.734.3-.734.3v-.033Zm6.003-.433c0-.3-.333-1.067-.533-1.234l3.468-1.568-2.968 2.802h.033Zm-9.67-5.87 3 2.735c-.333.167-.733.6-.867.934L8.137 9.937Zm1.7 5.403a1 1 0 0 0-.167.467v.467l-.9-.667-.067-.734v-.067l1.134.534Zm5.402-2.368 3.002-3.001-1.768 3.835c-.2-.134-.9-.734-1.234-.834Zm-2.834-.767.6-4.769.867 4.902c-.267-.133-1.1-.233-1.467-.166v.033Z"/><path fill="#858585" d="M34.285 9.6a1.03 1.03 0 0 0-1.03-1.026A1.04 1.04 0 0 0 32.208 9.6a1.057 1.057 0 0 0 1.047 1.047 1.044 1.044 0 0 0 1.03-1.047Zm36.776 8.665v.27h3.355v-.27c-1.044-.077-1.25-.807-1.09-1.884l.807-5.446h.03l2.974 7.6h.334l3.001-7.6h.034l.76 5.292c.173 1.2 0 1.788-1 2.038v.27h4.575v-.27c-.904-.17-1.3-.634-1.41-1.438l-.841-5.779c-.127-.854.096-1.334 1.047-1.507v-.264h-3.135l-2.468 6.11-2.42-6.11h-3.335v.264c.508.04.983.266 1.334.637l-.914 6.05c-.214 1.42-.644 1.993-1.638 2.037ZM120 17.49a1.043 1.043 0 0 0-1.259-.99 1.043 1.043 0 0 0-.74 1.42 1.038 1.038 0 0 0 1.927-.023c.051-.13.075-.268.072-.407Zm-1.831 0a.785.785 0 0 1 .517-.698.789.789 0 0 1 .998 1.053.79.79 0 0 1-1.515-.355Zm-58 4.315H23.985v.377H60.17v-.377Zm-.99-11.605c-.717.96-1.583 1.8-2.564 2.488v.3h1.077v3.832c0 1.36.904 1.897 2.028 1.897a2 2 0 0 0 1.914-1.06l-.19-.174a1.107 1.107 0 0 1-.87.474c-.838 0-1.091-.567-1.091-1.534v-3.435h1.6c.871 0 1.125.317 1.505 1.124l2.184 4.605c-.727 1.961-1.36 2.755-2.468 2.755a2.279 2.279 0 0 1-.81-.14l-.364 1.804c.168.023.338.033.507.03 1.237 0 1.918-.524 2.548-1.978l3.001-6.873c.49-1.104.667-1.334 1.441-1.534v-.27h-2.484v.27c.76.16.933.634.396 1.901l-.823 1.914-1.267-2.61c-.367-.761-.367-1.111.333-1.205v-.27h-5.29v-2.31h-.313Zm-8.847 4.766c-.22-1.645-1.437-2.692-3.131-2.692a3.234 3.234 0 0 0-3.335 3.262 3.145 3.145 0 0 0 3.261 3.181 3.376 3.376 0 0 0 3.195-2.074h-.267c-.57.87-1.267 1.3-2.137 1.3-1.107 0-2.215-1-2.121-2.977h4.535Zm-3.258-2.265c.727 0 1.267.794 1.334 1.901h-2.594c.04-1.14.54-1.9 1.26-1.9Zm6.046-.427-2.611.237v.27c.76.064 1.09.41 1.09 1.17v3.152c0 .667-.203.917-1 1.107v.27h3.798v-.27c-.867-.173-1-.393-1-1.107v-2.438c.457-.633.79-.853 1.334-.853.413 0 .823.27 1.334.773l.393-1.804a1.39 1.39 0 0 0-1.057-.507c-.747 0-1.394.6-1.98 1.901h-.03v-1.9h-.27ZM37.767 8.574l-2.425.173v.27c.557.094.904.38.904.887v8.578c.961.174 1.938.253 2.915.236 2.91 0 4.001-1.517 4.001-3.355 0-1.74-1.233-3.088-2.847-3.088a3.055 3.055 0 0 0-2.295 1.094V8.574h-.253Zm1.667 4.508c1.057 0 1.77 1 1.77 2.471 0 1.948-.886 2.738-2.214 2.738-.716 0-.95-.316-.95-1v-3.495c.597-.553.914-.714 1.39-.714h.004Zm-15.613 5.13v.27h7.076l.267-2.405h-.267c-.744 1.534-1.267 1.88-2.408 1.88-1.14 0-1.457-.236-1.457-1v-6.232c0-.807.253-1 1.174-1.234v-.27H23.82v.27c.968.237 1.171.473 1.171 1.297v5.92c0 .997-.11 1.237-1.17 1.503Zm7.453-5.43c.873.174 1.077.38 1.077 1.11v3.182c0 .757-.19.98-1 1.137v.27h3.751v-.27c-.667-.08-.964-.41-.964-1v-4.919h-.27l-2.598.22.004.27Zm77.507 2.551c-1.22.334-2.421.724-2.421 1.871 0 .874.807 1.568 1.788 1.568a2.58 2.58 0 0 0 1.884-.71l.14-.127a1.392 1.392 0 0 0 1.441.837c.87 0 1.394-.41 1.457-1.154h-.254c-.063.363-.223.553-.473.553-.25 0-.367-.236-.367-.79v-2.818c0-1.647-1.334-2.234-2.624-2.234-1.394 0-2.361.747-2.668 2.027h.24a1.914 1.914 0 0 1 1.787-1c1.077 0 1.491.507 1.491 1.567-.333.127-.747.234-1.151.334l-.27.076Zm1.391 2.171c-.41.414-.757.617-1.121.617-.493 0-.827-.426-.827-1.073 0-.807.461-1.171 1.948-1.808v2.264Zm-38.22 9.374c0-.88-.627-1.517-1.694-1.517h-2.101v5.032h.947v-1.85h.904l.977 1.85h1.094l-1.124-2.027a1.417 1.417 0 0 0 .997-1.488Zm-1.818.828h-1.03v-1.521h.89c.667 0 .967.297.967.757a.745.745 0 0 1-.827.764Zm13.383 1.237-2.111-3.582h-.87v5.032h.863v-3.585h.014l2.114 3.585h.867v-5.032h-.86v3.582h-.017Zm-31.974 0-2.114-3.582h-.87v5.032h.863v-3.585h.013l2.114 3.585h.87v-5.032h-.863v3.582h-.013Zm22.39 1.45h1l.29-.977h1.908l.29.977h1l-1.667-5.032H75.65l-1.717 5.032Zm2.24-4.115.694 2.305h-1.4l.693-2.305h.014Zm-30.406-.917h-.947v5.032h.947v-5.032Zm19.682 3.492V25.36h-.947v3.235c0 .617-.264 1-1.08 1-.818 0-1.084-.386-1.084-1v-3.235h-.948v3.492c0 1.023.814 1.667 2.031 1.667s2.028-.65 2.028-1.667Zm-6.506 0c0-.954-.707-1.258-1.454-1.42l-.617-.134c-.564-.127-1.037-.227-1.037-.644 0-.353.41-.557.953-.557a1.403 1.403 0 0 1 1.334.727l.784-.593a2.483 2.483 0 0 0-2.098-1c-.94 0-1.95.506-1.95 1.567 0 .927.707 1.223 1.514 1.407l.556.127c.667.156 1.04.27 1.04.667 0 .49-.61.643-1.066.643a1.758 1.758 0 0 1-1.52-.764l-.808.58a2.643 2.643 0 0 0 2.178 1.061c1.033 0 2.19-.423 2.19-1.667Zm36.603-18.599c-.716.961-1.58 1.801-2.562 2.488v.3h1.078v3.829c0 1.364.9 1.9 2.024 1.9A2.001 2.001 0 0 0 98 17.712l-.187-.173a1.133 1.133 0 0 1-.87.477c-.84 0-1.094-.57-1.094-1.538v-3.435h1.964v-.476H95.85v-2.312h-.303Zm4.938 2.075-2.45.236v.28c.71.124.933.36.933 1.028v3.085c0 1.143.744 1.82 1.978 1.82.967 0 1.71-.443 2.374-1.454h.033v1.454l2.738-.236v-.27c-.79-.204-.95-.397-.95-1.188V12.33h-.27l-2.451.236v.28c.616.11.933.394.933.884v2.975c-.523.824-.887 1.077-1.49 1.077-.604 0-1.104-.333-1.104-1.044v-4.402l-.274-.006Zm-3.575 13.906v-.874h-3.561v5.032h3.745v-.877h-2.801v-1.3h2.404v-.834h-2.404v-1.147h2.617Z"/><path fill="#858585" d="m119.456 18.088-.313-.507a.289.289 0 0 0 .275-.195.296.296 0 0 0 .015-.118c0-.244-.15-.334-.437-.334h-.44v1.16h.216v-.5h.157l.294.5.233-.006Zm-.667-.667v-.334h.204c.113 0 .243.02.243.157s-.113.174-.247.174l-.2.003Zm-1.481 4.385H65.112v.377h52.196v-.377Zm-30.23-9.477-2.454.236v.28c.714.124.934.36.934 1.028v3.085c0 1.143.743 1.82 1.98 1.82.964 0 1.711-.443 2.375-1.454h.03v1.454l2.741-.236v-.27c-.79-.204-.95-.397-.95-1.188V12.33h-.27l-2.455.236v.28c.617.11.934.394.934.884v2.975c-.52.824-.884 1.077-1.484 1.077-.667 0-1.11-.333-1.11-1.044v-4.402l-.27-.006Zm26.102 5.936v.27h3.972v-.27c-.884-.204-1.057-.394-1.057-1.188V8.625h-.274l-2.641.177v.27c.857.046 1.127.333 1.127 1.184v6.822c0 .77-.257 1.044-1.127 1.188ZM91.304 29.023l-.864-.397c-.183.587-.557 1.017-1.217 1.017-1 0-1.42-.89-1.42-1.767 0-.877.416-1.765 1.42-1.765a1.084 1.084 0 0 1 1.11.938l.91-.234a1.926 1.926 0 0 0-2.02-1.58c-1.504 0-2.408 1.22-2.408 2.64 0 1.421.797 2.645 2.408 2.645 1.004 0 1.677-.487 2.08-1.497ZM17.108 14.828c-.043-.229-.622-.913-1.601-1.648-.764-.58-1.885-1.15-2.81-1.145-1.56.007-2.204 1.071-2.32 1.628-.072.337-.053.7.02.897-.25.213-.342.384-.392.623-.035.174 0 .422.161.577-.019-.229.139-.495.265-.67.142-.193.38-.27.592-.398l.034.426c-.204.116-.45.36-.468.49l.015.701.538-.32.103.212-.196 1.234.3-.054.553.224-.534.445v.178s.08-.109.269-.1c.188.007.671.223.671.223l-.019.105h-.937c-.034.123.077.217.146.27.123-.034.254-.096.323-.096.073 0 .234.043.376.058l-.173.228s-.088.066-.25.035c-.087-.02-.176.105-.176.205 0 .109.07.372.07.372.084.394.49.317.544.313.258-.023 1.103-.325 1.103-.325l-.81 1.13.353 1.207c.533-.221 2.13-.782 3.866-1.068-.188-.314-.219-.437-.454-.906l-.886-2.022.123-.302c.195.07.495-.07.69-.229.197-.158.427-.44.515-.615-.123-.07-.23-.054-.338.02-.107.07-.188.205-.338.14-.157-.07-.08-.245-.065-.403.02-.159-.184-.159-.326-.04-.142.125-.442.07-.637-.12-.196-.196-1.133-.97-1.471-1.163-.484-.279-1.136-.348-1.612-.263-.28.05-.48.174-.584.12l-.35-.538.058-.035c.123.054.242.155.4.1.16-.054.671-.17 1.132-.177.71-.012 1.57.247 1.947.406.019.456.944 1.037 1.363 1.09.353.047.568-.053.779-.173l-.902-.79.476-.603s.192.182.395.38l.104.1c.169.166.326.325.372.387.046-.086.012-.225-.007-.321Zm-5.437.916s.388-.22.757-.297c.54-.117 1.14.208 1.562.537l-.08.128-.607.143c-.12-.104-.342-.15-.584-.14-.18.009-.33.067-.376.086l-.015.008.119.193-.28.07c-.124-.155-.32-.353-.496-.403v-.325Zm-.921-1.392c-.158-.53.265-1.056.46-1.25l.3.689c-.227.12-.583.387-.76.56Zm2.799-.6c-.284-.193-1.221-.159-1.613-.07l-.284-.812c.211-.158.618-.263.99-.263.373 0 .78.089 1.064.228l-.157.917Zm1.838.832c-.387-.248-1.151-.62-1.378-.689l.334-.863c.284.144 1.329.774 1.486.933l-.442.619ZM1.931 5.226c.238-.197.614-.31.995-.31.568 0 .936.152 1.143.318.254.205.296.44.273.712-.188-.178-.568-.507-1.37-.51-.66-.005-1.175.258-1.244.483-.05-.306-.016-.51.203-.693Zm-.28 3.261c-.15-.089-.303-.421-.342-.564.13-.22.403-.43.534-.453-.154-.012-.403 0-.614.035a.923.923 0 0 1-.058-.55l.238.008-.13-.317c.165-.14.79-.457 1.143-.468.035.158.035.294.024.352-.012.058-.039.128-.108.162-.073.039-.307.159-.307.159.154-.012.46-.004.568.008.104.011.154.034.154.139 0 .104-.031.213-.088.294-.058.085-.235.07-.327.081a.536.536 0 0 1 .061.26c0 .104-.034.154-.13.2-.092.047-.211.105-.33.19-.085.058-.254.313-.288.464Zm.265 1.904c-.03-.248.142-.41.307-.492.004-.004.011-.004.015-.008 0 0 .004-.003.008-.003l-.088-1.54s.433-.31.553-.34c.119-.035.168-.128.168-.244.192.131.476.418.63.634.142.201.227.422.238.67.012.247.015.54-.034.846.096.082.188.151.2.283.01.132-.035.178-.082.282-.141-.08-.53-.27-.837-.259a1.792 1.792 0 0 0-.64.132c-.235.1-.173.367.191.46.039.008.097.024.13.027l-.01.077a1.913 1.913 0 0 1-.158-.03c-.369-.082-.564-.263-.591-.495Zm3.7 13.93c-.026.703-.03 1.655-.51 2.885-1.643-2.096-2.5-5.075-2.5-8.382 0-2.047.297-3.95.892-5.594 0 .03.003.062.003.097l.008.189c.03.797.07 1.598.088 1.683.035.143 1.282 3.907 1.444 4.472.261.917.564 3.118.58 4.626-.004.012-.004.015-.004.023Zm-1.205-9.277c-.03-.05-.111-1.458-.184-2.897l-.015-.286a676.967 676.967 0 0 1-.143-2.824l.308-.225v-.058c-.227-.011-.484-.093-.569-.224L3.724 6.78c-.307-.023-.622-.12-.741-.236-.15-.147-.261-.329-.096-.646.154.105.603.236.99.236.085 0 .258.186.354.22.111.043.303.148.391.19.081.035.131.225.154.294.023.07 2.868 7.408 2.914 7.493.046.082.211 1.316.222 1.408.012.093.438 1.08.52 1.176-.377-.011-1 .206-1.506.697-.495.483-.933 1.543-1.033 2.03-.034-.262-1.424-4.49-1.482-4.599Zm1.962 5.35c.196-1.075.503-1.683 1.229-2.348.368-.34 1.125-.77 2.207-.48l.872 1.637c-.469-.09-1.087-.008-1.498.305-.775.592-1.036 1.393-1.167 2.557-.123 1.126-.399 2.104-.813 2.805-.266.453-1.018 1.362-1.28 1.706.285-.565.504-1.923.489-2.983-.012-.68-.22-2.193-.039-3.199Zm3.118-4.696.004.015-.957-.653c.012-.22-.007-.279-.023-.469a3.31 3.31 0 0 0-.023-.185l-.007-.078c0-.007-.004-.015-.004-.019l1.037.6s-.085.178-.093.379c0 .181.05.36.066.41Zm1.21 4.05.986 2.004c.088.213.38.286.572.274-.926.302-3.264 1.405-4.154 2.267.215-.476.491-1.833.572-2.286.1-.584.196-1.431.89-2.004.346-.286.906-.32 1.133-.255Zm-.639 4.859c-.894.762-2.322 2.112-3.301 3.957a4.564 4.564 0 0 1-.66-.363c.03-.047.648-1.091 1.581-2.275 1.382-1.756 3.94-3.265 6.178-3.725-1.517.777-2.373 1.191-3.798 2.406ZM16.99 13.52l1.167-2.22c.295.475.564 1.04.79 1.586l-1.815.773c-.023-.038-.035-.046-.05-.066-.023-.019-.058-.054-.092-.073Zm.59 7.11c-.157-.282-.283-.5-.452-.936l-.273-.503-.073-.132-.276-.51c-.088-.167-.146-.402.011-.65.162-.248.5-.561.73-.7l.111 1.176s.791 1.49 1.137 2.259c-.327-.012-.634-.004-.914-.004Zm2.216.116-.442-.073-1.481-2.438-.116-1.373s.135-.224.189-.406c.046-.159.088-.418.088-.418l1.512-1.257c.308 1.284.354 2.565.354 4.043a18.4 18.4 0 0 1-.104 1.922Zm1.878-8.328c.007.011-.016.034-.016.034l-3.716 2.843c-.062-.46-.215-.87-.453-1.175l4.15-1.698c0-.005.03-.016.035-.005Zm-2.638-4.05c.007.007 0 .023 0 .023l-2.56 4.735a9.566 9.566 0 0 0-1.118-.856l3.651-3.895s.02-.015.027-.008Zm-4.357-.213a6.55 6.55 0 0 1 2.21 1.578l-2.045 2.255c-.1-.07-.112-.07-.223-.123-.085-.043-.246-.097-.246-.097l-.492-3.915c.362.104.461.155.796.302Zm-1.675-2.562s0-.019.016-.019c.015 0 .02.02.02.02l.744 6.03c-.188-.085-.948-.189-1.29-.127l.51-5.904Zm-4.764 2.4c.833-.368 2.104-.55 3.01-.52.396.016.626.032.994.078l-.357 4.043s-.122.027-.234.07c-.057.023-.196.092-.196.092L7.79 8.209c.004.004.15-.097.45-.217h-.001Zm-.553.866c.015-.012.027.004.027.004l3.16 3.218c-.3.166-.618.577-.749.948L7.682 8.886s-.011-.016.004-.027ZM9.86 13.91s-.042.209-.042.263c0 .062.015.27.015.27l-.023.016-1.466-.743c-.027-.089-.058-.174-.085-.251-.219-.615-1.106-2.813-1.754-4.472.046-.047.096-.12.234-.209.111-.07.142-.089.234-.132l2.887 5.258Zm-.338.994s-.084.178-.092.38c-.008.184.046.363.062.41l.004.015-.957-.654c.012-.22-.007-.279-.023-.468 0-.012-.011-.109-.023-.186l-.007-.077c0-.008-.004-.016-.004-.02l1.04.6ZM0 5.26c0-.715.326-.885.338-1.358-.02-.162-.073-.32-.13-.375.118-.027.356.12.521.078.208-.05.27-.12.35-.29.08-.167.188-.306.36-.318.162-.011.569.174.814.12.32-.07.45-.386.71-.386.258 0 .473.34.719.375.25.034.637-.26.887-.163.25.093.115.472.307.623.177.143.591-.023.71-.046-.035.166-.08.282-.069.456.011.178.296.704.307.894.012.236.023.433-.07.646-.022-.705-.867-1.563-2.733-1.598-1.017-.02-1.83.228-2.292.658l-.007.007a1.225 1.225 0 0 0-.38.697c-.004.038-.008.073-.004.112.011.503.35.84.595.951l-.096.066C.829 6.406 0 6.04 0 5.261ZM9.568 20c.341-.283.905-.317 1.128-.256l.987 2.005c.088.212.38.286.572.274-.925.302-3.263 1.404-4.154 2.267.215-.476.491-1.834.572-2.286.103-.58.2-1.432.894-2.004Zm-3.64 6.58c.283-.565.503-1.923.487-2.983-.012-.684-.223-2.2-.039-3.203.196-1.075.504-1.683 1.229-2.348.369-.34 1.125-.77 2.208-.48l.871 1.637c-.468-.09-1.086-.008-1.497.305-.776.592-1.037 1.393-1.167 2.557-.123 1.126-.4 2.104-.814 2.805-.265.456-1.017 1.365-1.279 1.71ZM3.765.182c.261 0 .925-.066 1.08-.182.084.19.05.383-.05.557.199.105.767.209 1.001.197.472-.023.956-.278 1.13-.522.072.256.022.634-.208.84-.46.41-1.548.634-1.866.87-.265.193-.365.306-.438.468-.107-.104-.165-.193-.342-.174-.203.023-.307.22-.51.209-.262-.016-.461-.445-.768-.457-.473-.02-.657.364-.86.376-.143.007-.334-.198-.411-.306-.142-.19-.223-.507-.207-.812C1.343.754 1.747.147 2.607.1c.391-.024.898.08 1.16.08Zm4.33 28.83a10.767 10.767 0 0 1-.49-.143c.303-.436 1.332-2.22 2.856-3.674 3.313-3.087 7.218-3.799 9.26-3.76-.035.282.004.08-.035.247-2.979.12-8.265 1.443-11.59 7.33ZM1.725 5.92c-.046-.306-.012-.51.204-.697.237-.197.613-.31.994-.31.568 0 .937.152 1.143.318.254.205.296.441.273.712-.188-.178-.568-.507-1.37-.51-.66.003-1.17.266-1.244.487Zm.215 2.104c-.085.058-.254.313-.288.464-.15-.089-.304-.421-.342-.564.13-.22.403-.43.534-.453-.154-.012-.403 0-.614.035a.923.923 0 0 1-.058-.55l.238.008-.13-.317c.165-.14.79-.457 1.143-.468.035.158.035.294.024.352-.012.058-.039.128-.108.162-.073.039-.307.159-.307.159.154-.012.46-.004.568.008.104.011.154.034.154.139 0 .104-.031.213-.088.294-.058.085-.235.07-.327.081a.536.536 0 0 1 .061.26c0 .104-.034.154-.13.2-.096.05-.215.105-.33.19Zm.722 2.89a1.872 1.872 0 0 1-.158-.031c-.365-.082-.56-.26-.587-.495-.03-.248.142-.41.307-.492.004-.004.011-.004.015-.007 0 0 .004-.004.008-.004l-.088-1.54s.433-.31.553-.34c.119-.035.168-.128.168-.244.192.131.476.418.63.634.142.201.227.422.238.67.012.247.015.541-.034.847.096.081.188.15.2.282.01.132-.035.178-.082.283-.141-.082-.53-.271-.837-.26a1.783 1.783 0 0 0-.64.132c-.235.1-.173.367.191.46.039.008.097.023.13.027l-.014.078Zm4.269 6.696c-.495.484-.933 1.543-1.033 2.031-.038-.26-1.428-4.488-1.49-4.592-.03-.05-.11-1.458-.184-2.897l-.015-.287a562.943 562.943 0 0 1-.142-2.824l.307-.224v-.058c-.227-.011-.484-.093-.568-.224L3.724 6.78c-.307-.023-.622-.12-.741-.236-.15-.147-.261-.329-.096-.646.154.105.603.236.99.236.085 0 .258.186.354.22.111.043.303.148.391.19.081.035.131.225.154.294.023.07 2.868 7.408 2.914 7.493.046.082.211 1.316.222 1.408.012.093.438 1.08.52 1.176-.373-.015-.995.202-1.502.693Zm-1.89 2.062c.262.917.565 3.118.58 4.626v.024c-.026.703-.03 1.655-.51 2.885-1.643-2.096-2.5-5.075-2.5-8.382 0-2.047.296-3.95.891-5.594 0 .03.004.062.004.097l.008.189c.03.797.069 1.598.088 1.683.03.143 1.279 3.907 1.44 4.472ZM19.009 8.375s.02-.015.027-.008c.007.008 0 .024 0 .024l-2.56 4.735a9.566 9.566 0 0 0-1.118-.856l3.651-3.895ZM11.46 11.76 7.793 8.213s.147-.101.446-.22c.833-.368 2.104-.55 3.01-.52.396.016.626.032.994.078l-.357 4.043s-.122.027-.234.07l-.192.096Zm1.029-.263.514-5.904s0-.019.016-.019c.015 0 .02.02.02.02l.744 6.03c-.188-.085-.952-.189-1.294-.127ZM7.682 8.886s-.011-.016.004-.027c.015-.012.027.004.027.004l3.16 3.218c-.3.166-.618.577-.749.948L7.682 8.886Zm6.688 2.878-.487-3.91c.36.104.464.154.795.3a6.55 6.55 0 0 1 2.21 1.579l-2.045 2.255c-.1-.07-.112-.07-.223-.123a3.427 3.427 0 0 0-.25-.1v-.002ZM6.746 8.78c.11-.07.142-.089.234-.131l2.883 5.26s-.042.21-.042.264c0 .062.015.27.015.27l-.023.016-1.467-.743c-.026-.089-.057-.174-.084-.251-.219-.615-1.106-2.813-1.754-4.472.046-.05.096-.124.238-.213Zm10.611 9.594s.791 1.49 1.137 2.259c-.323-.008-.634 0-.914 0-.158-.282-.284-.5-.453-.936l-.273-.503-.073-.132-.276-.51c-.088-.167-.146-.403.011-.65.162-.248.5-.561.73-.7l.111 1.172Zm-.226-4.716c-.023-.038-.035-.046-.05-.066a.442.442 0 0 0-.088-.073l1.167-2.22c.295.475.564 1.04.79 1.586l-1.82.773Zm-3.271 8.542c-1.517.777-2.373 1.191-3.798 2.406-.894.762-2.322 2.112-3.301 3.957a4.564 4.564 0 0 1-.66-.363c.03-.047.648-1.091 1.581-2.275 1.382-1.756 3.94-3.265 6.178-3.725Zm5.682-7.42c.307 1.284.353 2.565.353 4.043a18.456 18.456 0 0 1-.104 1.922l-.441-.073-1.482-2.438-.115-1.373s.134-.224.188-.406c.046-.159.088-.418.088-.418l1.513-1.257Zm-2.05-.665 4.15-1.698s.027-.012.035 0c.007.011-.016.034-.016.034l-3.716 2.843c-.062-.46-.215-.87-.453-1.18Z"/><path fill="#ECECEC" d="M17.108 14.828c-.043-.229-.622-.913-1.601-1.648-.764-.58-1.885-1.15-2.81-1.145-1.56.007-2.204 1.071-2.32 1.628-.072.337-.053.7.02.897-.25.213-.342.384-.392.623-.035.174 0 .422.161.577-.019-.229.139-.495.265-.67.142-.193.38-.27.592-.398l.034.426c-.204.116-.45.36-.468.49l.015.701.538-.32.103.212-.196 1.234.3-.054.553.224-.534.445v.178s.08-.109.269-.1c.188.007.671.223.671.223l-.019.105h-.937c-.034.123.077.217.146.27.123-.034.254-.096.323-.096.073 0 .234.043.376.058l-.173.228s-.088.066-.25.035c-.087-.02-.176.105-.176.205 0 .109.07.372.07.372.084.394.49.317.544.313.258-.023 1.103-.325 1.103-.325l-.81 1.13.353 1.207c.533-.221 2.13-.782 3.866-1.068-.188-.314-.219-.437-.454-.906l-.886-2.022.123-.302c.195.07.495-.07.69-.229.197-.158.427-.44.515-.615-.123-.07-.23-.054-.338.02-.107.07-.188.205-.338.14-.157-.07-.08-.245-.065-.403.02-.159-.184-.159-.326-.04-.142.125-.442.07-.637-.12-.196-.196-1.133-.97-1.471-1.163-.484-.279-1.136-.348-1.612-.263-.28.05-.48.174-.584.12l-.35-.538.058-.035c.123.054.242.155.4.1.16-.054.671-.17 1.132-.177.71-.012 1.57.247 1.947.406.019.456.944 1.037 1.363 1.09.353.047.568-.053.779-.173l-.902-.79.476-.603s.192.182.395.38l.104.1c.169.166.326.325.372.387.046-.086.012-.225-.007-.321Zm-5.437.916s.388-.22.757-.297c.54-.117 1.14.208 1.562.537l-.08.128-.607.143c-.12-.104-.342-.15-.584-.14-.18.009-.33.067-.376.086l-.015.008.119.193-.28.07c-.124-.155-.32-.353-.496-.403v-.325Zm-.921-1.392c-.158-.53.265-1.056.46-1.25l.3.689c-.227.12-.583.387-.76.56Zm2.799-.6c-.284-.193-1.221-.159-1.613-.07l-.284-.812c.211-.158.618-.263.99-.263.373 0 .78.089 1.064.228l-.157.917Zm1.838.832c-.387-.248-1.151-.62-1.378-.689l.334-.863c.284.144 1.329.774 1.486.933l-.442.619ZM1.931 5.226c.238-.197.614-.31.995-.31.568 0 .936.152 1.143.318.254.205.296.44.273.712-.188-.178-.568-.507-1.37-.51-.66-.005-1.175.258-1.244.483-.05-.306-.016-.51.203-.693Zm-.28 3.261c-.15-.089-.303-.421-.342-.564.13-.22.403-.43.534-.453-.154-.012-.403 0-.614.035a.923.923 0 0 1-.058-.55l.238.008-.13-.317c.165-.14.79-.457 1.143-.468.035.158.035.294.024.352-.012.058-.039.128-.108.162-.073.039-.307.159-.307.159.154-.012.46-.004.568.008.104.011.154.034.154.139 0 .104-.031.213-.088.294-.058.085-.235.07-.327.081a.536.536 0 0 1 .061.26c0 .104-.034.154-.13.2-.092.047-.211.105-.33.19-.085.058-.254.313-.288.464Zm.265 1.904c-.03-.248.142-.41.307-.492.004-.004.011-.004.015-.008 0 0 .004-.003.008-.003l-.088-1.54s.433-.31.553-.34c.119-.035.168-.128.168-.244.192.131.476.418.63.634.142.201.227.422.238.67.012.247.015.54-.034.846.096.082.188.151.2.283.01.132-.035.178-.082.282-.141-.08-.53-.27-.837-.259a1.792 1.792 0 0 0-.64.132c-.235.1-.173.367.191.46.039.008.097.024.13.027l-.01.077a1.913 1.913 0 0 1-.158-.03c-.369-.082-.564-.263-.591-.495Zm3.7 13.93c-.026.703-.03 1.655-.51 2.885-1.643-2.096-2.5-5.075-2.5-8.382 0-2.047.297-3.95.892-5.594 0 .03.003.062.003.097l.008.189c.03.797.07 1.598.088 1.683.035.143 1.282 3.907 1.444 4.472.261.917.564 3.118.58 4.626-.004.012-.004.015-.004.023Zm-1.205-9.277c-.03-.05-.111-1.458-.184-2.897l-.015-.286a675.024 675.024 0 0 1-.143-2.824l.308-.225v-.058c-.227-.011-.484-.093-.569-.224L3.724 6.78c-.307-.023-.622-.12-.741-.236-.15-.147-.261-.329-.096-.646.154.105.603.236.99.236.085 0 .258.186.354.22.111.043.303.148.391.19.081.035.131.225.154.294.023.07 2.868 7.408 2.914 7.493.046.082.211 1.316.222 1.408.012.093.438 1.08.52 1.176-.377-.011-1 .206-1.506.697-.495.483-.933 1.543-1.033 2.03-.034-.262-1.424-4.49-1.482-4.599Zm1.962 5.35c.196-1.075.503-1.683 1.229-2.348.368-.34 1.125-.77 2.207-.48l.872 1.637c-.469-.09-1.087-.008-1.498.305-.775.592-1.036 1.393-1.167 2.557-.123 1.126-.399 2.104-.813 2.805-.266.453-1.018 1.362-1.28 1.706.285-.565.504-1.923.489-2.983-.012-.68-.22-2.193-.039-3.199Zm3.118-4.696.004.015-.957-.653c.012-.22-.007-.279-.023-.469a3.31 3.31 0 0 0-.023-.185l-.007-.078c0-.007-.004-.015-.004-.019l1.037.6s-.085.178-.093.379c0 .181.05.36.066.41Zm1.21 4.05.986 2.004c.088.213.38.286.572.274-.926.302-3.264 1.405-4.154 2.267.215-.476.491-1.833.572-2.286.1-.584.196-1.431.89-2.004.346-.286.906-.32 1.133-.255Zm-.639 4.859c-.894.762-2.322 2.112-3.301 3.957a4.565 4.565 0 0 1-.66-.363c.03-.047.648-1.091 1.581-2.275 1.382-1.756 3.94-3.265 6.178-3.725-1.517.777-2.373 1.191-3.798 2.406ZM16.99 13.52l1.167-2.22c.295.475.564 1.04.79 1.586l-1.815.773c-.023-.038-.035-.046-.05-.066-.023-.019-.058-.054-.092-.073Zm.59 7.11c-.157-.282-.283-.5-.452-.936l-.273-.503-.073-.132-.276-.51c-.088-.167-.146-.402.011-.65.162-.248.5-.561.73-.7l.111 1.176s.791 1.49 1.137 2.259c-.327-.012-.634-.004-.914-.004Zm2.216.116-.442-.073-1.481-2.438-.116-1.373s.135-.224.189-.406c.046-.159.088-.418.088-.418l1.512-1.257c.308 1.284.354 2.565.354 4.043a18.4 18.4 0 0 1-.104 1.922Zm1.878-8.328c.007.011-.016.034-.016.034l-3.716 2.843c-.062-.46-.215-.87-.453-1.175l4.15-1.698c0-.005.03-.016.035-.005Zm-2.638-4.05c.007.007 0 .023 0 .023l-2.56 4.735a9.566 9.566 0 0 0-1.118-.856l3.651-3.895s.02-.015.027-.008Zm-4.357-.213a6.55 6.55 0 0 1 2.21 1.578l-2.045 2.255c-.1-.07-.112-.07-.223-.123-.085-.043-.246-.097-.246-.097l-.492-3.915c.362.104.461.155.796.302Zm-1.675-2.562s0-.019.016-.019c.015 0 .02.02.02.02l.744 6.03c-.188-.085-.948-.189-1.29-.127l.51-5.904Zm-4.764 2.4c.833-.368 2.104-.55 3.01-.52.396.016.626.032.994.078l-.357 4.043s-.122.027-.234.07c-.057.023-.196.092-.196.092L7.79 8.209c.004.004.15-.097.45-.217h-.001Zm-.553.866c.015-.012.027.004.027.004l3.16 3.218c-.3.166-.618.577-.749.948L7.682 8.886s-.011-.016.004-.027ZM9.86 13.91s-.042.209-.042.263c0 .062.015.27.015.27l-.023.016-1.466-.743c-.027-.089-.058-.174-.085-.251-.219-.615-1.106-2.813-1.754-4.472.046-.047.096-.12.234-.209.111-.07.142-.089.234-.132l2.887 5.258Zm-.338.994s-.084.178-.092.38c-.008.184.046.363.062.41l.004.015-.957-.654c.012-.22-.007-.279-.023-.468 0-.012-.011-.109-.023-.186l-.007-.077c0-.008-.004-.016-.004-.02l1.04.6ZM0 5.26c0-.715.326-.885.338-1.358-.02-.162-.073-.32-.13-.375.118-.027.356.12.521.078.208-.05.27-.12.35-.29.08-.167.188-.306.36-.318.162-.011.569.174.814.12.32-.07.45-.386.71-.386.258 0 .473.34.719.375.25.034.637-.26.887-.163.25.093.115.472.307.623.177.143.591-.023.71-.046-.035.166-.08.282-.069.456.011.178.296.704.307.894.012.236.023.433-.07.646-.022-.705-.867-1.563-2.733-1.598-1.017-.02-1.83.228-2.292.658l-.007.007a1.225 1.225 0 0 0-.38.697c-.004.038-.008.073-.004.112.011.503.35.84.595.951l-.096.066C.829 6.406 0 6.04 0 5.261ZM9.568 20c.341-.283.905-.317 1.128-.256l.987 2.005c.088.212.38.286.572.274-.925.302-3.263 1.404-4.154 2.267.215-.476.491-1.834.572-2.286.103-.58.2-1.432.894-2.004Zm-3.64 6.58c.283-.565.503-1.923.487-2.983-.012-.684-.223-2.2-.039-3.203.196-1.075.504-1.683 1.229-2.348.369-.34 1.125-.77 2.208-.48l.871 1.637c-.468-.09-1.086-.008-1.497.305-.776.592-1.037 1.393-1.167 2.557-.123 1.126-.4 2.104-.814 2.805-.265.456-1.017 1.365-1.279 1.71ZM3.765.182c.261 0 .925-.066 1.08-.182.084.19.05.383-.05.557.199.105.767.209 1.001.197.472-.023.956-.278 1.13-.522.072.256.022.634-.208.84-.46.41-1.548.634-1.866.87-.265.193-.365.306-.438.468-.107-.104-.165-.193-.342-.174-.203.023-.307.22-.51.209-.262-.016-.461-.445-.768-.457-.473-.02-.657.364-.86.376-.143.007-.334-.198-.411-.306-.142-.19-.223-.507-.207-.812C1.343.754 1.747.147 2.607.1c.391-.024.898.08 1.16.08Zm4.33 28.83a10.767 10.767 0 0 1-.49-.143c.303-.436 1.332-2.22 2.856-3.674 3.313-3.087 7.218-3.799 9.26-3.76-.035.282.004.08-.035.247-2.979.12-8.265 1.443-11.59 7.33ZM1.725 5.92c-.046-.306-.012-.51.204-.697.237-.197.613-.31.994-.31.568 0 .937.152 1.143.318.254.205.296.441.273.712-.188-.178-.568-.507-1.37-.51-.66.003-1.17.266-1.244.487Zm.215 2.104c-.085.058-.254.313-.288.464-.15-.089-.304-.421-.342-.564.13-.22.403-.43.534-.453-.154-.012-.403 0-.614.035a.923.923 0 0 1-.058-.55l.238.008-.13-.317c.165-.14.79-.457 1.143-.468.035.158.035.294.024.352-.012.058-.039.128-.108.162-.073.039-.307.159-.307.159.154-.012.46-.004.568.008.104.011.154.034.154.139 0 .104-.031.213-.088.294-.058.085-.235.07-.327.081a.536.536 0 0 1 .061.26c0 .104-.034.154-.13.2-.096.05-.215.105-.33.19Zm.722 2.89a1.873 1.873 0 0 1-.158-.031c-.365-.082-.56-.26-.587-.495-.03-.248.142-.41.307-.492.004-.004.011-.004.015-.007 0 0 .004-.004.008-.004l-.088-1.54s.433-.31.553-.34c.119-.035.168-.128.168-.244.192.131.476.418.63.634.142.201.227.422.238.67.012.247.015.541-.034.847.096.081.188.15.2.282.01.132-.035.178-.082.283-.141-.082-.53-.271-.837-.26a1.783 1.783 0 0 0-.64.132c-.235.1-.173.367.191.46.039.008.097.023.13.027l-.014.078Zm4.269 6.696c-.495.484-.933 1.543-1.033 2.031-.038-.26-1.428-4.488-1.49-4.592-.03-.05-.11-1.458-.184-2.897l-.015-.287a564.916 564.916 0 0 1-.142-2.824l.307-.224v-.058c-.227-.011-.484-.093-.568-.224L3.724 6.78c-.307-.023-.622-.12-.741-.236-.15-.147-.261-.329-.096-.646.154.105.603.236.99.236.085 0 .258.186.354.22.111.043.303.148.391.19.081.035.131.225.154.294.023.07 2.868 7.408 2.914 7.493.046.082.211 1.316.222 1.408.012.093.438 1.08.52 1.176-.373-.015-.995.202-1.502.693Zm-1.89 2.062c.262.917.565 3.118.58 4.626v.024c-.026.703-.03 1.655-.51 2.885-1.643-2.096-2.5-5.075-2.5-8.382 0-2.047.296-3.95.891-5.594 0 .03.004.062.004.097l.008.189c.03.797.069 1.598.088 1.683.03.143 1.279 3.907 1.44 4.472ZM19.009 8.375s.02-.015.027-.008c.007.008 0 .024 0 .024l-2.56 4.735a9.566 9.566 0 0 0-1.118-.856l3.651-3.895ZM11.46 11.76 7.793 8.213s.146-.101.446-.22c.833-.368 2.104-.55 3.01-.52.396.016.626.032.994.078l-.357 4.043s-.122.027-.234.07l-.192.096Zm1.029-.263.514-5.904s0-.019.016-.019c.015 0 .02.02.02.02l.744 6.03c-.188-.085-.952-.189-1.294-.127ZM7.682 8.886s-.011-.016.004-.027c.015-.012.027.004.027.004l3.16 3.218c-.3.166-.618.577-.749.948L7.682 8.886Zm6.688 2.878-.487-3.91c.36.104.464.154.795.3a6.55 6.55 0 0 1 2.21 1.579l-2.045 2.255c-.1-.07-.112-.07-.223-.123a3.427 3.427 0 0 0-.25-.1v-.002ZM6.746 8.78c.11-.07.142-.089.234-.131l2.883 5.26s-.042.21-.042.264c0 .062.015.27.015.27l-.023.016-1.467-.743c-.026-.089-.057-.174-.084-.251-.219-.615-1.106-2.813-1.754-4.472.046-.05.096-.124.238-.213Zm10.611 9.594s.791 1.49 1.137 2.259c-.323-.008-.634 0-.914 0-.158-.282-.284-.5-.453-.936l-.273-.503-.073-.132-.276-.51c-.088-.167-.146-.403.011-.65.162-.248.5-.561.73-.7l.111 1.172Zm-.226-4.716c-.023-.038-.035-.046-.05-.066a.442.442 0 0 0-.088-.073l1.167-2.22c.295.475.564 1.04.79 1.586l-1.82.773Zm-3.271 8.542c-1.517.777-2.373 1.191-3.798 2.406-.894.762-2.322 2.112-3.301 3.957a4.565 4.565 0 0 1-.66-.363c.03-.047.648-1.091 1.581-2.275 1.382-1.756 3.94-3.265 6.178-3.725Zm5.682-7.42c.307 1.284.353 2.565.353 4.043a18.428 18.428 0 0 1-.104 1.922l-.441-.073-1.482-2.438-.115-1.373s.134-.224.188-.406c.046-.159.088-.418.088-.418l1.513-1.257Zm-2.05-.665 4.15-1.698s.027-.012.035 0c.007.011-.016.034-.016.034l-3.716 2.843c-.062-.46-.215-.87-.453-1.18Z"/></svg>