<svg width="40" height="40" viewBox="0 0 40 40" fill="none" xmlns="http://www.w3.org/2000/svg">
<g clip-path="url(#clip0_13262_44447)">
<g clip-path="url(#clip1_13262_44447)">
<path d="M39.6894 16.4485L37.7972 11.3329C37.7222 11.132 37.555 10.9797 37.3503 10.9216L35.9675 10.5371L34.5003 7.09778C34.4956 7.08679 34.4831 7.07894 34.4769 7.06795C34.469 7.05068 34.469 7.03342 34.4581 7.01772C34.4284 6.96749 34.3862 6.93452 34.3472 6.89528C34.3284 6.87644 34.3159 6.8529 34.2941 6.8372C34.2159 6.77755 34.1284 6.7336 34.0347 6.71319C34.03 6.71162 34.0269 6.70848 34.0237 6.70848L24.6829 4.75416L22.8657 3.5439C22.861 3.54076 22.8517 3.53919 22.847 3.53605C22.8423 3.53291 22.8407 3.5282 22.8329 3.52506C22.8173 3.51721 22.8001 3.51721 22.7845 3.50779C22.7454 3.48896 22.7111 3.46541 22.6689 3.45599L13.0925 0.843956C12.8096 0.768608 12.5097 0.884767 12.3534 1.13436L0.579779 19.9446C0.571967 19.9603 0.573529 19.9776 0.564154 19.9933C0.553216 20.0153 0.532904 20.0325 0.52353 20.0577C0.501655 20.111 0.501655 20.166 0.495405 20.2225C0.493842 20.2413 0.478217 20.257 0.478217 20.2759L0.271969 25.2552C0.261032 25.5472 0.436033 25.8109 0.706329 25.9113L11.9311 30.0633C12.0061 30.09 12.0827 30.1057 12.1593 30.1057H12.1608C12.2139 30.1057 12.2686 30.0994 12.3218 30.0837C12.3577 30.0743 12.3874 30.0507 12.4218 30.035C12.453 30.0209 12.4827 30.0099 12.5124 29.9911C12.6014 29.9346 12.6796 29.8639 12.7327 29.7745L15.878 24.4953L25.1372 27.5437C25.2028 27.5657 25.2669 27.5736 25.3325 27.5751C25.3356 27.5751 25.3388 27.5767 25.3435 27.5767H25.345C25.3685 27.5767 25.3935 27.5751 25.4169 27.572C25.531 27.561 25.6263 27.5139 25.7138 27.4543C25.7216 27.4495 25.7341 27.4511 25.7419 27.4448L39.4575 17.2181C39.6981 17.0407 39.7919 16.7283 39.6888 16.4489L39.6894 16.4485ZM31.969 19.3211L30.4627 17.8126L31.594 16.9288L31.969 19.3211ZM12.4174 27.7033L11.5502 24.2436L22.719 5.05035L24.0377 5.92784C24.0409 5.92941 24.044 5.93255 24.0471 5.93412L25.0065 6.57298L23.1299 9.72185C23.1283 9.72342 23.1268 9.72656 23.1268 9.72813L12.4174 27.7033ZM24.0422 10.8018L27.7187 11.3339L28.6297 16.8514L21.5205 15.0352L24.0422 10.8018ZM28.1562 10.0452L24.7843 9.55704L26.4765 6.71739C26.5156 6.65147 26.5343 6.5824 26.5499 6.51333L32.0891 7.66865L28.1562 10.0452ZM20.8046 16.2329L27.4594 17.933L24.5406 19.2751L19.6686 18.1402L20.8046 16.2329ZM25.325 20.3897L29.3109 18.5547L31.9265 21.1698L25.8873 25.6734L25.325 20.3897ZM29.9282 16.5328L29.0266 11.0797L33.5782 8.32794L35.2923 12.3449L29.9282 16.5328ZM13.2202 2.26548L21.4842 4.51806L10.5498 23.3078L2.13897 19.9737L13.2202 2.26548ZM1.77177 21.2703L10.2734 24.6389L11.2077 28.3654L1.62493 24.821L1.77177 21.2703ZM18.9498 19.3473L23.9998 20.5262L24.5779 25.9512L16.5827 23.3187L18.9498 19.3473ZM33.4326 20.0459L32.7982 15.988L36.517 13.0839C36.7576 12.8987 36.8404 12.5722 36.7201 12.2912L36.6435 12.1107L36.667 12.1201L38.2654 16.4416L33.4326 20.0459Z" fill="black"/>
<path d="M9 14.5L7.5 16.5V32.5L9 34L11.5 35H14V37L16.5 39L19 39.5H21.5L23.5 39L26 37V34.5L30 33.5L31.5 31.5V23L29 21L26.5 20.5H23.5L21.5 21L19.5 22.5V16.5L18 14.5L14 13.5H12.5L9 14.5Z" fill="white"/>
</g>
<line x1="9.43478" y1="18.8261" x2="9.43478" y2="21.4348" stroke="#16CA92" stroke-width="0.869565"/>
<line x1="9.43478" y1="24.0435" x2="9.43478" y2="26.6522" stroke="#16CA92" stroke-width="0.869565"/>
<line x1="21.6087" y1="25.7826" x2="21.6087" y2="28.3913" stroke="#16CA92" stroke-width="0.869565"/>
<line x1="9.43478" y1="29.2609" x2="9.43478" y2="31.8696" stroke="#16CA92" stroke-width="0.869565"/>
<line x1="16.3913" y1="33.6087" x2="16.3913" y2="36.2174" stroke="#16CA92" stroke-width="0.869565"/>
<line x1="12.0434" y1="24.9131" x2="12.0434" y2="27.5218" stroke="#16CA92" stroke-width="0.869565"/>
<line x1="12.0434" y1="19.6956" x2="12.0434" y2="22.3043" stroke="#16CA92" stroke-width="0.869565"/>
<line x1="24.2174" y1="26.6522" x2="24.2174" y2="29.2609" stroke="#16CA92" stroke-width="0.869565"/>
<line x1="12.0434" y1="30.1304" x2="12.0434" y2="32.7391" stroke="#16CA92" stroke-width="0.869565"/>
<line x1="14.6522" y1="24.9131" x2="14.6522" y2="27.5218" stroke="#16CA92" stroke-width="0.869565"/>
<line x1="19" y1="34.4783" x2="19" y2="37.087" stroke="#16CA92" stroke-width="0.869565"/>
<line x1="14.6522" y1="19.6956" x2="14.6522" y2="22.3043" stroke="#16CA92" stroke-width="0.869565"/>
<line x1="17.2608" y1="24.0435" x2="17.2608" y2="26.6522" stroke="#16CA92" stroke-width="0.869565"/>
<line x1="26.8261" y1="26.6522" x2="26.8261" y2="29.2609" stroke="#16CA92" stroke-width="0.869565"/>
<line x1="21.6087" y1="34.4783" x2="21.6087" y2="37.087" stroke="#16CA92" stroke-width="0.869565"/>
<line x1="17.2608" y1="18.8261" x2="17.2608" y2="21.4348" stroke="#16CA92" stroke-width="0.869565"/>
<line x1="29.4348" y1="25.7826" x2="29.4348" y2="28.3913" stroke="#16CA92" stroke-width="0.869565"/>
<line x1="24.2174" y1="33.6087" x2="24.2174" y2="36.2174" stroke="#16CA92" stroke-width="0.869565"/>
<path fill-rule="evenodd" clip-rule="evenodd" d="M18.7294 27.5936C18.7978 27.4734 18.8433 27.3426 18.8661 27.2066V26.8818C18.8564 26.8238 18.8422 26.7658 18.8227 26.7099L18.8661 26.6772V26.5538C17.452 27.6421 15.2816 28.0355 13.5157 28.0355C11.75 28.0355 9.58055 27.639 8.16529 26.5444V26.9989C8.16529 27.7687 8.95755 28.3308 9.58591 28.6461C10.8936 29.2957 12.6226 29.5362 14.1831 29.4423H14.1853C14.5738 29.0416 15.034 28.7115 15.543 28.4679C16.536 27.9902 17.6093 27.6938 18.7119 27.5905L18.7294 27.5936ZM31.9871 31.0208C32.0023 31.1695 32.0023 31.3182 31.9871 31.4659V31.5534C31.8395 32.4962 31.0743 33.2987 29.9403 33.8797C28.881 34.3838 27.7328 34.6854 26.5563 34.7708V36.1871C26.5606 36.262 26.5606 36.3369 26.5563 36.4117C26.5563 37.4737 25.7706 38.4038 24.4965 39.0471L24.4975 39.046C23.1073 39.6967 21.5815 40.0225 20.0403 39.9983C18.4928 40.0267 16.9603 39.703 15.5659 39.0523C14.396 38.4607 13.6363 37.6255 13.5234 36.6711V35.6967C11.9802 35.7231 10.4509 35.3993 9.05985 34.7508C7.78575 34.1202 7 33.1785 7 32.1165V16.5756C7 15.52 7.78573 14.5909 9.05985 13.9477C10.4544 13.297 11.9868 12.9732 13.5334 13.0017C15.0799 12.9733 16.6123 13.297 18.007 13.9477C19.1173 14.5097 20.1938 15.481 20.0538 16.8066V19.0813C20.069 19.2289 20.069 19.3776 20.0538 19.5263V21.319C20.3447 21.0881 20.6594 20.8877 20.9937 20.7211C22.3882 20.0715 23.9206 19.7478 25.4673 19.7762C27.0138 19.7478 28.5462 20.0715 29.9409 20.7211C31.0511 21.2832 32.1277 22.2545 31.9877 23.5801V25.8548C32.0029 26.0034 32.0029 26.1521 31.9877 26.3008V28.4352C32.0029 28.5829 32.0029 28.7316 31.9877 28.8802L31.9871 31.0208ZM26.5564 33.6203C27.5461 33.5412 28.5109 33.2829 29.4019 32.86C29.9706 32.571 30.7064 32.0606 30.8095 31.4047V31.0799C30.7997 31.0209 30.7856 30.9639 30.7661 30.907L30.8095 30.8743V30.7541C29.6688 31.6315 28.0312 32.0533 26.5629 32.1872V33.6066L26.5564 33.6203ZM26.5564 31.044C27.5461 30.9649 28.5109 30.7066 29.4019 30.2837C29.9706 29.9948 30.7064 29.4844 30.8095 28.8284V28.5026C30.7997 28.4446 30.7856 28.3866 30.7661 28.3307L30.8095 28.298V28.1714C29.5451 29.1459 27.6861 29.5624 26.0408 29.6404H26.0419C26.3675 30.037 26.5553 30.5241 26.5769 31.0303L26.5564 31.044ZM30.803 26.2448V25.92C30.7932 25.862 30.7791 25.804 30.7596 25.7482L30.803 25.7155V25.4423C29.3889 26.5306 27.2184 26.924 25.4525 26.924C23.6867 26.924 21.5174 26.5275 20.1021 25.4329V26.0403C20.1021 26.7289 20.7337 27.252 21.323 27.5799H21.3241C22.4268 27.6833 23.5001 27.9807 24.493 28.4573C24.8002 28.4837 25.1149 28.4963 25.4394 28.4963C26.8068 28.5375 28.1634 28.2643 29.4018 27.7002C29.9705 27.4112 30.7063 26.9008 30.8094 26.2449L30.803 26.2448ZM30.803 23.5093V23.3564C30.803 22.7584 30.2614 22.1869 29.3823 21.7324C28.156 21.166 26.8103 20.8877 25.4536 20.9161C24.1013 20.8929 22.7621 21.1756 21.5412 21.7419C19.6485 22.7005 19.6485 24.0165 21.5412 24.972V24.9709C22.7676 25.5373 24.1133 25.8156 25.47 25.7872C26.8287 25.8167 28.1745 25.5372 29.4018 24.9709C30.2038 24.5649 30.7388 24.0514 30.8094 23.5093L30.803 23.5093ZM13.5571 30.6275C13.5212 30.7846 13.5028 30.9449 13.5028 31.1052V32.1481C12.156 32.1745 10.8222 31.8961 9.60458 31.3361C8.97622 31.0113 8.16985 30.4588 8.18396 29.6889L8.18288 29.1395C9.57093 30.2215 11.6967 30.6306 13.5571 30.6275ZM13.5039 33.2987C11.6752 33.2987 9.56204 32.8758 8.18402 31.8075V32.0807C8.18402 32.8505 8.97627 33.4126 9.60464 33.7279C10.8212 34.2889 12.1561 34.5684 13.5028 34.543V33.3018L13.5039 33.2987ZM25.3896 36.4762V36.2653C25.3799 36.2073 25.3658 36.1493 25.3462 36.0934L25.3896 36.0607V35.9341C25.1205 36.1387 24.8318 36.318 24.5269 36.4698C23.129 37.1237 21.5913 37.4485 20.0405 37.4189C18.4929 37.4474 16.9605 37.1237 15.5661 36.473C15.2567 36.319 14.9637 36.1366 14.6903 35.9278V36.395C14.6903 37.1648 15.4825 37.7269 16.1109 38.0422C17.3383 38.6043 18.684 38.8806 20.0408 38.8479C21.3963 38.8722 22.7387 38.5885 23.9629 38.0201C24.5608 37.7174 25.3433 37.1691 25.3802 36.4636L25.3896 36.4762ZM25.3896 33.9937V33.6689C25.3799 33.6109 25.3658 33.5529 25.3462 33.4971L25.3896 33.4644V33.1912C25.1205 33.3969 24.8318 33.5762 24.5269 33.728C23.1301 34.3861 21.5924 34.7151 20.0405 34.6898C18.4929 34.7182 16.9605 34.3945 15.5661 33.7438C15.2567 33.5888 14.9637 33.4053 14.6903 33.1944V33.7955C14.6903 34.5653 15.4825 35.1274 16.1109 35.4427C17.3372 36.0111 18.683 36.2927 20.0408 36.2653C21.3952 36.2948 22.7376 36.0164 23.9629 35.4533C24.5315 35.1643 25.2673 34.6539 25.3704 33.998L25.3896 33.9937ZM25.3896 31.2582C25.3061 31.8013 24.7841 32.3138 23.9821 32.7198V32.7209C22.7514 33.2882 21.4013 33.5677 20.0402 33.536C18.6826 33.5655 17.3368 33.2861 16.1103 32.7209C15.2345 32.2758 14.6897 31.7043 14.6897 31.0968C14.6897 30.4894 15.2313 29.9273 16.1103 29.4728V29.4718C17.3389 28.9129 18.6846 28.6397 20.0402 28.6756C21.3968 28.6461 22.7426 28.9255 23.969 29.4908C24.8448 29.9358 25.3896 30.5073 25.3896 31.1148V31.2677L25.3896 31.2582ZM8.20346 24.4353V23.984C9.61755 25.0817 11.7947 25.4751 13.5539 25.4751C15.3131 25.4751 17.476 25.0817 18.9043 23.9934V24.1136L18.8609 24.1463H18.8598C18.8793 24.2022 18.8934 24.2602 18.9032 24.3182V24.643C18.799 25.2926 18.0643 25.8125 17.4956 26.0983C16.2693 26.6646 14.9235 26.9441 13.5669 26.9145C12.1972 26.9451 10.8396 26.6604 9.60447 26.0857C8.9761 25.7609 8.16973 25.2083 8.18385 24.4384L8.20346 24.4353ZM8.20346 21.859C8.20346 22.6289 8.99572 23.1909 9.62408 23.5062C10.8504 24.0715 12.1962 24.3509 13.5529 24.3214C14.9105 24.3509 16.2563 24.0715 17.4827 23.5062C18.0514 23.2173 18.7872 22.7069 18.8903 22.051V21.7251C18.8806 21.6671 18.8654 21.6091 18.8469 21.5532L18.8903 21.5205V21.394C17.4762 22.4823 15.3058 22.8756 13.5399 22.8756C11.774 22.8756 9.60475 22.4791 8.18949 21.3845V21.8422L8.20346 21.859ZM18.9032 19.4673V19.1752C18.8934 19.1161 18.8793 19.0592 18.8598 19.0033L18.9032 18.9706V18.6975C17.4555 19.7731 15.2817 20.1496 13.5333 20.1496C11.7849 20.1496 9.59816 19.7531 8.18291 18.6585V19.2659C8.18291 20.0357 8.97516 20.5978 9.60352 20.9131H9.60461C10.8299 21.4836 12.1745 21.7673 13.5334 21.742C14.8889 21.7715 16.2335 21.4931 17.4588 20.93C18.0275 20.641 18.7633 20.1306 18.8664 19.4747L18.9032 19.4673ZM18.9032 16.7317V16.5756C18.9032 15.9777 18.3616 15.4061 17.4826 14.9516C16.2486 14.3885 14.8953 14.1143 13.5332 14.1523C12.1756 14.1228 10.8309 14.4022 9.60447 14.9674C8.72867 15.4125 8.18277 15.984 8.18277 16.5756C8.18277 17.1672 8.72431 17.7451 9.60339 18.1996L9.60447 18.2007C10.8308 18.7649 12.1765 19.0433 13.5332 19.0127C14.8887 19.0422 16.2334 18.7638 17.4587 18.2007C18.2607 17.7905 18.7859 17.278 18.8695 16.7349L18.9032 16.7317Z" fill="#171717"/>
</g>
<defs>
<clipPath id="clip0_13262_44447">
<rect width="40" height="40" fill="white"/>
</clipPath>
<clipPath id="clip1_13262_44447">
<rect width="40" height="31" fill="white"/>
</clipPath>
</defs>
</svg>
