<svg xmlns="http://www.w3.org/2000/svg" width="1em" height="1em" viewBox="0 0 24 24" fill="none" data-testid="icon" class="ni-1cm3je ejd5s6u1"><path fill="#fff" fill-rule="evenodd" d="M15.131 14.923l2.04 3.94-2.473-.209-1.442 2.294-3.559-5.733" clip-rule="evenodd"></path><path fill="#171717" fill-rule="evenodd" d="M14.81 14.302a.699.699 0 01.942.3l2.04 3.94a.699.699 0 01-.68 1.017l-2.049-.173-1.216 1.934a.699.699 0 01-1.185-.004l-3.558-5.733a.699.699 0 111.187-.737l.202.326-.796.043 3.559 5.733 1.442-2.294 2.473.209-2.04-3.94-.698.037a.699.699 0 01.377-.658z" clip-rule="evenodd"></path><path fill="#fff" fill-rule="evenodd" d="M11.774 15.998l-1.403 4.95-1.649-2.085-2.678.834 1.648-5.004" clip-rule="evenodd"></path><path fill="#171717" fill-rule="evenodd" d="M11.965 15.325a.699.699 0 01.481.863l-1.403 4.95a.698.698 0 01-1.22.243l-1.351-1.708-2.22.691a.699.699 0 01-.872-.886l1.649-5.004a.699.699 0 011.329.432l-.666-.213-1.648 5.004 2.678-.834 1.649 2.085 1.403-4.95-.665-.213a.699.699 0 01.856-.46z" clip-rule="evenodd"></path><path fill="#fff" d="M19 9.25c0 3.912-3.134 7.083-7 7.083S5 13.162 5 9.25c0-3.912 3.134-7.083 7-7.083s7 3.171 7 7.083z"></path><path fill="#171717" fill-rule="evenodd" d="M12 15.56c3.43 0 6.227-2.817 6.227-6.31 0-3.493-2.797-6.31-6.227-6.31S5.774 5.757 5.774 9.25c0 3.493 2.796 6.31 6.226 6.31zm0 .773c3.866 0 7-3.171 7-7.083 0-3.912-3.134-7.083-7-7.083S5 5.338 5 9.25c0 3.912 3.134 7.083 7 7.083z" clip-rule="evenodd"></path><path fill="#1564BF" fill-rule="evenodd" d="M14.775 7.373c.273.252.29.677.038.95l-3.41 3.698a.673.673 0 01-.973.017l-1.462-1.48a.673.673 0 11.957-.945l.966.977 2.933-3.179a.673.673 0 01.95-.038z" clip-rule="evenodd"></path></svg>