<svg xmlns="http://www.w3.org/2000/svg" width="58" height="59" fill="none"><path stroke="#171717" stroke-linecap="round" stroke-linejoin="round" stroke-miterlimit="10" stroke-width="2" d="M20.867 30.866l-10.794 9.085c-6.445 5.273-2.004 14.322 6.513 14.923 0 0 5.583.078 7.272.38 1.512.27 6.955 2.157 6.955 2.157 8.29 2.396 15.496-4.576 11.27-11.752l-6.988-12.256c-2.764-5.08-9.878-6.349-14.228-2.537zM48.213 16.282c1.427-5.298-.54-10.435-4.394-11.473-3.854-1.037-8.135 2.417-9.561 7.716-1.427 5.299.54 10.435 4.394 11.473 3.854 1.037 8.134-2.417 9.561-7.716zM20.78 20.813c3.975.359 7.597-3.781 8.09-9.247.492-5.465-2.33-10.186-6.305-10.544-3.975-.359-7.596 3.781-8.09 9.246-.492 5.466 2.33 10.187 6.305 10.545zM55.325 35.758c2.144-4.337 1.236-9.162-2.028-10.776-3.264-1.613-7.649.595-9.793 4.932-2.145 4.338-1.237 9.162 2.028 10.776 3.264 1.614 7.649-.594 9.793-4.932z"/><path fill="#16CA92" d="M53.229 34.722c1.384-2.8.798-5.913-1.309-6.955-2.107-1.041-4.937.384-6.32 3.184-1.384 2.799-.798 5.913 1.308 6.954 2.107 1.042 4.937-.383 6.32-3.183z"/><path stroke="#171717" stroke-linecap="round" stroke-linejoin="round" stroke-miterlimit="10" stroke-width="2" d="M8.551 34.097c3.621-.386 6.14-4.6 5.628-9.411-.513-4.811-3.864-8.399-7.485-8.013-3.62.386-6.14 4.6-5.628 9.41.513 4.812 3.864 8.4 7.485 8.014z"/></svg>