<svg xmlns="http://www.w3.org/2000/svg" width="66" height="67" fill="none"><g clip-path="url(#clip0)"><path fill="#0A4133" fill-rule="evenodd" d="M27.381 6.185c-8.436-3.408-18.102.73-21.54 9.236a16.643 16.643 0 003.252 17.592l-1.658 4.103a.739.739 0 00.008.568l1.912 4.535-3.478 1.492a.753.753 0 00-.392.97l1.466 3.49-3.477 1.486a.71.71 0 00-.389.398.742.742 0 000 .565l1.466 3.489-3.481 1.5a.736.736 0 00-.39.962l3.9 9.47a.738.738 0 00.4.4l.007.003a.72.72 0 00.573-.014l5.78-2.637a.723.723 0 00.38-.395l10.183-25.217a16.625 16.625 0 0014.556-10.387c3.438-8.51-.641-18.2-9.078-21.609zM10.47 62.576L5.642 64.77l-3.334-8.097 3.49-1.496a.742.742 0 00.389-.963l-1.474-3.492 3.476-1.486a.738.738 0 00.4-.403.779.779 0 000-.565l-1.474-3.492 3.487-1.489a.779.779 0 00.392-.406.739.739 0 00-.008-.568l-2.085-4.93 1.32-3.27a16.115 16.115 0 005.494 3.203L7.499 57.651a.735.735 0 00.402.956.735.735 0 00.953-.408l8.274-20.47a15.77 15.77 0 003.196.457l-9.854 24.39zm11.036-25.842l.108-.003a15.174 15.174 0 0013.49-9.488c3.131-7.749-.582-16.585-8.274-19.693-7.693-3.108-16.503.672-19.634 8.42-3.13 7.747.585 16.577 8.278 19.685a14.89 14.89 0 006.032 1.08z" clip-rule="evenodd"/><path fill="#0A4133" d="M21.854 36.417c-.175.004-.351.012-.523.01a.798.798 0 01.523-.01z"/><path fill="#0A4133" fill-rule="evenodd" d="M19.686 12.884a4.466 4.466 0 015.809-2.466 4.466 4.466 0 012.466 5.81 4.466 4.466 0 01-5.81 2.465 4.466 4.466 0 01-2.465-5.809zm1.439.581a2.911 2.911 0 105.398 2.18 2.911 2.911 0 00-5.398-2.18z" clip-rule="evenodd"/><circle cx="38.567" cy="16.38" r="14.28" stroke="#0A4133" stroke-width="1.785"/><path stroke="#0A4133" stroke-linejoin="round" stroke-width="1.785" d="M42.383 20.896s-2.026 8.812-6.6 14.256c-.38.054 5.443 8.652 5.443 8.652s6.13 8.065 18.282 5.194c.405-.057 8.693-10 3.412-18.694-5.28-8.693-5.415-9.071-5.415-9.071s-4.488 1.059-7.117 1c-2.628-.059-8.005-1.337-8.005-1.337z" clip-rule="evenodd"/><circle cx="47.045" cy="28.429" r="3.124" stroke="#0A4133" stroke-width="1.785"/><path fill="#fff" fill-rule="evenodd" d="M43.028 28.43s-.153 2.296 2.496 3.722c2.648 1.426-2.835 1.947-2.835 1.947l-3.285-2.534s1.357-2.848 1.594-3.336c.237-.488 2.03.2 2.03.2zM26.143 7.297s1.92.649 3.49 1.758c1.57 1.109-2.668 1.944-2.668 1.944l-.583-.103s-1.027-.567-1.743-.75c-.715-.181 1.504-2.849 1.504-2.849z" clip-rule="evenodd"/><path stroke="#16CA92" stroke-linecap="round" stroke-linejoin="round" stroke-width="1.772" d="M50.238 39.824l3.56.724.02-7.837"/><path stroke="#0A4133" stroke-linecap="round" stroke-width="1.785" d="M16.247 2.993S9.873 4.03 6.132 8.018c-1.389 1.48-2.434 3.097-3.136 4.85M1.73 16.749c-.085.425-.31 2.06-.31 2.06"/></g><defs><clipPath id="clip0"><path fill="#fff" d="M0 0h66v67H0z"/></clipPath></defs></svg>