<svg xmlns="http://www.w3.org/2000/svg" width="140" height="48" fill="none"><path fill="#000" d="M87.042 11.724l9.717 12.5h-6.98l-8.896-11.679v11.679h-5.84V.411h5.84V11.04L89.505.41h6.935l-9.398 11.314zM105.245 19.297h11.359v4.927H99.405V.411h16.651v4.926h-10.811v4.289h9.762v4.835h-9.762v4.836zM118.977.41v4.927h7.253v18.887h5.839V5.337h7.208V.411h-20.3z"/><path fill="#000" d="M118.977.41v4.927h7.253v18.887h5.839V5.337h7.208V.411h-20.3zM13.96 15.055l7.162 9.17h-6.706L5.839 12.727v11.496H0V.456h10.72c5.11 0 8.668 3.148 8.668 7.71 0 3.193-2.098 6.113-5.428 6.889zm-.365-6.889c0-1.78-1.415-3.01-3.422-3.01H5.885v6.02h4.288c2.053.092 3.422-1.185 3.422-3.01z"/><path fill="#C8102E" d="M35.218 5.11c4.288 0 7.664 3.284 7.664 7.8 0 3.559-1.78 5.703-4.151 7.3l3.284 4.379c4.06-2.783 6.615-6.615 6.615-11.679C48.63 5.43 42.7 0 35.218 0c-7.482 0-13.412 5.474-13.412 12.91 0 5.064 2.554 8.896 6.614 11.679l3.285-4.38c-2.372-1.596-4.151-3.74-4.151-7.299.045-4.516 3.376-7.8 7.664-7.8z"/><path fill="#000" d="M69.16 17.655l3.056 4.151c-2.235 1.962-4.972 2.829-8.394 2.829-6.706 0-12.5-4.882-12.5-12.363C51.322 4.972 57.07 0 63.822 0c3.239 0 6.159.821 8.348 2.6l-3.193 4.334C67.7 5.931 66.15 5.155 63.822 5.155c-3.695 0-6.66 2.92-6.66 7.253 0 4.243 2.965 7.117 6.751 7.117 2.327-.045 3.924-.867 5.246-1.87zM28.742 29.669h2.106l4.213 6.093 4.237-6.093h2.157v13.088h-1.856v-10.38l-4.237 6.093h-.602l-4.162-6.093v10.38h-1.856V29.67zM43.059 38.094c0-2.809 2.056-4.84 4.889-4.84 2.883 0 4.89 2.031 4.89 4.84 0 2.808-1.982 4.839-4.89 4.839-2.833 0-4.89-2.006-4.89-4.84zm7.998 0c0-1.906-1.279-3.185-3.109-3.185-1.805 0-3.084 1.279-3.084 3.185 0 1.905 1.304 3.184 3.084 3.184 1.855.025 3.11-1.304 3.11-3.184zM59.483 33.455v1.605h-.728c-1.78 0-2.557 1.278-2.557 3.159v4.513h-1.73V33.43h1.73v1.63c.602-1.204 1.554-1.63 2.583-1.63h.702v.025zM62.215 39.197v-4.188H60.61v-1.58h1.605v-2.682l1.755-.577v3.235h2.608v1.58H63.97v3.936c0 1.555.828 2.206 2.332 2.206h.176l-.276 1.706h-.075c-2.633.075-3.912-1.079-3.912-3.636zM77.234 33.455v8.6c0 3.06-1.855 4.714-4.814 4.714-2.106 0-3.435-.777-4.363-2.006l1.43-.902c.526.652 1.428 1.354 3.008 1.354 1.88 0 2.984-1.079 2.984-3.034v-1.154c-.727 1.179-1.906 1.73-3.36 1.73-2.608 0-4.488-1.955-4.488-4.688 0-2.733 1.83-4.764 4.488-4.764 1.505 0 2.608.626 3.36 1.73V33.48l1.755-.025zm-1.705 4.538c0-1.68-1.279-3.159-3.059-3.159-1.855 0-3.059 1.404-3.059 3.21 0 1.855 1.279 3.159 3.084 3.159 1.805-.025 3.034-1.404 3.034-3.21zM88.392 33.455v9.302h-1.755v-1.63c-.727 1.28-1.956 1.806-3.385 1.806-2.608 0-4.488-2.006-4.488-4.814 0-2.834 1.88-4.84 4.488-4.84 1.43 0 2.708.602 3.385 1.78V33.48l1.755-.025zm-1.655 4.639c0-1.856-1.354-3.21-3.134-3.21-1.78 0-3.009 1.279-3.009 3.235 0 1.905 1.204 3.184 2.984 3.184 1.805 0 3.16-1.379 3.16-3.21zM99.575 33.455v8.6c0 3.06-1.856 4.714-4.814 4.714-2.106 0-3.435-.777-4.363-2.006l1.43-.902c.526.652 1.428 1.354 3.008 1.354 1.88 0 2.984-1.079 2.984-3.034v-1.154c-.727 1.179-1.906 1.73-3.36 1.73-2.608 0-4.488-1.955-4.488-4.688 0-2.733 1.83-4.764 4.488-4.764 1.504 0 2.608.626 3.36 1.73V33.48l1.755-.025zm-1.705 4.538c0-1.68-1.279-3.159-3.06-3.159-1.855 0-3.058 1.404-3.058 3.21 0 1.855 1.279 3.159 3.084 3.159 1.83-.025 3.034-1.404 3.034-3.21zM110.332 38.595h-7.397c.175 1.73 1.304 2.808 2.959 2.808 1.303 0 2.131-.576 2.708-1.153l1.203.903c-.727.877-1.906 1.78-3.937 1.78-2.858 0-4.688-2.081-4.688-4.79 0-2.782 1.981-4.838 4.638-4.838 2.683 0 4.514 1.98 4.514 5.09v.2zm-1.831-1.279c-.175-1.63-1.178-2.607-2.658-2.607-1.429 0-2.657.952-2.883 2.607h5.541z"/></svg>