<svg xmlns="http://www.w3.org/2000/svg" viewBox="0 0 100 20"><g fill="none" fill-rule="evenodd"><path fill="#02B57A" d="M0 0h18.717v19.251H0z"/><path fill="#FFF" fill-rule="nonzero" d="M16.609 7.965l-4.47 3.269 1.707 5.286-4.47-3.268-4.474 3.268 1.712-5.286L2.139 7.96l5.525.005 1.713-5.291 1.706 5.291h5.526zm-4.086 4.466l-.384-1.197-2.762 2.018 3.146-.821z"/><path fill="#02B57A" d="M20.32 0h18.718v19.251H20.32z"/><path fill="#FFF" fill-rule="nonzero" d="M36.93 7.965l-4.47 3.269 1.707 5.286-4.47-3.268-4.474 3.268 1.712-5.286L22.46 7.96l5.525.005 1.712-5.291 1.707 5.291h5.526zm-4.086 4.466l-.384-1.197-2.763 2.018 3.147-.821z"/><path fill="#02B57A" d="M40.642 0h18.717v19.251H40.642z"/><path fill="#FFF" fill-rule="nonzero" d="M57.25 7.965l-4.47 3.269 1.708 5.286-4.47-3.268-4.475 3.268 1.713-5.286L42.78 7.96l5.525.005 1.712-5.291 1.707 5.291h5.525zm-4.085 4.466l-.384-1.197-2.763 2.018 3.147-.821z"/><g><path fill="#02B57A" d="M60.963 0H79.68v19.251H60.963z"/><path fill="#FFF" fill-rule="nonzero" d="M77.571 7.965l-4.47 3.269 1.707 5.286-4.469-3.268-4.475 3.268 1.712-5.286-4.474-3.274 5.525.005 1.712-5.291 1.707 5.291h5.525zm-4.085 4.466l-.384-1.197-2.763 2.018 3.147-.821z"/></g><g><path fill="#DCDCE5" d="M81.283 0H100v19.251H81.283z"/><path fill="#02B57A" d="M81.283 0h9.328v19.188h-9.328z"/><path fill="#FFF" fill-rule="nonzero" d="M97.892 7.965l-4.47 3.269 1.707 5.286-4.47-3.268-4.474 3.268 1.712-5.286-4.475-3.274 5.526.005 1.712-5.291 1.707 5.291h5.525zm-4.085 4.466l-.384-1.197-2.763 2.018 3.147-.821z"/></g></g></svg>