<svg fill="none" xmlns="http://www.w3.org/2000/svg" viewBox="0 0 21 20" class="z6O5-SB5"><g clip-path="url(#a)" fill="#FFD969"><path d="M5.441 8.238v10.96c0 .352-.32.638-.717.638H.762c-.396 0-.717-.286-.717-.638V8.238c0-.352.321-.638.717-.638h3.962c.396 0 .717.286.717.638zm14.604.904c0-.855-.692-1.547-1.547-1.547h-1.09l-4.07-.032s-.977.084-1.285-.388c-.186-.285-.187-.642-.003-1.06.77-1.746 1.04-3.539.305-5.009A2.274 2.274 0 0011.29.054a.528.528 0 00-.75.385l-.002.01c-.071.411-.117.914-.166 1.446-.071.78-.287 1.638-.492 2.24-.336.99-.512 1.024-1.531 2.052-.239.24-.485.49-.75.763-.105.11-.214.21-.33.317-.178.165-.407.485-.614.803a3.297 3.297 0 00-.534 1.798v7.527a1.65 1.65 0 001.214 1.592 8.659 8.659 0 002.242.321h8.762a1.358 1.358 0 001.12-1.342c0-.634-.43-1.168-1.014-1.325a1.547 1.547 0 00.052-3.017h.002a1.547 1.547 0 00.488-3.015 1.547 1.547 0 001.058-1.467z"></path></g><defs><clipPath id="a"><path fill="#fff" transform="translate(.045)" d="M0 0h20v19.836H0z"></path></clipPath></defs></svg>