<svg xmlns="http://www.w3.org/2000/svg" width="24" height="24" fill="none"><path fill="#16CA92" stroke="#16CA92" stroke-width=".118" d="M18.14 18.861v.06h.003a.748.748 0 01-.736.678H6.794a.747.747 0 01-.738-.738v-7.136c0-.401.337-.738.738-.738h10.608c.4 0 .738.337.738.738v7.136zm-.738-8.99h-.739V7.504a4.567 4.567 0 00-4.562-4.562 4.572 4.572 0 00-4.568 4.562v2.369h-.739c-1.023 0-1.853.83-1.853 1.853v7.136c0 1.024.83 1.854 1.853 1.854h10.608c1.023 0 1.853-.83 1.853-1.854v-7.136h-.059.06v0a1.85 1.85 0 00-1.854-1.853zM8.83 7.504a3.277 3.277 0 013.27-3.271 3.277 3.277 0 013.272 3.271v2.369H8.83V7.503z"/><path fill="#16CA92" stroke="#16CA92" stroke-width=".118" d="M12.101 12.774a1.467 1.467 0 00-.704 2.751v1.583c0 .39.314.704.704.704.39 0 .704-.314.704-.704v-1.583a1.465 1.465 0 00-.704-2.75z"/></svg>