<svg xmlns="http://www.w3.org/2000/svg" width="20" height="22" fill="none"><path fill="#171717" d="M6.618 20.027a.517.517 0 0 1-.516-.515c0-.257.207-.514.516-.514h6.042c.258 0 .516.205.516.514a.517.517 0 0 1-.516.515H6.618ZM7.857 22a.517.517 0 0 1-.516-.515c0-.257.206-.514.516-.514h3.511c.258 0 .517.206.517.514a.517.517 0 0 1-.517.515h-3.51Z"/><path fill="#171717" d="M6.618 20.027a.517.517 0 0 1-.516-.515c0-.257.207-.514.516-.514h6.042c.258 0 .516.205.516.514a.517.517 0 0 1-.516.515H6.618Z"/><path fill="#16CA92" fill-rule="evenodd" d="m5.43 2.11-.36-.617c-.053-.103 0-.206.102-.258.104-.051.207 0 .259.052l.361.618c-.155.103-.258.154-.361.206Zm8.779-.205.36-.618c.052-.103.156-.103.26-.052.102.052.154.155.102.258l-.361.618a2.962 2.962 0 0 1-.361-.206Zm4.44 7.31h.878c.103 0 .206.104.206.206a.222.222 0 0 1-.206.206h-.878v-.411Zm-17.35.36H.475c-.104 0-.207-.102-.207-.205s.103-.206.207-.206H1.3v.412Zm8.572-4.684c-2.943.103-5.008 3.192-5.008 3.192S5.74 4.582 9.51 4.067c.051.155.155.258.206.412.052.154.104.309.155.412Zm3.666 9.473c-2.168 1.441-5.215.824-5.215.824s1.962 1.184 4.286.514c-.052.207-.052.36-.052.412v1.287a.517.517 0 0 0 1.033 0v-1.39s-.052-.36.413-.72l.052-.052a7.808 7.808 0 0 0 2.272-2.574c.516-.978.826-2.11.826-3.295 0-1.956-.826-3.758-2.066-5.045a7.031 7.031 0 0 0-5.008-2.06c-1.962 0-3.77.772-5.06 2.06C3.726 5.612 2.951 7.362 2.951 9.37c0 1.184.258 2.265.775 3.244.516 1.03 1.29 1.853 2.168 2.522l.052.052c.052.051.052.103.103.103.517.412.413.72.413.72v1.39a.517.517 0 0 0 1.033 0v-1.287c0-.257 0-.978-.826-1.647-.052 0-.052-.052-.103-.052-.052-.051-.052-.102-.104-.102-.774-.567-1.446-1.288-1.859-2.163-.516-.824-.722-1.802-.722-2.78 0-1.699.67-3.192 1.807-4.325a6.177 6.177 0 0 1 4.337-1.802c1.704 0 3.201.67 4.337 1.802A6.14 6.14 0 0 1 16.17 9.37a6.36 6.36 0 0 1-.672 2.832c-.516.823-1.187 1.596-1.962 2.162Z" clip-rule="evenodd"/><path fill="#171717" fill-rule="evenodd" d="M9.87 4.891c-2.942.103-5.008 3.192-5.008 3.192s.878-3.5 4.647-4.016c.052.155.155.258.207.412.052.155.103.31.155.412Z" clip-rule="evenodd"/><path fill="#171717" d="m1.661 4.942.723.412c.052-.103.103-.206.207-.309l-.723-.411c-.104-.052-.259 0-.31.051-.052.103 0 .206.103.257Zm16.472-.308-.723.411c.103.103.155.206.206.31l.723-.413c.103-.051.103-.154.052-.257-.052-.051-.155-.103-.258-.051ZM9.82.206v.618c.051 0 .103 0 .206.051h.207v-.67c0-.102-.104-.205-.207-.205s-.207.103-.207.206Z"/></svg>