<svg xmlns="http://www.w3.org/2000/svg" width="50" height="50" fill="none"><path fill="#1A1A1A" d="M31.933 20.467L33.398 19a2.077 2.077 0 000-2.931 2.074 2.074 0 00-2.932 2.93l1.467 1.468zM25.025 32.178l-1.466 1.467a2.077 2.077 0 000 2.93 2.073 2.073 0 002.928 0 2.077 2.077 0 000-2.93l-1.462-1.467zM19.583 16.069a2.074 2.074 0 00-2.932 2.93l1.465 1.468L19.583 19a2.07 2.07 0 000-2.931z"/><path fill="#1A1A1A" d="M24.98 0C11.182 0 0 11.191 0 25s11.182 25 24.98 25c13.797 0 24.979-11.191 24.979-25S38.773 0 24.979 0zm12.659 30.978l-5.71-5.71-4.507 4.511 1.466 1.467a5.478 5.478 0 010 7.733 5.442 5.442 0 01-3.863 1.599 5.442 5.442 0 01-3.863-1.6 5.478 5.478 0 010-7.732l1.466-1.467-4.508-4.511-5.71 5.71-2.396-2.399 5.706-5.71-1.466-1.467a5.435 5.435 0 01-1.602-3.867 5.467 5.467 0 019.328-3.866 5.478 5.478 0 010 7.733l-1.466 1.467 4.51 4.507 4.508-4.51-1.466-1.468a5.435 5.435 0 01-1.601-3.866c0-1.46.569-2.833 1.601-3.866a5.467 5.467 0 017.726 0 5.478 5.478 0 010 7.732l-1.466 1.467 5.706 5.71-2.393 2.403z"/></svg>