<svg width="50" height="44" viewBox="0 0 50 44" fill="none" xmlns="http://www.w3.org/2000/svg">
<path d="M2.18164 42.9531H48.9999" stroke="#0A4133" stroke-width="2" stroke-miterlimit="22.9256" stroke-linecap="round" stroke-linejoin="round"/>
<path d="M7.03613 42.9535V24.8257" stroke="#0A4133" stroke-width="2" stroke-miterlimit="22.9256" stroke-linecap="round" stroke-linejoin="round"/>
<path d="M18.5967 42.9535V24.8257" stroke="#0A4133" stroke-width="2" stroke-miterlimit="22.9256" stroke-linecap="round" stroke-linejoin="round"/>
<path d="M44.0039 42.9535V24.8257" stroke="#0A4133" stroke-width="2" stroke-miterlimit="22.9256" stroke-linecap="round" stroke-linejoin="round"/>
<path d="M7.31957 1.9873H43.5752L48.8565 14.1201C48.8565 14.4056 48.9992 14.691 48.9992 14.9765C48.9992 17.8313 46.7154 20.2578 43.7179 20.2578C41.7196 20.2578 40.0067 19.1159 39.1503 17.5458C38.2938 19.1159 36.581 20.2578 34.5826 20.2578C32.5843 20.2578 30.8714 19.1159 30.015 17.5458C29.1586 19.1159 27.4457 20.2578 25.4474 20.2578C23.449 20.2578 21.7362 19.1159 20.8797 17.5458C20.0233 19.1159 18.3104 20.2578 16.3121 20.2578C14.3138 20.2578 12.6009 19.1159 11.7445 17.5458C10.888 19.1159 9.17517 20.2578 7.17683 20.2578C4.32206 20.2578 1.89551 17.974 1.89551 14.9765C1.89551 14.691 1.89551 14.4056 2.03825 14.1201L7.31957 1.9873Z" stroke="#0A4133" stroke-width="2" stroke-miterlimit="22.9256" stroke-linecap="round" stroke-linejoin="round"/>
<path d="M11.7461 17.2605L14.0299 2.70117" stroke="#0A4133" stroke-width="2" stroke-miterlimit="22.9256" stroke-linecap="round" stroke-linejoin="round"/>
<path d="M20.8818 17.2605C21.1673 12.4074 21.4528 7.55428 21.5955 2.70117" stroke="#0A4133" stroke-width="2" stroke-miterlimit="22.9256" stroke-linecap="round" stroke-linejoin="round"/>
<path d="M30.0156 17.2605C29.7301 12.4074 29.4447 7.55428 29.1592 2.70117" stroke="#0A4133" stroke-width="2" stroke-miterlimit="22.9256" stroke-linecap="round" stroke-linejoin="round"/>
<path d="M39.0084 17.2605L36.7246 2.70117" stroke="#0A4133" stroke-width="2" stroke-miterlimit="22.9256" stroke-linecap="round" stroke-linejoin="round"/>
<path d="M14.7432 34.1037V30.678" stroke="#0A4133" stroke-width="2" stroke-miterlimit="22.9256" stroke-linecap="round" stroke-linejoin="round"/>
<path d="M26.7002 35.2L34.1002 27.7" stroke="#16CA92" stroke-width="2.1" stroke-miterlimit="22.9256" stroke-linecap="round" stroke-linejoin="round"/>
<path d="M30.2998 37.3002L35.2998 32.2002" stroke="#16CA92" stroke-width="2.1" stroke-miterlimit="22.9256" stroke-linecap="round" stroke-linejoin="round"/>
</svg>
