<svg width="44" height="50" fill="none" xmlns="http://www.w3.org/2000/svg"><g clip-path="url(#clip0)" stroke-miterlimit="10" stroke-linecap="round" stroke-linejoin="round"><path d="M41.175 22.185c1.508-6.67 1.334-11.772 1.334-11.772L21.69 1.483.871 10.412s-.058 2.9.522 7.19M7.885 36.393c3.074 4.929 7.481 9.452 13.802 12.41 5.973-2.784 10.264-6.96 13.28-11.598" stroke="#16CA92" stroke-width="1.9"/><path d="M1.393 17.604c.173.986.347 2.088.521 3.19" stroke="#16CA92" stroke-width="1.74"/><path d="M6.729 31.29h-2.61c-.812 0-1.508-.696-1.45-1.508l.058-4.407c0-2.146 1.218-2.552 1.972-2.61.348 0 .754-.058 1.334 0 .58 0 1.16 0 1.507.058 5.452-4.523 5.683-4.523 5.916-4.523h.521c1.334-.058 4.872-.116 7.655-.116 2.668 0 3.306.116 3.596.232 1.043.348 6.205 4.175 7.538 5.16l4.466.059c1.797 0 4.407 2.087 4.407 4.175v3.248c0 .29-.232.58-.58.58h-2.957M31.375 31.464l-18.035-.116" stroke="#0A4133" stroke-width="1.74"/><path d="M29.406 23.519l-9.453-.058a.557.557 0 01-.521-.406l-.406-2.262" stroke="#0A4133" stroke-width="1.74"/><path d="M19.947 23.46h-7.945c-.232 0-.406-.115-.464-.29a.557.557 0 01.116-.521M34.736 27.752c1.856 0 3.305 1.508 3.305 3.364 0 1.856-1.507 3.305-3.363 3.305s-3.306-1.507-3.306-3.363c.058-1.856 1.508-3.306 3.364-3.306zM10.091 27.578c1.856 0 3.306 1.508 3.306 3.364 0 1.856-1.508 3.305-3.364 3.305-1.856 0-3.305-1.507-3.305-3.363s1.507-3.306 3.363-3.306z" stroke="#0A4133" stroke-width="1.74"/></g><defs><clipPath id="clip0"><path fill="#fff" transform="translate(0 .612)" d="M0 0h44v49.388H0z"/></clipPath></defs></svg>