<svg width="48" height="43" fill="none" xmlns="http://www.w3.org/2000/svg"><path d="M38 8H1" stroke="#16CA92" stroke-width="5" stroke-miterlimit="10"/><path d="M38 13.5V3c0-1.1-.9-2-2-2H3c-1.1 0-2 .9-2 2v20c0 1.1.9 2 2 2h5" stroke="#0A4133" stroke-width="1.9" stroke-miterlimit="10"/><path d="M12 16c-1.1 0-2 .9-2 2v20c0 1.1.9 2 2 2h33c1.1 0 2-.9 2-2V18c0-1.1-.9-2-2-2H12z" stroke="#0A4133" stroke-width="1.9" stroke-miterlimit="10"/><path d="M14 33h5M22 33h5M30 33h5M38 33h5M42 24.5c0 1.9-1.6 3.5-3.5 3.5h-1c-1.9 0-3.5-1.6-3.5-3.5s1.6-3.5 3.5-3.5h1c1.9 0 3.5 1.6 3.5 3.5z" stroke="#0A4133" stroke-width="2" stroke-miterlimit="10"/></svg>