<svg width="59" height="54" viewBox="0 0 59 54" fill="none" xmlns="http://www.w3.org/2000/svg">
<path fill-rule="evenodd" clip-rule="evenodd" d="M45.5684 0.361193C45.0738 0.161726 44.5111 0.401112 44.3117 0.895829L42.8151 4.6101C42.6157 5.10486 42.8552 5.66756 43.3499 5.86695C43.8448 6.06638 44.4076 5.82684 44.6069 5.33195L46.103 1.61746C46.3022 1.12294 46.0629 0.560568 45.5684 0.361193Z" fill="#16CA92"/>
<path fill-rule="evenodd" clip-rule="evenodd" d="M52.0331 5.56363C51.6561 5.94063 51.0449 5.94063 50.6679 5.56363C50.2909 5.18667 50.2909 4.5755 50.6678 4.19849L53.2655 1.60017C53.6427 1.22291 54.2543 1.22298 54.6313 1.60033C55.0082 1.97745 55.0081 2.58863 54.6311 2.96562L52.0331 5.56363Z" fill="#16CA92"/>
<path fill-rule="evenodd" clip-rule="evenodd" d="M51.5756 12.4962C51.0811 12.6957 50.5185 12.4564 50.3191 11.9619C50.1197 11.4673 50.3589 10.9048 50.8534 10.7054L54.6737 9.16462C55.1682 8.96516 55.7308 9.20441 55.9303 9.69897C56.1297 10.1935 55.8905 10.756 55.3959 10.9555L51.5756 12.4962Z" fill="#16CA92"/>
<path fill-rule="evenodd" clip-rule="evenodd" d="M2.88358 49.5328L1 49.109L3.76696 36.843C3.83744 36.5438 3.87219 36.2454 3.87219 35.9471V27.2581C3.87219 25.7491 4.33175 24.3743 5.27595 23.0536L8.18 18.9872C8.78148 18.1443 9.67451 17.5882 10.695 17.4183L13.9524 16.8757L14.2691 18.7796L11.0117 19.3231C10.5077 19.4071 10.0491 19.6939 9.75078 20.109L6.84576 24.1755C6.13423 25.1718 5.80308 26.1508 5.80308 27.2581V35.9471C5.80308 36.3951 5.75191 36.8421 5.64861 37.2785L2.88358 49.5328Z" fill="#0A4133" stroke="#0A4133" stroke-width="0.1"/>
<path fill-rule="evenodd" clip-rule="evenodd" d="M10.6644 52.281L8.75576 51.9904C8.76831 51.9083 10.0031 43.7725 10.4665 38.8584C10.6123 37.2992 11.2447 35.9032 12.2468 34.9252C12.8154 34.3701 13.2943 33.4876 13.4671 32.6767C13.6361 31.8783 13.8716 31.2536 14.2086 30.712L17.1773 25.9282C17.3299 25.71 17.3888 25.5295 17.3888 25.3268C17.3888 24.7861 16.964 24.3613 16.4233 24.3613C16.1578 24.3613 15.9107 24.4694 15.7243 24.6664L10.0649 30.656L8.66211 29.3304L14.3206 23.3418C14.8738 22.7548 15.621 22.4304 16.4233 22.4304C18.0202 22.4304 19.3196 23.7299 19.3196 25.3268C19.3196 25.9359 19.1391 26.4978 18.7838 26.9979L15.8489 31.7305C15.6336 32.0762 15.4772 32.5048 15.3555 33.0783C15.1055 34.2542 14.4297 35.4909 13.5955 36.3067C12.9207 36.9661 12.492 37.9364 12.3887 39.0389C11.9205 44.0091 10.678 52.1989 10.6644 52.281" fill="#0A4133"/>
<path d="M10.6644 52.281L8.75576 51.9904C8.76831 51.9083 10.0031 43.7725 10.4665 38.8584C10.6123 37.2992 11.2447 35.9032 12.2468 34.9252C12.8154 34.3701 13.2943 33.4876 13.4671 32.6767C13.6361 31.8783 13.8716 31.2536 14.2086 30.712L17.1773 25.9282C17.3299 25.71 17.3888 25.5295 17.3888 25.3268C17.3888 24.7861 16.964 24.3613 16.4233 24.3613C16.1578 24.3613 15.9107 24.4694 15.7243 24.6664L10.0649 30.656L8.66211 29.3304L14.3206 23.3418C14.8738 22.7548 15.621 22.4304 16.4233 22.4304C18.0202 22.4304 19.3196 23.7299 19.3196 25.3268C19.3196 25.9359 19.1391 26.4978 18.7838 26.9979L15.8489 31.7305C15.6336 32.0762 15.4772 32.5048 15.3555 33.0783C15.1055 34.2542 14.4297 35.4909 13.5955 36.3067C12.9207 36.9661 12.492 37.9364 12.3887 39.0389C11.9205 44.0091 10.678 52.1989 10.6644 52.281" stroke="#0A4133" stroke-width="0.1"/>
<path fill-rule="evenodd" clip-rule="evenodd" d="M49.9293 53.5086L42.6576 41.1074C42.1517 40.2115 41.4566 39.4884 40.634 39.0008C39.5441 38.353 37.8507 37.1356 35.9748 35.0184C32.84 31.4791 31.221 28.5432 31.1544 28.4196L31.1013 28.3066C30.9709 27.9735 30.9053 27.6202 30.9053 27.2581C30.9053 25.6362 32.1768 24.3647 33.7997 24.3618H33.8045C34.5556 24.3618 35.4042 24.7094 35.915 25.2278L34.5411 26.5833C34.3925 26.4337 34.0352 26.2927 33.8045 26.2927H33.8035C33.1383 26.2937 32.8362 26.7938 32.8362 27.2581C32.8362 27.3614 32.8516 27.459 32.8815 27.5526C33.1258 27.9832 34.6792 30.642 37.4211 33.7372C39.1309 35.6681 40.6485 36.762 41.6207 37.3403C42.732 37.9997 43.6694 38.9699 44.3307 40.1459L51.5947 52.5315L49.9293 53.5086Z" fill="#0A4133" stroke="#0A4133" stroke-width="0.1"/>
<mask id="mask0" mask-type="alpha" maskUnits="userSpaceOnUse" x="30" y="13" width="29" height="32">
<path fill-rule="evenodd" clip-rule="evenodd" d="M30.9043 13.7415H58.227V44.9263H30.9043V13.7415Z" fill="white" stroke="white" stroke-width="0.1"/>
</mask>
<g mask="url(#mask0)">
<path fill-rule="evenodd" clip-rule="evenodd" d="M56.8622 44.9263L49.5605 37.6246C48.1529 36.217 47.1546 34.4541 46.6729 32.5251L45.0007 25.8346C44.6754 24.5322 44.0498 23.2974 43.1925 22.2605L39.127 16.8936C38.5303 16.1473 37.4085 15.6723 36.2142 15.6723C34.3828 15.6723 32.8352 16.7701 32.8352 18.0695C32.8352 19.0388 32.8352 19.0388 35.4013 24.1171C36.0067 25.3162 36.7501 26.7885 37.6614 28.6083L35.9362 29.4734C35.0248 27.6554 34.2824 26.186 33.6771 24.9879C30.9564 19.6017 30.9043 19.4984 30.9043 18.0695C30.9043 15.683 33.286 13.7415 36.2142 13.7415C38.008 13.7415 39.6657 14.4771 40.6505 15.7081L44.7053 21.0624C45.721 22.2866 46.4788 23.7869 46.8737 25.3664L48.5468 32.0579C48.9436 33.647 49.7662 35.099 50.9257 36.2585L58.2273 43.5611L56.8622 44.9263Z" fill="#0A4133" stroke="#0A4133" stroke-width="0.1"/>
</g>
<path fill-rule="evenodd" clip-rule="evenodd" d="M30.9047 50.4284C22.1742 50.4284 14.4323 45.1928 11.1836 37.0899L12.9755 36.3706C15.9297 43.7369 22.9668 48.4975 30.9047 48.4975C36.0621 48.4975 40.9009 46.5 44.5281 42.8719L45.8932 44.237C41.9011 48.2301 36.5777 50.4284 30.9047 50.4284" fill="#0A4133"/>
<path d="M30.9047 50.4284C22.1742 50.4284 14.4323 45.1928 11.1836 37.0899L12.9755 36.3706C15.9297 43.7369 22.9668 48.4975 30.9047 48.4975C36.0621 48.4975 40.9009 46.5 44.5281 42.8719L45.8932 44.237C41.9011 48.2301 36.5777 50.4284 30.9047 50.4284" stroke="#0A4133" stroke-width="0.1"/>
<path fill-rule="evenodd" clip-rule="evenodd" d="M50.7235 36.8406L48.923 36.1445C49.7783 33.9288 50.2138 31.5896 50.2138 29.1885C50.2138 18.5416 41.5518 9.87962 30.9049 9.87962C20.3545 9.87962 11.876 18.1371 11.6028 28.6778L9.67188 28.6266C9.97309 17.0316 19.2993 7.94873 30.9049 7.94873C42.6167 7.94873 52.1446 17.4767 52.1446 29.1885C52.1446 31.828 51.6667 34.4029 50.7235 36.8406" fill="#0A4133"/>
<path d="M50.7235 36.8406L48.923 36.1445C49.7783 33.9288 50.2138 31.5896 50.2138 29.1885C50.2138 18.5416 41.5518 9.87962 30.9049 9.87962C20.3545 9.87962 11.876 18.1371 11.6028 28.6778L9.67188 28.6266C9.97309 17.0316 19.2993 7.94873 30.9049 7.94873C42.6167 7.94873 52.1446 17.4767 52.1446 29.1885C52.1446 31.828 51.6667 34.4029 50.7235 36.8406" stroke="#0A4133" stroke-width="0.1"/>
<path fill-rule="evenodd" clip-rule="evenodd" d="M30.9053 45.6012C22.4123 45.6012 15.2265 38.9782 14.5459 30.5219L16.471 30.3674C17.0705 37.8265 23.4106 43.6703 30.9053 43.6703C35.0925 43.6703 39.073 41.8581 41.8274 38.6992L43.2823 39.9678C40.162 43.5477 35.6505 45.6012 30.9053 45.6012" fill="#0A4133"/>
<path d="M30.9053 45.6012C22.4123 45.6012 15.2265 38.9782 14.5459 30.5219L16.471 30.3674C17.0705 37.8265 23.4106 43.6703 30.9053 43.6703C35.0925 43.6703 39.073 41.8581 41.8274 38.6992L43.2823 39.9678C40.162 43.5477 35.6505 45.6012 30.9053 45.6012" stroke="#0A4133" stroke-width="0.1"/>
<path fill-rule="evenodd" clip-rule="evenodd" d="M17.4725 23.7646L15.6826 23.0405C18.2044 16.8047 24.1785 12.7759 30.9048 12.7759C32.8212 12.7759 34.7984 13.1302 36.6221 13.8021L35.955 15.6143C34.3437 15.0205 32.5972 14.7068 30.9048 14.7068C24.9702 14.7068 19.6979 18.2625 17.4725 23.7646" fill="#0A4133"/>
<path d="M17.4725 23.7646L15.6826 23.0405C18.2044 16.8047 24.1785 12.7759 30.9048 12.7759C32.8212 12.7759 34.7984 13.1302 36.6221 13.8021L35.955 15.6143C34.3437 15.0205 32.5972 14.7068 30.9048 14.7068C24.9702 14.7068 19.6979 18.2625 17.4725 23.7646" stroke="#0A4133" stroke-width="0.1"/>
<path fill-rule="evenodd" clip-rule="evenodd" d="M18.3752 26.8939L18.1377 24.9784L23.7431 24.2833C25.3679 21.9054 28.0113 20.4998 30.9057 20.4998C31.7572 20.4998 32.5991 20.6233 33.4072 20.8676L32.8491 22.7154C32.2226 22.5272 31.568 22.4306 30.9057 22.4306C28.5326 22.4306 26.3749 23.6481 25.1333 25.6871L24.89 26.0858L18.3752 26.8939Z" fill="#0A4133" stroke="#0A4133" stroke-width="0.1"/>
<path fill-rule="evenodd" clip-rule="evenodd" d="M34.7943 44.4773L32.8789 44.2379L34.0075 35.2023L34.4062 34.9599C34.9759 34.6133 35.4914 34.1857 35.9374 33.6865L37.3759 34.9744C36.9087 35.4958 36.3835 35.9572 35.81 36.3511L34.7943 44.4773Z" fill="#0A4133" stroke="#0A4133" stroke-width="0.1"/>
<path fill-rule="evenodd" clip-rule="evenodd" d="M27.0162 44.4775L25.9996 36.3504C25.1181 35.7451 24.3486 34.9756 23.7424 34.0942L15.6162 33.0775L15.8556 31.1621L24.8903 32.2917L25.1336 32.6894C25.6954 33.6134 26.4803 34.3992 27.4033 34.9602L27.802 35.2025L28.9316 44.2381L27.0162 44.4775Z" fill="#0A4133" stroke="#0A4133" stroke-width="0.1"/>
</svg>
