<svg xmlns="http://www.w3.org/2000/svg" width="296" height="243" fill="none"><rect width="244" height="70" x="26.5" y="92.875" fill="#fff" stroke="#F5F5F5" rx="3.5"/><path fill="#16CA92" d="M53.008 123.223l-.456 2.712h-2.448l.456-2.712h2.448zm2.184-1.896l.504-2.88c.048-.264-.096-.456-.36-.456h-.912a.565.565 0 00-.552.456l-.504 2.88H50.92l.504-2.88c.048-.264-.096-.456-.36-.456h-.912a.565.565 0 00-.552.456l-.504 2.88h-1.44a.54.54 0 00-.528.456l-.192.984c-.048.264.12.456.384.456h1.416l-.456 2.712h-1.416a.54.54 0 00-.528.456l-.192.984c-.048.264.12.456.384.456h1.416l-.504 2.88c-.048.264.12.456.384.456h.912a.54.54 0 00.528-.456l.504-2.88h2.448l-.504 2.88c-.048.264.12.456.384.456h.912a.54.54 0 00.528-.456l.504-2.88h1.464a.54.54 0 00.528-.456l.192-.984c.048-.264-.12-.456-.384-.456h-1.464l.456-2.712h1.464a.54.54 0 00.528-.456l.192-.984c.048-.264-.12-.456-.384-.456h-1.44zm6.956-3.576c-1.584 0-3.072.576-3.768.96-.504.288-.696.576-.696 1.08v1.272c0 .408.216.6.528.6.24 0 .48-.168.744-.336.6-.384 1.272-1.008 2.64-1.008 1.272 0 2.232.648 2.232 2.16 0 1.656-1.056 3-2.544 4.608-1.248 1.344-2.592 2.688-3.288 3.672-.24.336-.36.744-.36 1.08v1.104c0 .24.168.432.432.432h8.496a.441.441 0 00.456-.456v-1.728a.441.441 0 00-.456-.456h-5.256c2.016-2.04 5.736-4.8 5.736-8.424 0-3.144-2.208-4.56-4.896-4.56z"/><rect width="244" height="70" x="26.5" y="171.875" fill="#fff" stroke="#F5F5F5" rx="3.5"/><path fill="#16CA92" d="M53.008 203.223l-.456 2.712h-2.448l.456-2.712h2.448zm2.184-1.896l.504-2.88c.048-.264-.096-.456-.36-.456h-.912a.565.565 0 00-.552.456l-.504 2.88H50.92l.504-2.88c.048-.264-.096-.456-.36-.456h-.912a.565.565 0 00-.552.456l-.504 2.88h-1.44a.54.54 0 00-.528.456l-.192.984c-.048.264.12.456.384.456h1.416l-.456 2.712h-1.416a.54.54 0 00-.528.456l-.192.984c-.048.264.12.456.384.456h1.416l-.504 2.88c-.048.264.12.456.384.456h.912a.54.54 0 00.528-.456l.504-2.88h2.448l-.504 2.88c-.048.264.12.456.384.456h.912a.54.54 0 00.528-.456l.504-2.88h1.464a.54.54 0 00.528-.456l.192-.984c.048-.264-.12-.456-.384-.456h-1.464l.456-2.712h1.464a.54.54 0 00.528-.456l.192-.984c.048-.264-.12-.456-.384-.456h-1.44zm12.14 7.728c0-1.608-.888-3-2.184-3.624 1.176-.624 1.896-1.896 1.896-3.312 0-2.592-1.584-4.368-4.872-4.368-1.584 0-3.096.576-3.768.96-.504.288-.696.576-.696 1.08v1.272c0 .408.192.624.504.624.24 0 .408-.144.648-.288.576-.36 1.392-1.08 2.952-1.08 1.104 0 2.136.432 2.136 2.016 0 1.248-.72 2.088-2.28 2.088h-1.08a.441.441 0 00-.456.456v1.2c0 .264.192.456.456.456h1.176c1.584 0 2.472.888 2.472 2.256 0 1.608-.936 2.256-2.352 2.256-1.32 0-2.544-.672-3.24-1.128-.24-.168-.456-.288-.672-.288-.312 0-.504.216-.504.648v1.176c0 .48.168.768.648 1.08.528.36 2.016 1.08 4.08 1.08 2.784 0 5.136-1.488 5.136-4.56z"/><g filter="url(#filter0_d)"><rect width="260.097" height="75.375" x="18" y="7" fill="#fff" rx="4.246"/><rect width="258.94" height="74.218" x="18.578" y="7.578" stroke="#F5F5F5" stroke-width="1.157" rx="3.668"/></g><path fill="#0A4133" d="M56.059 41.432l-.684 4.068h-3.672l.684-4.068h3.672zm3.276-2.844l.756-4.32c.072-.396-.144-.684-.54-.684h-1.368a.847.847 0 00-.828.684l-.756 4.32h-3.672l.756-4.32c.072-.396-.144-.684-.54-.684h-1.368a.847.847 0 00-.828.684l-.756 4.32h-2.16a.81.81 0 00-.792.684l-.288 1.476c-.072.396.18.684.576.684h2.124l-.684 4.068h-2.124a.81.81 0 00-.792.684l-.288 1.476c-.072.396.18.684.576.684h2.124l-.756 4.32c-.072.396.18.684.576.684h1.368a.81.81 0 00.792-.684l.756-4.32h3.672l-.756 4.32c-.072.396.18.684.576.684h1.368a.81.81 0 00.792-.684l.756-4.32h2.196a.81.81 0 00.792-.684l.288-1.476c.072-.396-.18-.684-.576-.684H58.11l.684-4.068h2.196a.81.81 0 00.792-.684l.288-1.476c.072-.396-.18-.684-.576-.684h-2.16zm10.533 17.388V34.268a.662.662 0 00-.684-.684h-2.16a.662.662 0 00-.684.684v.252c0 1.296-.792 1.872-2.088 1.872h-.324a.662.662 0 00-.684.684v1.62c0 .396.288.684.684.684h1.44v16.596c0 .396.288.684.684.684h3.132a.662.662 0 00.684-.684z"/><path stroke="#E3E3E2" stroke-linecap="round" stroke-width="4" d="M174 133h60M174 122h13M193 122h20M176 212h48M176 201h18M200 201h36"/><path stroke="#E3E3E2" stroke-linecap="round" stroke-width="5" d="M174 52h83M174 41h20M200 41h9"/><rect width="46" height="18" x="97" y="38" fill="#E3E3E2" rx="4"/><rect width="46" height="18" x="97" y="120" fill="#E3E3E2" rx="4"/><rect width="46" height="18" x="97" y="198" fill="#E3E3E2" rx="4"/><path fill="#16CA92" d="M161.528 40.874a.47.47 0 00-.659-.03.469.469 0 00-.031.658l1.899 2.055a.44.44 0 00.329.157h.016a.428.428 0 00.33-.14l4.785-4.786a.467.467 0 00-.016-.658.464.464 0 00-.643 0l-4.441 4.455-1.569-1.71zM163.567 123.012a.328.328 0 00-.461-.022.328.328 0 00-.022.461l1.329 1.439a.31.31 0 00.231.11h.011a.3.3 0 00.231-.099l3.349-3.349a.327.327 0 00-.011-.461.324.324 0 00-.45 0l-3.109 3.118-1.098-1.197zM161.528 51.16a.47.47 0 00-.659-.03.469.469 0 00-.031.658l1.899 2.056a.44.44 0 00.329.157h.016a.428.428 0 00.33-.142l4.785-4.785a.467.467 0 00-.016-.658.463.463 0 00-.643 0l-4.441 4.455-1.569-1.71zM163.567 211.012a.328.328 0 00-.461-.022.328.328 0 00-.022.461l1.329 1.439a.31.31 0 00.231.11h.011a.3.3 0 00.231-.099l3.349-3.349a.327.327 0 00-.011-.461.324.324 0 00-.45 0l-3.109 3.118-1.098-1.197z"/><path fill="#0A4133" d="M166.884 134.537L165.342 133l1.542-1.542a.24.24 0 00-.005-.333.238.238 0 00-.342 0L165 132.663l-1.586-1.591a.248.248 0 00-.178-.072.236.236 0 00-.164.072.24.24 0 00.005.338l1.586 1.59-1.591 1.591a.246.246 0 00-.072.178.236.236 0 00.241.231c.087 0 .14-.039.174-.067l1.59-1.591 1.537 1.538a.237.237 0 00.174.067.256.256 0 00.173-.067.247.247 0 00.073-.179.24.24 0 00-.078-.164zM167.884 202.537L166.342 201l1.542-1.542a.24.24 0 00-.005-.333.238.238 0 00-.342 0L166 200.663l-1.586-1.591a.248.248 0 00-.178-.072.236.236 0 00-.164.072.24.24 0 00.005.338l1.586 1.59-1.591 1.591a.246.246 0 00-.072.178.236.236 0 00.241.231c.087 0 .14-.039.174-.067l1.59-1.591 1.537 1.538a.237.237 0 00.174.067.256.256 0 00.173-.067.247.247 0 00.073-.179.24.24 0 00-.078-.164z"/><defs><filter id="filter0_d" width="294.217" height="109.495" x=".94" y=".57" color-interpolation-filters="sRGB" filterUnits="userSpaceOnUse"><feFlood flood-opacity="0" result="BackgroundImageFix"/><feColorMatrix in="SourceAlpha" values="0 0 0 0 0 0 0 0 0 0 0 0 0 0 0 0 0 0 127 0"/><feOffset dy="10.63"/><feGaussianBlur stdDeviation="8.53"/><feColorMatrix values="0 0 0 0 0 0 0 0 0 0 0 0 0 0 0 0 0 0 0.2 0"/><feBlend in2="BackgroundImageFix" result="effect1_dropShadow"/><feBlend in="SourceGraphic" in2="effect1_dropShadow" result="shape"/></filter></defs></svg>