<svg width="43" height="43" fill="none" xmlns="http://www.w3.org/2000/svg"><path d="m36.281 28.89-.94-.134c-.336-.067-.605-.201-.74-.47l-4.904-7.995c-.672-1.075-1.814-1.68-3.023-1.613l-5.98.336c-1.747.067-3.158 1.545-3.158 3.292v2.553l-.403 3.763c-.067.806.605 1.545 1.41 1.478l.74-.067c1.41-.067 2.687-1.008 3.09-2.419l.538-1.881c.134-.538 0-1.075-.47-1.411l-.27-.134" stroke="#0A4133" stroke-width="1.344" stroke-miterlimit="10" stroke-linecap="round" stroke-linejoin="round"/><path d="M28.89 32.922c-4.03-1.344-5.509-6.114-6.046-7.727M33.862 40.85l-1.209-.269a2.972 2.972 0 0 0-2.15.202l-.873.403c-1.814.806-3.83.94-5.778.537l-10.818-2.418M18.14 20.156l-2.687-.806c-1.277-.403-2.62.336-3.023 1.68a2.518 2.518 0 0 0 1.68 3.023l2.821.806M9.742 30.906c-.134 1.21.605 2.352 1.747 2.688l4.703 1.343a2.518 2.518 0 0 0 3.024-1.68 2.518 2.518 0 0 0-1.68-3.023l-5.644-1.612c-1.276-.336-2.083-1.747-1.68-3.024" stroke="#0A4133" stroke-width="1.344" stroke-miterlimit="10" stroke-linecap="round" stroke-linejoin="round"/><path d="M10.414 36.348c-.201 1.344.74 2.554 2.083 2.755l3.695.538c1.344.201 2.553-.74 2.755-2.083.134-.874-.269-1.747-.94-2.285M42.328 28.89l-4.031-1.007a1.288 1.288 0 0 0-1.613 1.008L33.93 40.38c-.202.739.268 1.41 1.007 1.612l1.344.336M16.125 19.484S13.572 10.75 18.275.672l14.647 5.375s-2.688 4.031-4.972 12.765" stroke="#0A4133" stroke-width="1.344" stroke-miterlimit="10" stroke-linecap="round" stroke-linejoin="round"/><path d="M18.813 13.438c0-1.344 0-4.704 1.276-6.72 0 0 1.21 0 1.747-1.343l5.308 2.016s-.605 1.343.604 2.687c0 0-1.007 1.747-1.746 4.703" stroke="#16CA92" stroke-width="1.344" stroke-miterlimit="10" stroke-linecap="round" stroke-linejoin="round"/><path d="M24.725 18.14c-.269-2.15-1.814-2.687-2.89-2.687-1.948 0-3.023 1.344-3.023 3.36v.671M14.11 2.688l-7.391.671s8.062 8.063 8.062 15.454" stroke="#0A4133" stroke-width="1.344" stroke-miterlimit="10" stroke-linecap="round" stroke-linejoin="round"/><path d="m9.406 6.719-8.734 3.36s9.406-.673 14.11 8.733" stroke="#0A4133" stroke-width="1.344" stroke-miterlimit="10" stroke-linecap="round" stroke-linejoin="round"/></svg>