<svg xmlns="http://www.w3.org/2000/svg" width="295" height="259" fill="none"><path fill="#16CA92" d="M132.66 34.28c0-2.74-1.52-4.1-4.06-4.1h-4.04c-.22 0-.38.16-.38.38v12.06c0 .22.16.38.38.38h1.76c.22 0 .38-.16.38-.38v-4.24h1.94c2.42 0 4.02-1.5 4.02-4.1zm-2.54 0c0 1.4-.64 2.1-2.1 2.1h-1.32v-4.2h1.28c1.54 0 2.14.72 2.14 2.1zm6.46.26v-.14c0-.52-.42-1-1.1-1h-.98c-.22 0-.38.16-.38.38v8.84c0 .22.16.38.38.38h1.72c.22 0 .38-.16.38-.38v-6.1c.36-.3 1.02-.7 1.8-.7.52 0 .78.18 1.06.36.12.08.24.14.38.14.22 0 .36-.14.36-.36v-1.88c0-.44-.62-.72-1.18-.72-.94 0-1.88.54-2.44 1.18zm13.746 3.66c0-3.2-1.88-5-4.66-5-2.8 0-4.68 1.8-4.68 5s1.88 5 4.68 5c2.78 0 4.66-1.8 4.66-5zm-2.48 0c0 2.04-.86 2.9-2.18 2.9-1.34 0-2.2-.86-2.2-2.9s.86-2.9 2.2-2.9c1.32 0 2.18.86 2.18 2.9zm10.55 1.9c0-1.94-1.3-2.6-3.06-2.96-.88-.18-1.34-.5-1.34-1.08 0-.72.54-.94 1.24-.94 1.08 0 1.62.48 2.08.76.16.1.28.14.42.14.24 0 .36-.14.36-.44v-.96c0-.32-.14-.52-.52-.76-.44-.26-1.3-.66-2.64-.66-1.74 0-3.34 1.02-3.34 2.96 0 1.86 1.42 2.52 2.9 2.82 1 .2 1.46.5 1.46 1.22 0 .82-.7.98-1.4.98-.98 0-1.84-.5-2.32-.76-.18-.1-.3-.14-.44-.14-.22 0-.34.14-.34.44v1c0 .32.12.54.5.76.46.28 1.44.72 2.9.72 1.86 0 3.54-1 3.54-3.1z"/><g filter="url(#filter0_d)"><rect width="127.125" height="203.4" x="16" y="20.199" fill="#fff" rx="3.856"/><rect width="126.074" height="202.349" x="16.525" y="20.724" stroke="#F5F5F5" stroke-width="1.051" rx="3.331"/></g><path stroke="#E3E3E2" stroke-linecap="round" stroke-width="3.969" d="M36.898 172.006h78.384M36.898 182.921h38.696M83.533 182.922H98.54"/><path fill="#fff" fill-rule="evenodd" d="M39.776 154.772l-2.882.424 2.085 2.028-.498 2.874 2.581-1.36 2.58 1.359-.494-2.869 2.089-2.039-2.883-.415-1.293-2.614-1.285 2.612z" clip-rule="evenodd"/><path fill="#0A4133" fill-rule="evenodd" d="M39.776 154.772l-2.882.424 2.085 2.028-.498 2.874 2.581-1.36 2.58 1.359-.494-2.869 2.089-2.039-2.883-.415-1.293-2.614-1.285 2.612z" clip-rule="evenodd"/><path fill="#fff" fill-rule="evenodd" d="M49.299 154.772l-2.881.424 2.085 2.028-.498 2.874 2.58-1.36 2.58 1.359-.493-2.869 2.088-2.039-2.883-.415-1.293-2.614-1.285 2.612z" clip-rule="evenodd"/><path fill="#0A4133" fill-rule="evenodd" d="M49.299 154.772l-2.881.424 2.085 2.028-.498 2.874 2.58-1.36 2.58 1.359-.493-2.869 2.088-2.039-2.883-.415-1.293-2.614-1.285 2.612z" clip-rule="evenodd"/><path fill="#fff" fill-rule="evenodd" d="M58.819 154.772l-2.882.424 2.085 2.028-.498 2.874 2.581-1.36 2.58 1.359-.494-2.869 2.089-2.039-2.883-.415-1.293-2.614-1.285 2.612z" clip-rule="evenodd"/><path fill="#0A4133" fill-rule="evenodd" d="M58.819 154.772l-2.882.424 2.085 2.028-.498 2.874 2.581-1.36 2.58 1.359-.494-2.869 2.089-2.039-2.883-.415-1.293-2.614-1.285 2.612z" clip-rule="evenodd"/><path fill="#fff" fill-rule="evenodd" d="M68.346 154.772l-2.881.424 2.085 2.028-.498 2.874 2.58-1.36 2.58 1.359-.493-2.869 2.088-2.039-2.883-.415-1.293-2.614-1.285 2.612z" clip-rule="evenodd"/><path fill="#0A4133" fill-rule="evenodd" d="M68.346 154.772l-2.881.424 2.085 2.028-.498 2.874 2.58-1.36 2.58 1.359-.493-2.869 2.088-2.039-2.883-.415-1.293-2.614-1.285 2.612z" clip-rule="evenodd"/><path fill="#fff" fill-rule="evenodd" d="M77.87 154.772l-2.88.424 2.084 2.028-.498 2.874 2.581-1.36 2.58 1.359-.494-2.869 2.088-2.039-2.883-.415-1.292-2.614-1.286 2.612z" clip-rule="evenodd"/><path fill="#E3E3E2" fill-rule="evenodd" d="M77.87 154.772l-2.88.424 2.084 2.028-.498 2.874 2.581-1.36 2.58 1.359-.494-2.869 2.088-2.039-2.883-.415-1.292-2.614-1.286 2.612z" clip-rule="evenodd"/><circle cx="48.462" cy="138.607" r="11.568" fill="#16CA92"/><path stroke="#E3E3E2" stroke-linecap="round" stroke-width="3.969" d="M36.898 104.541h78.384M36.9 93.625h38.695M83.533 93.626H98.54"/><path fill="#fff" fill-rule="evenodd" d="M39.776 76.39l-2.882.424 2.085 2.027-.498 2.874 2.581-1.359 2.58 1.358-.494-2.869 2.089-2.038-2.883-.416-1.293-2.613-1.285 2.612z" clip-rule="evenodd"/><path fill="#0A4133" fill-rule="evenodd" d="M39.776 76.39l-2.882.424 2.085 2.027-.498 2.874 2.581-1.359 2.58 1.358-.494-2.869 2.089-2.038-2.883-.416-1.293-2.613-1.285 2.612z" clip-rule="evenodd"/><path fill="#fff" fill-rule="evenodd" d="M49.299 76.39l-2.881.423 2.085 2.028-.498 2.874 2.58-1.36 2.58 1.359-.493-2.87 2.088-2.037-2.883-.416-1.293-2.614L49.3 76.39z" clip-rule="evenodd"/><path fill="#0A4133" fill-rule="evenodd" d="M49.299 76.39l-2.881.423 2.085 2.028-.498 2.874 2.58-1.36 2.58 1.359-.493-2.87 2.088-2.037-2.883-.416-1.293-2.614L49.3 76.39z" clip-rule="evenodd"/><path fill="#fff" fill-rule="evenodd" d="M58.819 76.39l-2.882.423 2.085 2.028-.498 2.874 2.581-1.36 2.58 1.359-.494-2.87 2.089-2.037-2.883-.416-1.293-2.614-1.285 2.612z" clip-rule="evenodd"/><path fill="#0A4133" fill-rule="evenodd" d="M58.819 76.39l-2.882.423 2.085 2.028-.498 2.874 2.581-1.36 2.58 1.359-.494-2.87 2.089-2.037-2.883-.416-1.293-2.614-1.285 2.612z" clip-rule="evenodd"/><path fill="#fff" fill-rule="evenodd" d="M68.346 76.39l-2.881.423 2.085 2.028-.498 2.874 2.58-1.36 2.58 1.359-.493-2.87 2.088-2.037-2.883-.416-1.293-2.614-1.285 2.612z" clip-rule="evenodd"/><path fill="#E3E3E2" fill-rule="evenodd" d="M68.346 76.39l-2.881.423 2.085 2.028-.498 2.874 2.58-1.36 2.58 1.359-.493-2.87 2.088-2.037-2.883-.416-1.293-2.614-1.285 2.612z" clip-rule="evenodd"/><path fill="#fff" fill-rule="evenodd" d="M77.87 76.39l-2.88.423 2.084 2.028-.498 2.874 2.581-1.36 2.58 1.359-.494-2.87 2.088-2.037-2.883-.416-1.292-2.614-1.286 2.612z" clip-rule="evenodd"/><path fill="#E3E3E2" fill-rule="evenodd" d="M77.87 76.39l-2.88.423 2.084 2.028-.498 2.874 2.581-1.36 2.58 1.359-.494-2.87 2.088-2.037-2.883-.416-1.292-2.614-1.286 2.612z" clip-rule="evenodd"/><circle cx="48.462" cy="57.564" r="11.568" fill="#16CA92"/><g filter="url(#filter1_d)"><rect width="173" height="224" x="104" y="7" fill="#fff" rx="4.246"/><rect width="171.843" height="222.843" x="104.578" y="7.578" stroke="#F5F5F5" stroke-width="1.157" rx="3.668"/></g><path stroke="#E3E3E2" stroke-linecap="round" stroke-width="4" d="M147 72h86M147 61h33M189.625 61h25.125"/><path fill="#16CA92" d="M137.992 66.896v-1.2a.441.441 0 00-.456-.456h-3.648v-3.648a.441.441 0 00-.456-.456h-1.176a.441.441 0 00-.456.456v3.648h-3.672a.441.441 0 00-.456.456v1.2c0 .264.192.456.456.456h3.672V71c0 .264.192.456.456.456h1.176a.441.441 0 00.456-.456v-3.648h3.648a.441.441 0 00.456-.456z"/><path stroke="#E3E3E2" stroke-linecap="round" stroke-width="4" d="M147 101h98M147 90h33M189.625 90h15.125"/><path fill="#16CA92" d="M137.992 95.896v-1.2a.441.441 0 00-.456-.456h-3.648v-3.648a.441.441 0 00-.456-.456h-1.176a.441.441 0 00-.456.456v3.648h-3.672a.441.441 0 00-.456.456v1.2c0 .264.192.456.456.456h3.672V100c0 .264.192.456.456.456h1.176a.441.441 0 00.456-.456v-3.648h3.648a.441.441 0 00.456-.456z"/><path fill="#0A4133" d="M129.864 135.736c0 3.744 2.97 6.48 6.66 6.48 1.998 0 3.78-.864 4.986-2.286l-1.512-1.314c-.846.99-2.088 1.566-3.474 1.566-2.52 0-4.428-1.89-4.428-4.446s1.908-4.464 4.428-4.464c1.386 0 2.592.576 3.438 1.53l1.53-1.314c-1.224-1.386-2.97-2.25-4.968-2.25-3.69 0-6.66 2.754-6.66 6.498zm12.546 1.728c0 2.718 2.196 4.806 4.95 4.806 2.736 0 4.95-2.088 4.95-4.806s-2.214-4.806-4.95-4.806c-2.754 0-4.95 2.088-4.95 4.806zm2.142 0c0-1.602 1.206-2.844 2.808-2.844 1.584 0 2.808 1.242 2.808 2.844 0 1.602-1.224 2.844-2.808 2.844-1.602 0-2.808-1.242-2.808-2.844zm9.521 4.536h2.142v-5.22c0-1.242.882-2.106 2.106-2.106 1.224 0 1.926.792 1.926 2.016V142h2.16v-5.616c0-2.232-1.26-3.636-3.438-3.636-1.314 0-2.34.612-2.754 1.476v-1.296h-2.142V142zm9.703-1.602c.558 1.08 1.854 1.836 3.744 1.836 2.592 0 3.726-1.314 3.726-2.88 0-1.314-.756-2.106-2.43-2.7-1.53-.558-2.286-.648-2.286-1.332 0-.486.414-.81 1.098-.81.99 0 1.602.342 1.98.792l1.206-1.278c-.63-.792-1.638-1.368-3.15-1.368-1.728 0-3.204.972-3.204 2.718 0 1.386.9 2.07 2.232 2.556 1.404.504 2.484.684 2.484 1.44 0 .468-.378.99-1.62.99-1.17 0-2.016-.522-2.394-1.134l-1.386 1.17zM130.53 42h2.25v-4.392h2.538c2.088 0 4.086-1.674 4.086-4.068 0-2.538-2.088-4.086-4.086-4.086h-4.788V42zm2.25-6.426v-4.086h2.43c.9 0 1.962.63 1.962 2.052 0 1.386-1.062 2.034-1.962 2.034h-2.43zM141.242 42h2.142v-4.77c0-1.494.954-2.43 2.448-2.43.342 0 .648.036.9.09v-2.088a4.594 4.594 0 00-.648-.054c-1.296 0-2.268.594-2.7 1.53v-1.35h-2.142V42zm6.283-4.536c0 2.718 2.196 4.806 4.95 4.806 2.736 0 4.95-2.088 4.95-4.806s-2.214-4.806-4.95-4.806c-2.754 0-4.95 2.088-4.95 4.806zm2.142 0c0-1.602 1.206-2.844 2.808-2.844 1.584 0 2.808 1.242 2.808 2.844 0 1.602-1.224 2.844-2.808 2.844-1.602 0-2.808-1.242-2.808-2.844zm8.678 2.934c.558 1.08 1.854 1.836 3.744 1.836 2.592 0 3.726-1.314 3.726-2.88 0-1.314-.756-2.106-2.43-2.7-1.53-.558-2.286-.648-2.286-1.332 0-.486.414-.81 1.098-.81.99 0 1.602.342 1.98.792l1.206-1.278c-.63-.792-1.638-1.368-3.15-1.368-1.728 0-3.204.972-3.204 2.718 0 1.386.9 2.07 2.232 2.556 1.404.504 2.484.684 2.484 1.44 0 .468-.378.99-1.62.99-1.17 0-2.016-.522-2.394-1.134l-1.386 1.17z"/><path stroke="#E3E3E2" stroke-linecap="round" stroke-width="4" d="M149 170h95M149 159h33M191.625 159h15.125"/><path fill="#16CA92" d="M135.456 165.952v-1.392a.441.441 0 00-.456-.456h-4.728a.441.441 0 00-.456.456v1.392c0 .264.192.456.456.456H135a.441.441 0 00.456-.456z"/><path stroke="#E3E3E2" stroke-linecap="round" stroke-width="4" d="M149 200h60M149 189h33M191.625 189h25.125"/><path fill="#16CA92" d="M135.456 195.952v-1.392a.441.441 0 00-.456-.456h-4.728a.441.441 0 00-.456.456v1.392c0 .264.192.456.456.456H135a.441.441 0 00.456-.456z"/><defs><filter id="filter0_d" width="158.107" height="234.382" x=".509" y="14.361" color-interpolation-filters="sRGB" filterUnits="userSpaceOnUse"><feFlood flood-opacity="0" result="BackgroundImageFix"/><feColorMatrix in="SourceAlpha" values="0 0 0 0 0 0 0 0 0 0 0 0 0 0 0 0 0 0 127 0"/><feOffset dy="9.652"/><feGaussianBlur stdDeviation="7.746"/><feColorMatrix values="0 0 0 0 0 0 0 0 0 0 0 0 0 0 0 0 0 0 0.2 0"/><feBlend in2="BackgroundImageFix" result="effect1_dropShadow"/><feBlend in="SourceGraphic" in2="effect1_dropShadow" result="shape"/></filter><filter id="filter1_d" width="207.12" height="258.12" x="86.94" y=".57" color-interpolation-filters="sRGB" filterUnits="userSpaceOnUse"><feFlood flood-opacity="0" result="BackgroundImageFix"/><feColorMatrix in="SourceAlpha" values="0 0 0 0 0 0 0 0 0 0 0 0 0 0 0 0 0 0 127 0"/><feOffset dy="10.63"/><feGaussianBlur stdDeviation="8.53"/><feColorMatrix values="0 0 0 0 0 0 0 0 0 0 0 0 0 0 0 0 0 0 0.2 0"/><feBlend in2="BackgroundImageFix" result="effect1_dropShadow"/><feBlend in="SourceGraphic" in2="effect1_dropShadow" result="shape"/></filter></defs></svg>