<svg width="48" height="48" viewBox="0 0 48 48" fill="none" xmlns="http://www.w3.org/2000/svg">
<mask id="mask0_15885_34854" style="mask-type:alpha" maskUnits="userSpaceOnUse" x="0" y="0" width="48" height="48">
<path d="M48 0H0V48H48V0Z" fill="#225447"/>
</mask>
<g mask="url(#mask0_15885_34854)">
<path d="M48 0H0V48H48V0Z" fill="#49665D"/>
<path d="M42.1303 39.3587L42.1303 39.3587L42.1315 39.356C42.2058 39.1862 42.3463 39.0304 42.5139 38.9168C42.682 38.8029 42.868 38.7377 43.0275 38.7377H55.1851C55.3474 38.7377 55.4417 38.8017 55.4846 38.8846C55.5296 38.9714 55.5326 39.1063 55.4522 39.2726L55.4518 39.2733L50.9314 48.8258L50.9313 48.8257L50.9301 48.8284C50.8559 48.9982 50.7153 49.154 50.5477 49.2676C50.3796 49.3815 50.1936 49.4467 50.0342 49.4467H37.8765C37.7212 49.4467 37.6258 49.3834 37.581 49.299C37.5347 49.2116 37.5296 49.0768 37.6095 48.9119L37.6098 48.9111L42.1303 39.3587Z" fill="#16CA92" stroke="#16CA92" stroke-width="0.199504"/>
<path d="M43.7051 0.0997522L0.0997522 47.7433V0.0997522H43.7051Z" fill="#16CA92" stroke="#16CA92" stroke-width="0.199504"/>
<path d="M31.869 -5.05579C31.6073 -5.05579 31.2385 -4.84166 31.0482 -4.57995L-11.6224 56.3628C-11.8128 56.6245 -11.7414 56.8386 -11.4797 56.8386H4.00878C4.27049 56.8386 4.63926 56.6245 4.8296 56.3628L47.5002 -4.57995C47.6906 -4.84166 47.6192 -5.05579 47.3575 -5.05579H31.869Z" fill="white"/>
</g>
</svg>
