<svg xmlns="http://www.w3.org/2000/svg" width="55" height="55" fill="none"><g clip-path="url(#a)"><path fill="#171717" d="M27.5 7.734c.948 0 1.719.771 1.719 1.719a.86.86 0 1 0 1.718 0c0-1.599-1.1-2.93-2.578-3.315v-.982a.86.86 0 1 0-1.718 0v.982c-1.478.384-2.578 1.716-2.578 3.315A3.442 3.442 0 0 0 27.5 12.89c.948 0 1.719.772 1.719 1.72 0 .947-.771 1.718-1.719 1.718a1.721 1.721 0 0 1-1.719-1.719.86.86 0 1 0-1.718 0c0 1.598 1.1 2.93 2.578 3.315v.982a.86.86 0 1 0 1.718 0v-.982c1.478-.384 2.578-1.719 2.578-3.315a3.442 3.442 0 0 0-3.437-3.437 1.72 1.72 0 0 1-1.719-1.72c0-.947.771-1.718 1.719-1.718Z"/><path fill="#000" d="M35.234 12.031c0 1.146-1.718 1.146-1.718 0 0-1.145 1.718-1.145 1.718 0ZM21.484 12.031c0 1.146-1.718 1.146-1.718 0 0-1.145 1.718-1.145 1.718 0Z"/><path fill="#16CA92" d="M27.501 23.203c2.327 0 4.563-.717 6.467-2.073a.86.86 0 0 0-.997-1.4 9.368 9.368 0 0 1-5.47 1.755c-5.212 0-9.453-4.241-9.453-9.454 0-5.212 4.24-9.453 9.453-9.453 5.213 0 9.454 4.24 9.454 9.453a9.38 9.38 0 0 1-1.754 5.47.86.86 0 0 0 1.401.997 11.104 11.104 0 0 0 2.071-6.467C38.673 5.871 33.661.86 27.502.86 21.342.86 16.33 5.872 16.33 12.03c0 6.16 5.012 11.172 11.172 11.172H27.5Z"/><path fill="#000" d="M52.41 42.827a.858.858 0 0 0-.847-.718h-4.428l-1.598-9.594a.862.862 0 0 0-.849-.718H12.032a.858.858 0 0 0-.847.718l-1.6 9.594H3.438a.858.858 0 0 0-.846.718L.872 53.14a.86.86 0 0 0 .847 1h51.563a.86.86 0 0 0 .847-1.001l-1.72-10.312Zm-39.65-9.311h8.856l1.433 8.593H11.328l1.432-8.593Zm17.45 10.312 1.433 8.594H19.922l1.433-8.594h8.855ZM18.18 52.422h-1.981l-1.433-8.594h4.847l-1.433 8.594ZM4.167 43.828h8.856l1.433 8.594H2.734l1.433-8.594Zm29.218 8.594-1.433-8.594h1.564a.86.86 0 1 0 0-1.719h-8.724l-1.433-8.593H43.96l1.433 8.593h-8.44a.86.86 0 1 0 0 1.719h13.882l1.433 8.594H33.385ZM42.11 19.766c.442 0 .852-.122 1.218-.32a20.624 20.624 0 0 1 4.78 14.034.86.86 0 0 0 .825.894h.034a.86.86 0 0 0 .86-.826 22.345 22.345 0 0 0-5.33-15.396c.12-.298.19-.622.19-.964a2.58 2.58 0 0 0-2.578-2.578 2.58 2.58 0 0 0-2.578 2.578 2.58 2.58 0 0 0 2.578 2.578Zm0-3.438a.86.86 0 0 1 0 1.72.86.86 0 0 1 0-1.72Z"/><path fill="#000" d="M6.018 38.672a2.58 2.58 0 0 0 2.578-2.578c0-1.105-.7-2.041-1.678-2.407-.017-.343-.041-.687-.041-1.03 0-5.368 2.05-10.45 5.775-14.314a.861.861 0 0 0-.022-1.216.863.863 0 0 0-1.216.022 22.234 22.234 0 0 0-6.256 15.507c0 .335.026.67.039 1.006a2.57 2.57 0 0 0-1.758 2.432 2.58 2.58 0 0 0 2.579 2.578Zm0-3.438a.86.86 0 0 1 0 1.719.86.86 0 0 1 0-1.719ZM49.478 36.494c0 1.145-1.718 1.145-1.718 0s1.718-1.145 1.718 0ZM15.469 15.469c0 1.145-1.719 1.145-1.719 0s1.719-1.145 1.719 0Z"/></g><defs><clipPath id="a"><path fill="#fff" d="M0 0h55v55H0z"/></clipPath></defs></svg>