<svg width="52" height="46" viewBox="0 0 52 46" fill="none" xmlns="http://www.w3.org/2000/svg">
<path d="M4.30806 23.9228C0.615748 17.9228 -0.615021 11.4613 4.76959 6.07666C7.38498 3.46128 10.9234 2.07666 14.4619 2.07666C26.1542 2.07666 24.1542 9.92281 25.5388 11.4613C27.0773 9.92281 25.0773 2.07666 36.6157 2.07666C40.1542 2.07666 43.5388 3.46128 46.3081 6.07666C59.385 19.1536 33.385 38.5382 26.9234 42.9997C25.2311 44.2305 25.6927 44.2305 24.0004 42.8459C21.5388 41.1536 16.4619 37.4613 11.8465 32.8459" stroke="#0A4133" stroke-width="2.2" stroke-miterlimit="22.9256" stroke-linecap="round" stroke-linejoin="round"/>
<path d="M1.07715 27.9225H11.6925L14.4618 11.3071L17.6925 27.9225H22.1541L24.9233 35.7687C27.3848 28.9994 29.0771 24.6917 31.231 17.461L34.3079 27.9225C38.1541 27.9225 39.6925 27.9225 43.5387 27.9225" stroke="#16CA92" stroke-width="2.1" stroke-miterlimit="22.9256" stroke-linecap="round" stroke-linejoin="round"/>
</svg>
