<svg width="59" height="47" fill="none" xmlns="http://www.w3.org/2000/svg"><path clip-rule="evenodd" d="M5.929 39.224H56.88v-.02H5.929v.02ZM31.404 1 17.477 14.927l2.771 2.772L31.404 6.544l11.155 11.155 2.771-2.772L31.404 1Z" stroke="#0A4133" stroke-width="1.9" stroke-linecap="round" stroke-linejoin="round"/><path clip-rule="evenodd" d="m44.351 13.948.98.98-2.772 2.77-2.337-2.337v23.853H53.94V13.948h-9.589ZM17.478 14.927l.955-.954H8.868v25.266h13.718V15.362L20.249 17.7l-2.771-2.772ZM57.86 13.948l-7.453-9.414h-15.47l9.414 9.414H57.86ZM12.402 4.56l-7.454 9.413h13.484l9.413-9.414H12.402Z" stroke="#0A4133" stroke-width="1.9" stroke-linecap="round" stroke-linejoin="round"/><path clip-rule="evenodd" d="M22.585 15.362v23.852h17.637V15.362l-8.818-8.819-8.819 8.819Z" stroke="#0A4133" stroke-width="1.9" stroke-linecap="round" stroke-linejoin="round"/><path clip-rule="evenodd" d="M13.277 26.686h4.9v-5.88h-4.9v5.88ZM44.633 26.686h4.899v-5.88h-4.9v5.88ZM28.465 22.222h5.879v-5.88h-5.88v5.88ZM27.975 39.214h6.859v-9.798h-6.86v9.798Z" stroke="#0A4133" stroke-width="2" stroke-linecap="round" stroke-linejoin="round"/><path fill-rule="evenodd" clip-rule="evenodd" d="M1 31.741v4.345c0 4.77 3.263 8.778 7.678 9.914 4.415-1.136 7.678-5.145 7.678-9.914V31.74l-7.677-3.29L1 31.74Z" fill="#fff" stroke="#0A4133" stroke-width="2" stroke-linecap="round" stroke-linejoin="round"/><path clip-rule="evenodd" d="m8.392 39.14-.018-.017-2.327-2.328.036-.036 2.31 2.308 3.757-3.757.037.037-3.795 3.794Z" stroke="#16CA92" stroke-width="2" stroke-linecap="round" stroke-linejoin="round"/></svg>