<svg width="58" height="44" fill="none" xmlns="http://www.w3.org/2000/svg"><path d="M18.583 44h30.583a.92.92 0 00.916-.911V22.822a.92.92 0 00-.916-.911.92.92 0 00-.916.91v19.357H19.498V22.822a.92.92 0 00-.916-.911.92.92 0 00-.917.91V43.09c0 .498.416.91.917.91z" fill="#225447"/><path d="M30.557 44h6.659a.92.92 0 00.916-.911V32.172a.92.92 0 00-.916-.91h-6.66a.92.92 0 00-.916.91v10.917c0 .498.404.91.917.91zm5.73-1.822h-4.826v-9.095h4.826v9.095zM30.557 28.359h6.659a.92.92 0 00.916-.911v-5.453a.92.92 0 00-.916-.91h-6.66a.92.92 0 00-.916.91v5.453c0 .498.404.91.917.91zm5.73-1.822h-4.826v-3.63h4.826v3.63z" fill="#16CA92"/><path d="M5.399 44h51.685a.92.92 0 00.916-.911.92.92 0 00-.916-.91H5.399a.92.92 0 00-.917.91c0 .498.416.91.917.91z" fill="#225447"/><path d="M54.457 43.696a.909.909 0 00.647-.267 3.444 3.444 0 001.027-2.453c0-1.542-1.039-2.878-2.456-3.315a3.113 3.113 0 00-3.006-2.332c-.672 0-1.32.219-1.857.62a.907.907 0 00-.184 1.275.92.92 0 001.283.182c.22-.17.489-.255.758-.255.696 0 1.27.558 1.27 1.25v.025c0 .474.367.874.844.91.855.074 1.527.79 1.527 1.652 0 .437-.171.862-.489 1.166a.912.912 0 000 1.287.91.91 0 00.636.255z" fill="#225447"/><path d="M52.086 40.77a.91.91 0 00.513-.159c.501-.34 1.308-1.238 1.161-2.513a.912.912 0 00-1.026-.79.91.91 0 00-.794 1.02c.06.474-.355.777-.367.777a.91.91 0 00.513 1.664zM12.18 43.696a.91.91 0 00.648-1.554 2.214 2.214 0 01-.66-1.591c0-1.166.904-2.137 2.077-2.234a.915.915 0 00.843-.911v-.024a1.773 1.773 0 012.835-1.397.92.92 0 001.283-.182.907.907 0 00-.184-1.275 3.622 3.622 0 00-5.694 2.113c-1.734.486-2.993 2.076-2.993 3.922 0 1.08.428 2.113 1.197 2.878.184.158.416.255.648.255zM13.585 27.023c.196 0 .391-.06.562-.194L33.93 11.625 53.528 26.83c.403.303.977.243 1.283-.158a.904.904 0 00-.159-1.275l-20.16-15.64a.922.922 0 00-1.125 0l-20.344 15.64a.893.893 0 00-.159 1.275c.184.23.452.352.721.352z" fill="#225447"/><path d="M7.794 20.976c.476 0 .88-.364.916-.85a.921.921 0 00-.855-.972c-2.762-.182-4.876-2.562-4.692-5.306a5.022 5.022 0 014.35-4.627c.44-.06.77-.413.794-.862V8.249c.207-3.193 2.993-5.634 6.219-5.416a5.81 5.81 0 015.437 5.234c.025.304.208.571.477.717a.926.926 0 00.855.012 4.957 4.957 0 012.603-.534 5.045 5.045 0 013.458 1.688 4.887 4.887 0 011.234 3.618.92.92 0 00.855.972c.5.036.94-.352.977-.85a6.73 6.73 0 00-1.686-4.943A6.838 6.838 0 0024.02 6.44a6.82 6.82 0 00-2.432.28c-.806-3.158-3.568-5.49-6.94-5.708-4.02-.255-7.539 2.623-8.1 6.521-2.872.692-5.023 3.194-5.218 6.181-.245 3.752 2.627 7.007 6.402 7.25a.11.11 0 00.062.012z" fill="#225447"/><path d="M22.163 13.143a.92.92 0 00.843-.546 4.114 4.114 0 00.06-3.206 4.177 4.177 0 00-2.248-2.307c-2.138-.923-4.63.048-5.559 2.173a.91.91 0 00.476 1.203.92.92 0 001.21-.474 2.39 2.39 0 013.14-1.227 2.356 2.356 0 011.271 1.312c.232.595.22 1.239-.037 1.822a.91.91 0 00.477 1.202c.122.024.244.048.367.048zM5.228 25.858c.696 0 1.38-.17 2.003-.51.44-.243.611-.79.367-1.24a.924.924 0 00-1.246-.363c-1.161.619-2.615.194-3.238-.96a2.37 2.37 0 01.965-3.218c.44-.243.611-.79.367-1.238a.924.924 0 00-1.247-.365C1.147 19.07.39 21.62 1.501 23.648c.538.983 1.43 1.7 2.505 2.027.403.122.806.183 1.222.183zM13.084 38.499a.92.92 0 00.917-.911v-14.39a7.943 7.943 0 00-1.308-4.372c-.012-.024-.036-.048-.06-.085L9.7 15.171a.93.93 0 00-1.295-.133.916.916 0 00-.135 1.287l2.896 3.534c.647.995.977 2.161.977 3.339V37.6a.94.94 0 00.941.899z" fill="#225447"/><path d="M9.944 30.436c1.32 0 2.566-.51 3.507-1.445a.912.912 0 000-1.288.926.926 0 00-1.295 0c-.587.583-1.381.911-2.212.911-1.723 0-3.128-1.396-3.128-3.109a.92.92 0 00-.916-.91.92.92 0 00-.917.91c0 2.72 2.224 4.93 4.961 4.93zM16.751 19.873a.635.635 0 00.549-.303l1.507-2.337a.654.654 0 00-.2-.9.663.663 0 00-.906.199l-1.507 2.346a.654.654 0 00.2.9.67.67 0 00.357.095z" fill="#225447"/></svg>