<svg xmlns="http://www.w3.org/2000/svg" width="50" height="50" viewBox="0 0 50 50" fill="none">
    <path fill-rule="evenodd" clip-rule="evenodd" d="M38.0345 18.1007C38.5312 18.1199 38.9183 18.5382 38.899 19.0349L38.5856 27.1288C38.5664 27.6255 38.1482 28.0125 37.6515 27.9933C37.1548 27.9741 36.7677 27.5558 36.787 27.0592L37.0163 21.1364L25.4517 31.8388L18.3181 23.8405L5.61268 35.659L4.38672 34.3411L18.438 21.2707L25.5747 29.2724L35.7937 19.8153L29.8709 19.586C29.3743 19.5667 28.9872 19.1485 29.0064 18.6518C29.0257 18.1551 29.4439 17.7681 29.9406 17.7873L38.0345 18.1007Z" fill="#16CA92"/>
    <path fill-rule="evenodd" clip-rule="evenodd" d="M25 46.2C36.7084 46.2 46.2 36.7084 46.2 25C46.2 13.2916 36.7084 3.8 25 3.8C13.2916 3.8 3.8 13.2916 3.8 25C3.8 36.7084 13.2916 46.2 25 46.2ZM25 48C37.7025 48 48 37.7025 48 25C48 12.2975 37.7025 2 25 2C12.2975 2 2 12.2975 2 25C2 37.7025 12.2975 48 25 48Z" fill="#225447"/>
</svg>