<svg width="43" height="44" viewBox="0 0 43 44" fill="none" xmlns="http://www.w3.org/2000/svg">
<path d="M22.9284 3.97952C17.6892 -1.32216 9.16622 -1.32795 3.92945 3.97082C-1.30982 9.2725 -1.30982 17.8999 3.92945 23.202C7.96627 27.2899 13.9698 28.3386 19.0835 25.9225L21.7861 28.3937L22.8254 30.9258C22.9629 31.256 23.252 31.4965 23.6013 31.566L26.1351 32.073L26.6017 34.6427C26.6819 35.0744 27.0111 35.4163 27.4406 35.5002L29.9714 36.0072L30.4381 38.574C30.5183 39.0086 30.8475 39.3476 31.2769 39.4345L33.8078 39.9415L34.2745 42.5112C34.369 43.0211 34.807 43.3919 35.3195 43.3919H35.3281L41.9444 43.3456C42.2508 43.3427 42.5428 43.2065 42.7432 42.9718C42.9436 42.7372 43.0324 42.4272 42.9894 42.1172L42.1706 36.3085C42.1362 36.0797 42.0332 35.8653 41.87 35.7001L25.6371 19.2739C27.9991 14.1113 26.9541 8.05628 22.9287 3.98012L22.9284 3.97952ZM40.1149 36.9685L40.7132 41.2041L36.204 41.2359L35.766 38.8342C35.6858 38.4025 35.3566 38.0607 34.9272 37.9737L32.3963 37.4668L31.9296 34.8999C31.8494 34.4654 31.5202 34.1264 31.0908 34.0395L28.5599 33.5325L28.0932 30.9628C28.0131 30.5311 27.6838 30.1892 27.2544 30.1053L24.5717 29.5664L23.6584 27.3414C23.5983 27.1937 23.5067 27.0633 23.3893 26.9561L19.9737 23.8302C19.6416 23.526 19.1549 23.468 18.7598 23.6795C14.3394 26.0755 8.9855 25.27 5.43519 21.6776C1.02333 17.2132 1.02333 9.95052 5.43519 5.48573C9.8442 1.0271 17.0191 1.02999 21.4277 5.49443C24.9749 9.08391 25.7709 14.5041 23.406 18.9778C23.1856 19.395 23.26 19.9107 23.5921 20.2438L40.1149 36.9685Z" fill="#0A4133"/>
<path d="M8.37935 8.47311C6.24352 10.6344 6.23495 14.1485 8.36503 16.3065C9.43291 17.39 10.8387 17.9289 12.2416 17.9289C13.6473 17.9289 15.0501 17.3871 16.1181 16.3065C18.2481 14.1511 18.2424 10.6369 16.1038 8.47311C13.9708 6.31184 10.5152 6.30895 8.37945 8.47311H8.37935ZM14.6178 14.7859C13.3094 16.1099 11.1765 16.1128 9.86807 14.7859C8.56544 13.4677 8.57115 11.318 9.88239 9.99411C11.1879 8.67306 13.298 8.6701 14.6063 9.99411C15.9118 11.3181 15.9176 13.4677 14.6178 14.7859H14.6178Z" fill="#16CA92"/>
<rect width="9.02055" height="6.05791" transform="matrix(0.89757 -0.440871 0.432509 0.901629 27 36.3584)" fill="white"/>
</svg>
