<svg width="45" height="39" viewBox="0 0 45 39" fill="none" xmlns="http://www.w3.org/2000/svg">
<path d="M32.1652 35.6637C31.9314 35.6637 31.6977 35.5858 31.4639 35.5078L14.6348 26.6258L15.336 25.2233L32.1652 34.1054L43.073 3.71939L2.55826 18.5228L10.1158 22.4964L38.6347 6.98213C39.0214 6.77174 39.5055 6.91237 39.7193 7.29723V7.29723C39.9358 7.68691 39.7931 8.17834 39.4015 8.39144L10.1937 24.2884L1.85704 19.9253C1.31165 19.6915 1 19.1461 1 18.5228C1 17.8995 1.38956 17.2762 2.01287 17.0425L42.5276 2.23905C42.6834 2.16113 42.9171 2.16113 43.073 2.16113C43.93 2.16113 44.6312 2.86235 44.6312 3.71939C44.6312 3.87522 44.6312 4.10895 44.5533 4.26478L33.6455 34.6508C33.4118 35.2741 32.7885 35.6637 32.1652 35.6637Z" fill="#0A4133" stroke="#0A4133" stroke-width="0.5"/>
<path d="M33.3086 1.26696L24.1596 4.60457C23.7554 4.75204 23.5473 5.19927 23.6947 5.6035C23.8422 6.00772 24.2894 6.21587 24.6937 6.0684L33.8426 2.73079C34.2468 2.58332 34.4549 2.13609 34.3075 1.73187C34.16 1.32764 33.7128 1.11949 33.3086 1.26696Z" fill="#16CA92" stroke="#16CA92" stroke-width="0.6"/>
<path d="M20.9923 5.80386L20.9192 5.83064C20.5151 5.97851 20.3073 6.42598 20.4552 6.83008C20.603 7.23419 21.0504 7.4419 21.4545 7.29403L21.5277 7.26725C21.9317 7.11938 22.1395 6.67191 21.9917 6.26781C21.8438 5.8637 21.3964 5.65599 20.9923 5.80386Z" fill="#16CA92" stroke="#16CA92" stroke-width="0.6"/>
<path d="M13.8561 38C12.9211 38 12.142 37.3767 11.9862 36.4418L9.41504 23.5861L10.9733 23.2745L13.4665 36.1301C13.4665 36.2859 13.6223 36.4418 13.8561 36.4418C14.0898 36.4418 14.2456 36.2859 14.2456 36.0522V25.534L27.759 16.4013C28.1251 16.1539 28.6229 16.2554 28.8629 16.6263V16.6263C29.0962 16.9868 28.9983 17.4676 28.6426 17.7082L15.8039 26.391V36.0522C15.8039 37.143 14.9469 38 13.8561 38Z" fill="#0A4133" stroke="#0A4133" stroke-width="0.5"/>
<path d="M21.7325 29.229L14.085 36.3357L15.1457 37.4771L22.7932 30.3704L21.7325 29.229Z" fill="#0A4133" stroke="#0A4133" stroke-width="0.5"/>
</svg>
