<svg width="24" height="25" fill="none" xmlns="http://www.w3.org/2000/svg"><path fill-rule="evenodd" clip-rule="evenodd" d="M1.043 15.6c-.2 0-.384-.13-.444-.331A11.475 11.475 0 0 1 .143 12c0-6.617 5.384-12 12-12 2.643 0 5.153.844 7.262 2.44a.464.464 0 0 1-.56.739A11.02 11.02 0 0 0 12.143.927C6.038.927 1.071 5.894 1.071 12c0 1.062.14 2.072.417 3.004a.464.464 0 0 1-.445.597" fill="#225447"/><path fill-rule="evenodd" clip-rule="evenodd" d="M3.682 7.52a.462.462 0 0 1-.398-.701A10.205 10.205 0 0 1 12 1.875c2.66 0 5.282 1.083 7.198 2.97a.464.464 0 0 1-.65.66C16.804 3.789 14.418 2.804 12 2.804a9.272 9.272 0 0 0-7.92 4.492.463.463 0 0 1-.398.226" fill="#225447"/><path fill-rule="evenodd" clip-rule="evenodd" d="M22.037 7.439a.466.466 0 0 1-.098-.01l-4.064-.873a.463.463 0 0 1-.235-.777l.9-.927a.464.464 0 0 1 .666.647l-.317.326 2.525.542-.593-2.474-.343.333a.464.464 0 0 1-.647-.665l.928-.9a.464.464 0 0 1 .774.225l.955 3.981a.467.467 0 0 1-.451.572" fill="#225447"/><mask id="a" style="mask-type:alpha" maskUnits="userSpaceOnUse" x="4" y="8" width="20" height="17"><path fill-rule="evenodd" clip-rule="evenodd" d="M4.554 8.448H24v15.6H4.554v-15.6Z" fill="#fff"/></mask><g mask="url(#a)"><path fill-rule="evenodd" clip-rule="evenodd" d="M12 24.047c-2.605 0-5.184-.865-7.262-2.439a.464.464 0 1 1 .56-.738A11.17 11.17 0 0 0 12 23.12c6.105 0 11.073-4.967 11.073-11.072 0-1.062-.141-2.073-.417-3.004a.463.463 0 1 1 .889-.264 11.49 11.49 0 0 1 .454 3.268c0 6.617-5.383 12-11.999 12" fill="#225447"/></g><path fill-rule="evenodd" clip-rule="evenodd" d="M12 22.22c-2.659 0-5.282-1.082-7.198-2.97a.463.463 0 1 1 .651-.66c1.744 1.718 4.13 2.704 6.547 2.704a9.277 9.277 0 0 0 7.92-4.493.462.462 0 1 1 .795.475A10.205 10.205 0 0 1 12 22.22" fill="#225447"/><path fill-rule="evenodd" clip-rule="evenodd" d="M2.946 21.593a.464.464 0 0 1-.45-.353l-.983-4.01a.464.464 0 0 1 .55-.562l4.091.9a.462.462 0 0 1 .224.785l-.927.9a.464.464 0 0 1-.646-.665l.309-.3-2.523-.555.605 2.472.317-.326a.464.464 0 0 1 .665.646l-.9.928a.463.463 0 0 1-.332.14" fill="#225447"/><path fill-rule="evenodd" clip-rule="evenodd" d="M12 12.511c-1.728 0-3.082-.958-3.082-2.181 0-1.203 1.383-2.182 3.082-2.182 1.7 0 3.082.979 3.082 2.182a.463.463 0 1 1-.927 0c0-.594-.885-1.255-2.155-1.255-1.27 0-2.154.661-2.154 1.255 0 .68.986 1.254 2.154 1.254a.464.464 0 0 1 0 .928" fill="#16CA92"/><path fill-rule="evenodd" clip-rule="evenodd" d="M12 15.947c-1.728 0-3.082-.957-3.082-2.18a.463.463 0 1 1 .928 0c0 .679.986 1.254 2.154 1.254s2.155-.575 2.155-1.255c0-.68-.987-1.254-2.155-1.254a.464.464 0 0 1 0-.928c1.729 0 3.082.959 3.082 2.182 0 1.224-1.353 2.181-3.082 2.181M12 9.075a.464.464 0 0 1-.464-.463V7.166a.464.464 0 0 1 .928 0v1.446a.464.464 0 0 1-.464.463" fill="#16CA92"/><path fill-rule="evenodd" clip-rule="evenodd" d="M12 17.393a.463.463 0 0 1-.464-.463v-1.446a.463.463 0 1 1 .928 0v1.446a.463.463 0 0 1-.464.463" fill="#16CA92"/></svg>