<svg width="47" height="47" viewBox="0 0 47 47" fill="none" xmlns="http://www.w3.org/2000/svg">
<path d="M20.8409 13.8003V14.448C20.8409 14.6004 20.9538 14.6766 21.0668 14.6766H21.368C21.5186 14.6766 21.5939 14.5623 21.5939 14.448V13.7623C22.761 13.6099 23.7022 12.8479 23.7022 11.4764C23.7022 9.8382 22.7233 9.30483 21.4433 8.96195C20.7656 8.77147 20.3514 8.50478 20.3514 7.97142C20.3514 7.28566 20.8032 7.05707 21.4056 7.05707C22.1962 7.05707 22.6104 7.47615 22.9116 7.70473C23.0245 7.78093 23.1375 7.85712 23.2504 7.85712C23.401 7.85712 23.514 7.74283 23.514 7.55234V6.75229C23.514 6.48561 23.401 6.33322 23.1751 6.18083C22.8739 5.99034 22.3845 5.79985 21.6315 5.72366V5.076C21.6315 4.92361 21.5186 4.84741 21.4056 4.84741H21.1044C20.9538 4.84741 20.8785 4.96171 20.8785 5.076V5.72366C19.7491 5.83795 18.7702 6.52371 18.7702 7.93332C18.7702 9.38103 19.7867 9.99059 20.8785 10.2573C21.6692 10.4859 22.1209 10.7525 22.1209 11.4002C22.1209 12.1622 21.5562 12.3907 20.9915 12.3907C20.2761 12.3907 19.6738 12.0098 19.2596 11.7431C19.1467 11.6669 19.0337 11.5907 18.9208 11.5907C18.7702 11.5907 18.6572 11.705 18.6572 11.8955V12.5812C18.6572 12.8479 18.7702 13.0003 19.0337 13.1908C19.2596 13.4575 19.8996 13.7242 20.8409 13.8003Z" fill="#47B386"/>
<path d="M2.88246 24.4681C2.80716 24.3157 2.95776 24.0871 3.0707 23.9348C3.2213 23.7062 3.3719 23.6681 3.48484 23.6681C3.52249 23.6681 3.52249 23.6681 3.56014 23.6681C3.86134 23.7062 4.27548 24.0491 4.50137 24.6205C4.53902 24.7729 4.61432 24.9634 4.65197 25.2682C3.74839 25.0396 3.03305 24.7729 2.88246 24.4681ZM38.3856 17.0391C38.1221 19.2488 37.4444 21.1155 36.7667 21.5346C35.9761 21.9918 34.2065 22.068 32.8512 21.0774C31.4958 20.0869 31.044 18.2582 31.5335 15.8581C31.5711 15.6295 31.7594 15.4009 31.9852 15.2866C35.2984 13.7627 37.2185 13.2674 37.8962 13.2674C38.0091 13.2674 38.0844 13.2674 38.1221 13.3055C38.348 13.496 38.6491 14.7913 38.3856 17.0391ZM44.673 24.9634L42.8282 24.3538C42.6023 24.2776 42.4141 24.0871 42.3388 23.8205C41.9623 22.5632 41.3599 21.3822 40.5693 20.3155C40.2304 19.8202 39.8163 19.363 39.4021 18.9059C39.6657 17.6868 39.8163 16.3152 39.8163 15.1342C39.7786 13.4198 39.4398 12.4293 38.7997 12.0864C38.4609 11.8959 37.3691 11.3245 31.4582 14.0675C31.3076 14.1437 31.1946 14.2199 31.0817 14.2961C30.6675 14.1818 30.291 14.1056 29.8769 13.9913C29.8392 13.9913 29.7639 13.9532 29.7263 13.9532C30.2157 12.8865 30.4793 11.7435 30.5169 10.5625C30.5169 10.1815 30.2534 9.87674 29.8769 9.87674C29.5004 9.87674 29.1992 10.1434 29.1992 10.5244C29.1239 12.4674 28.3333 14.2961 26.9403 15.6676C26.112 16.5057 25.1708 17.0772 24.1542 17.4582C22.3847 17.1915 20.6152 17.1915 18.8457 17.4582C17.8292 17.0772 16.8879 16.4676 16.0597 15.6676C14.5913 14.1818 13.8007 12.2388 13.8007 10.1434C13.8007 8.04806 14.5913 6.10508 16.0597 4.61927C17.528 3.13347 19.4481 2.33342 21.5188 2.33342C23.5895 2.33342 25.5096 3.13347 26.9779 4.61927C27.5803 5.22883 28.0321 5.87649 28.4086 6.63845C28.5592 6.98132 28.9733 7.09562 29.3122 6.94323C29.651 6.79084 29.7639 6.37176 29.6134 6.02888C29.1992 5.15264 28.6345 4.39069 27.9191 3.66683C26.2249 1.95244 23.966 1 21.5564 1C19.0716 1.0381 16.8126 1.99054 15.0808 3.70493C13.3866 5.41932 12.4453 7.70518 12.4453 10.1434C12.4453 12.5817 13.3866 14.8675 15.0808 16.5819C15.5702 17.0772 16.0973 17.4963 16.662 17.8772C16.2479 17.9915 15.8338 18.1058 15.4573 18.2582C15.1184 18.3725 14.9302 18.7535 15.0431 19.0964C15.1561 19.4392 15.5326 19.6297 15.8714 19.5154C19.4857 18.2963 23.4389 18.2963 27.0532 19.5154C27.1285 19.5535 27.2038 19.5535 27.2791 19.5535C27.5426 19.5535 27.8062 19.363 27.9191 19.0964C28.0321 18.7535 27.8438 18.3725 27.505 18.2582C27.0909 18.1058 26.6767 17.9915 26.3002 17.8772C26.865 17.5344 27.3921 17.0772 27.8815 16.5819C28.3333 16.1247 28.7098 15.6676 29.0486 15.1342C29.2369 15.1723 29.4251 15.2104 29.5757 15.2485C29.8016 15.2866 30.0651 15.3628 30.291 15.4009C30.291 15.439 30.291 15.4771 30.2534 15.4771C29.9145 17.0391 29.9522 18.4106 30.3287 19.5535C30.6675 20.5822 31.2323 21.4203 32.0982 22.0299C33.0771 22.7537 34.2818 23.0585 35.336 23.0585C36.1643 23.0585 36.8796 22.868 37.4444 22.5632C38.0468 22.2204 38.5738 21.4584 38.988 20.3155C39.1762 20.5441 39.3645 20.7727 39.5151 21.0012C40.1928 21.9537 40.7198 23.0204 41.0963 24.1252C41.2846 24.7729 41.8117 25.3063 42.4517 25.4968L44.2965 26.1063C44.786 26.2587 45.1248 26.7159 45.1248 27.2493V30.3733C45.1248 30.9066 44.786 31.3638 44.2965 31.5162L41.2846 32.5067C40.7951 32.6591 40.381 33.002 40.1551 33.4592C38.988 35.5164 37.1432 37.2308 34.6583 38.5261C34.3571 38.6785 34.1689 38.9452 34.1312 39.25L33.1524 44.3932C33.1147 44.5456 33.0018 44.6218 32.8512 44.6218H29.7263C29.5757 44.6218 29.4628 44.5075 29.4251 44.3932L28.898 41.5359C28.7851 40.9644 28.258 40.6215 27.7309 40.6977C26.3755 40.8882 25.0202 41.0025 23.6271 41.0025C22.6106 41.0025 21.5941 40.9263 20.6152 40.812C20.0881 40.7358 19.561 41.1168 19.4857 41.6501L18.9963 44.3551C18.9586 44.5075 18.8457 44.5837 18.6951 44.5837H15.5702C15.4196 44.5837 15.3067 44.4694 15.269 44.3551L14.3278 39.5167C14.2525 39.2119 14.0643 38.9452 13.8007 38.7928C9.58401 36.507 7.36271 32.6972 7.36271 27.7826C7.36271 25.3063 7.88979 23.0966 8.94397 21.2298C9.92285 19.5154 11.3912 18.0677 13.236 17.001C13.5372 16.8105 13.6501 16.3914 13.4619 16.0867C13.2736 15.7819 12.8595 15.6676 12.5583 15.8581C8.94397 17.9534 6.76032 21.2298 6.15793 25.3825C6.08263 25.3825 6.04499 25.3825 5.96969 25.3825C5.96969 24.9253 5.89439 24.4681 5.74379 24.0491C5.3673 23.0966 4.57667 22.3728 3.74839 22.2585C3.10835 22.1823 2.46832 22.449 2.01653 23.0204C1.37649 23.8586 1.48944 24.5443 1.67768 24.9253C2.01653 25.6111 2.88246 26.1063 4.27548 26.4111C4.23783 26.4873 4.20018 26.5254 4.16253 26.6016C3.33425 27.6683 2.31772 27.8969 1.67768 27.935C1.30119 27.935 1 28.2398 1 28.6208C1 29.0017 1.30119 29.3065 1.67768 29.3065C1.71533 29.3065 1.79063 29.3065 1.82828 29.3065C2.65656 29.3065 3.93663 29.0017 5.17906 27.4016C5.3673 27.135 5.55555 26.8683 5.66849 26.6016C5.78144 26.6016 5.89439 26.6397 6.04499 26.6397C6.00734 27.0207 6.00734 27.3635 6.00734 27.7445C6.00734 30.5256 6.64737 33.002 7.96509 35.1355C9.16986 37.0784 10.8641 38.6785 13.0477 39.8596L13.9513 44.5837C14.1019 45.3456 14.7796 45.9171 15.5326 45.9171H18.6574C19.4481 45.9171 20.0881 45.3456 20.2387 44.5837L20.6905 42.1454C21.6317 42.2597 22.6106 42.2978 23.6271 42.2978C24.9825 42.2978 26.3379 42.1835 27.6932 42.0311L28.1827 44.6218C28.3333 45.3837 29.011 45.9552 29.7639 45.9552H32.8888C33.6795 45.9552 34.3195 45.3837 34.4701 44.6218L35.4113 39.631C38.0468 38.2214 40.0422 36.3546 41.3222 34.1068C41.3975 33.9544 41.5481 33.8401 41.7364 33.7639L44.7483 32.8115C45.8025 32.4686 46.4802 31.5162 46.4802 30.4114V27.2873C46.4049 26.2968 45.7272 25.3063 44.673 24.9634Z" fill="#0A4133" stroke="#0A4133" stroke-width="0.7"/>
</svg>
