<svg width="67" height="44" viewBox="0 0 67 44" fill="none" xmlns="http://www.w3.org/2000/svg">
<ellipse cx="24.2034" cy="23.9769" rx="18.5784" ry="5.04384" fill="white" stroke="#0A4133" stroke-width="2.1"/>
<path fill-rule="evenodd" clip-rule="evenodd" d="M2 14.3477L2.16162 21.7048C2.16162 21.7048 6.6269 26.1524 21.0315 26.1524C35.4362 26.1524 40.0631 21.1409 40.0631 21.1409V14.3477" fill="white"/>
<path d="M2 14.3477L2.16162 21.7048C2.16162 21.7048 6.6269 26.1524 21.0315 26.1524C35.4362 26.1524 40.0631 21.1409 40.0631 21.1409V14.3477" stroke="#0A4133" stroke-width="2.1" stroke-linecap="round" stroke-linejoin="round"/>
<path d="M5.625 24.4351L5.78662 30.8752C5.78662 30.8752 10.2519 35.3228 24.6565 35.3228C39.0612 35.3228 43.6881 30.3113 43.6881 30.3113V23.5181" stroke="#0A4133" stroke-width="2.1" stroke-linecap="round" stroke-linejoin="round"/>
<path d="M5.625 29.9375L5.78662 37.2946C5.78662 37.2946 10.2519 41.7422 24.6565 41.7422C39.0612 41.7422 43.6881 36.7307 43.6881 36.7307V29.9375" stroke="#0A4133" stroke-width="2.1" stroke-linecap="round" stroke-linejoin="round"/>
<ellipse cx="20.5784" cy="14.806" rx="18.5784" ry="5.04381" fill="white" stroke="#0A4133" stroke-width="2.1"/>
<path fill-rule="evenodd" clip-rule="evenodd" d="M9.25098 5.9126L9.4126 13.2697C9.4126 13.2697 13.8779 17.7172 28.2825 17.7172C42.6872 17.7172 47.3141 12.7058 47.3141 12.7058V5.9126" fill="white"/>
<path d="M9.25098 5.9126L9.4126 13.2697C9.4126 13.2697 13.8779 17.7172 28.2825 17.7172C42.6872 17.7172 47.3141 12.7058 47.3141 12.7058V5.9126" stroke="#0A4133" stroke-width="2.1" stroke-linecap="round" stroke-linejoin="round"/>
<ellipse cx="28.2825" cy="6.55263" rx="19.0315" ry="5.04384" fill="white" stroke="#0A4133" stroke-width="2.1"/>
<path d="M43.2347 41.9926C53.5863 41.9926 61.9568 33.5044 61.9568 23.0599C61.9568 12.6154 53.5863 4.12725 43.2347 4.12725C32.883 4.12725 24.5125 12.6154 24.5125 23.0599C24.5125 33.5044 32.883 41.9926 43.2347 41.9926Z" fill="white" stroke="#0A4133" stroke-width="2.1"/>
<path d="M9 26H24V29L10.5 28.5L9 26Z" fill="#0A4133"/>
<path d="M50.9385 2C50.9385 2 57.8277 4.38631 61.9106 9.49879C64.1926 12.3563 65.4995 16.3309 65.7226 20.8513" stroke="#0A4133" stroke-width="2.1" stroke-linecap="round" stroke-linejoin="round"/>
<path d="M65.695 24.1792C65.6373 25.089 65.5388 26.0139 65.3987 26.9498" stroke="#0A4133" stroke-width="2.1" stroke-linecap="round" stroke-linejoin="round"/>
<path fill-rule="evenodd" clip-rule="evenodd" d="M49 26.4492C49 24.4995 47.2523 22.7895 44.8515 22.384L42.7871 21.9239C40.6871 21.569 39.1631 20.0911 39.1631 18.4085C39.1631 16.4256 41.2215 14.8132 43.751 14.8132C46.2785 14.8132 48.3369 16.4256 48.3369 18.4085C48.3369 18.4611 48.3805 18.506 48.4339 18.506C48.4874 18.506 48.5329 18.4611 48.5329 18.4085C48.5329 16.3457 46.4388 14.6689 43.85 14.628V12.0855C43.85 12.0309 43.8044 11.988 43.751 11.988C43.6956 11.988 43.652 12.0309 43.652 12.0855V14.628C41.0612 14.6689 38.9671 16.3457 38.9671 18.4085C38.9671 20.1866 40.5604 21.7464 42.7475 22.113L44.8119 22.5751C47.1256 22.965 48.8021 24.595 48.8021 26.4492C48.8021 28.6348 46.5358 30.413 43.751 30.413C40.9642 30.413 38.6959 28.6348 38.6959 26.4492C38.6959 26.3965 38.6504 26.3517 38.599 26.3517C38.5435 26.3517 38.5 26.3965 38.5 26.4492C38.5 28.7148 40.8019 30.5553 43.652 30.6002V33.1426C43.652 33.1952 43.6956 33.2381 43.751 33.2381C43.8044 33.2381 43.85 33.1952 43.85 33.1426V30.6002C46.6981 30.5553 49 28.7148 49 26.4492Z" stroke="#5EC796" stroke-width="2.2" stroke-linecap="round" stroke-linejoin="round"/>
</svg>
