<svg width="50" height="46" viewBox="0 0 50 46" fill="none" xmlns="http://www.w3.org/2000/svg">
<path d="M20.0535 24.5838L12.7551 30.9514C8.39449 34.6486 11.6534 40.8813 17.5673 41.2359C17.5673 41.2359 21.4374 41.2495 22.6141 41.4458C23.667 41.6215 27.4768 42.8892 27.4768 42.8892C33.2685 44.4876 38.1229 39.6086 35.0514 34.6714L29.963 26.2371C27.946 22.7401 22.9913 21.9134 20.0535 24.5838Z" stroke="#0A4133" stroke-width="2.1" stroke-miterlimit="10" stroke-linecap="round" stroke-linejoin="round"/>
<path d="M39.4898 13.8309C40.3965 10.0501 38.8921 6.40971 36.1295 5.69975C33.3669 4.98979 30.3923 7.47914 29.4855 11.2599C28.5788 15.0406 30.0833 18.681 32.8459 19.391C35.6085 20.1009 38.5831 17.6116 39.4898 13.8309Z" stroke="#0A4133" stroke-width="2.1" stroke-miterlimit="10" stroke-linecap="round" stroke-linejoin="round"/>
<path d="M20.2149 17.3492C23.0621 17.5737 25.5632 14.605 25.8013 10.7184C26.0394 6.83189 23.9243 3.49928 21.0771 3.27482C18.23 3.05037 15.7289 6.01907 15.4908 9.9056C15.2527 13.7921 17.3678 17.1247 20.2149 17.3492Z" stroke="#0A4133" stroke-width="2.1" stroke-miterlimit="10" stroke-linecap="round" stroke-linejoin="round"/>
<path d="M45.0932 27.6339C46.5264 24.5278 45.7861 21.0964 43.4396 19.9698C41.0932 18.8431 38.0292 20.4478 36.596 23.5539C35.1628 26.66 35.9031 30.0913 38.2496 31.218C40.596 32.3446 43.66 30.74 45.0932 27.6339Z" stroke="#16CA92" stroke-width="2.1" stroke-miterlimit="10" stroke-linecap="round" stroke-linejoin="round"/>
<path d="M10.1922 26.7559C12.7176 26.4571 14.4026 23.4173 13.9556 19.9664C13.5086 16.5155 11.099 13.9602 8.57363 14.259C6.04822 14.5578 4.36331 17.5976 4.81028 21.0485C5.25725 24.4995 7.66683 27.0548 10.1922 26.7559Z" stroke="#0A4133" stroke-width="2.1" stroke-miterlimit="10" stroke-linecap="round" stroke-linejoin="round"/>
</svg>
