<svg width="407" height="3" viewBox="0 0 407 3" fill="none" xmlns="http://www.w3.org/2000/svg">
<path fill-rule="evenodd" clip-rule="evenodd" d="M0 0H1.99693V3H0V0ZM11.2347 0H13.2316V3H11.2347V0ZM26.8329 0H28.8298V3H26.8329V0ZM20.7186 0H18.7216V3H20.7186V0ZM5.74184 0H3.7449V3H5.74184V0ZM14.9767 0H16.9737V3H14.9767V0ZM9.48483 0H7.4879V3H9.48483V0ZM22.4646 0H24.4616V3H22.4646V0ZM43.8085 0H41.8116V3H43.8085V0ZM56.7873 0H58.7843V3H56.7873V0ZM36.3206 0H34.3237V3H36.3206V0ZM49.2985 0H51.2954V3H49.2985V0ZM32.5747 0H30.5778V3H32.5747V0ZM45.5546 0H47.5515V3H45.5546V0ZM40.0645 0H38.0676V3H40.0645V0ZM53.0444 0H55.0413V3H53.0444V0ZM73.761 0H71.7641V3H73.761V0ZM86.7418 0H88.7387V3H86.7418V0ZM66.2712 0H64.2743V3H66.2712V0ZM79.2529 0H81.2499V3H79.2529V0ZM62.5301 0H60.5332V3H62.5301V0ZM75.509 0H77.5059V3H75.509V0ZM70.018 0H68.0211V3H70.018V0ZM82.9969 0H84.9938V3H82.9969V0ZM103.715 0H101.719V3H103.715V0ZM116.696 0H118.693V3H116.696V0ZM96.2266 0H94.2297V3H96.2266V0ZM109.208 0H111.205V3H109.208V0ZM92.4836 0H90.4867V3H92.4836V0ZM105.462 0H107.459V3H105.462V0ZM99.9715 0H97.9746V3H99.9715V0ZM112.952 0H114.949V3H112.952V0ZM133.671 0H131.674V3H133.671V0ZM146.65 0H148.647V3H146.65V0ZM126.181 0H124.184V3H126.181V0ZM139.162 0H141.159V3H139.162V0ZM122.436 0H120.439V3H122.436V0ZM135.417 0H137.414V3H135.417V0ZM129.925 0H127.928V3H129.925V0ZM142.906 0H144.903V3H142.906V0ZM163.624 0H161.627V3H163.624V0ZM176.603 0H178.6V3H176.603V0ZM156.135 0H154.138V3H156.135V0ZM169.114 0H171.111V3H169.114V0ZM152.391 0H150.394V3H152.391V0ZM165.371 0H167.368V3H165.371V0ZM159.879 0H157.882V3H159.879V0ZM172.859 0H174.856V3H172.859V0ZM193.578 0H191.581V3H193.578V0ZM206.558 0H208.555V3H206.558V0ZM186.09 0H184.093V3H186.09V0ZM199.071 0H201.068V3H199.071V0ZM182.346 0H180.349V3H182.346V0ZM195.324 0H197.321V3H195.324V0ZM189.834 0H187.837V3H189.834V0ZM202.815 0H204.812V3H202.815V0ZM223.531 0H221.534V3H223.531V0ZM236.512 0H238.509V3H236.512V0ZM216.043 0H214.046V3H216.043V0ZM229.022 0H231.019V3H229.022V0ZM212.3 0H210.303V3H212.3V0ZM225.278 0H227.275V3H225.278V0ZM219.788 0H217.791V3H219.788V0ZM232.768 0H234.765V3H232.768V0ZM253.486 0H251.489V3H253.486V0ZM266.466 0H268.463V3H266.466V0ZM245.997 0H244V3H245.997V0ZM258.977 0H260.974V3H258.977V0ZM242.253 0H240.256V3H242.253V0ZM255.234 0H257.231V3H255.234V0ZM249.743 0H247.746V3H249.743V0ZM262.722 0H264.719V3H262.722V0ZM283.44 0H281.443V3H283.44V0ZM296.421 0H298.418V3H296.421V0ZM275.953 0H273.956V3H275.953V0ZM288.932 0H290.929V3H288.932V0ZM272.207 0H270.21V3H272.207V0ZM285.186 0H287.183V3H285.186V0ZM279.695 0H277.698V3H279.695V0ZM292.675 0H294.672V3H292.675V0ZM313.394 0H311.397V3H313.394V0ZM326.375 0H328.371V3H326.375V0ZM305.906 0H303.909V3H305.906V0ZM318.887 0H320.884V3H318.887V0ZM302.16 0H300.163V3H302.16V0ZM315.141 0H317.138V3H315.141V0ZM309.65 0H307.653V3H309.65V0ZM322.63 0H324.627V3H322.63V0ZM343.347 0H341.35V3H343.347V0ZM356.327 0H358.324V3H356.327V0ZM335.859 0H333.862V3H335.859V0ZM348.84 0H350.837V3H348.84V0ZM332.114 0H330.118V3H332.114V0ZM345.094 0H347.091V3H345.094V0ZM339.602 0H337.605V3H339.602V0ZM352.584 0H354.581V3H352.584V0ZM373.303 0H371.306V3H373.303V0ZM386.282 0H388.278V3H386.282V0ZM365.813 0H363.816V3H365.813V0ZM378.795 0H380.792V3H378.795V0ZM362.07 0H360.073V3H362.07V0ZM375.049 0H377.046V3H375.049V0ZM369.559 0H367.562V3H369.559V0ZM382.538 0H384.535V3H382.538V0ZM403.255 0H401.258V3H403.255V0ZM393.77 0H395.767V3H393.77V0ZM392.023 0H390.026V3H392.023V0ZM405.003 0H407V3H405.003V0ZM399.513 0H397.516V3H399.513V0Z" fill="url(#paint0_linear)"/>
<defs>
<linearGradient id="paint0_linear" x1="0" y1="3" x2="407" y2="3" gradientUnits="userSpaceOnUse">
<stop stop-color="#EEEEEE"/>
<stop offset="1" stop-color="#0A4133"/>
</linearGradient>
</defs>
</svg>
