<svg xmlns="http://www.w3.org/2000/svg" width="296" height="259" fill="none"><g filter="url(#filter0_d)"><rect width="260" height="224" x="18" y="7" fill="#fff" rx="4.246"/><rect width="258.843" height="222.843" x="18.578" y="7.578" stroke="#F5F5F5" stroke-width="1.157" rx="3.668"/></g><path fill="#0A4133" d="M83.987 131.621c0 3.762 2.916 6.516 6.534 6.516 1.926 0 3.654-.81 4.842-2.196l-.954-.864c-.918 1.116-2.304 1.764-3.888 1.764-2.952 0-5.13-2.232-5.13-5.22 0-2.988 2.178-5.22 5.13-5.22 1.584 0 2.916.63 3.834 1.692l.954-.864c-1.188-1.332-2.862-2.124-4.788-2.124-3.618 0-6.534 2.754-6.534 6.516zm12.809 1.728c0 2.772 2.16 4.806 4.824 4.806 2.664 0 4.824-2.034 4.824-4.806 0-2.772-2.16-4.806-4.824-4.806-2.664 0-4.824 2.034-4.824 4.806zm1.332 0c0-2.034 1.476-3.564 3.492-3.564s3.492 1.53 3.492 3.564-1.476 3.564-3.492 3.564-3.492-1.53-3.492-3.564zm10.366 4.536h1.332v-5.418c0-1.53 1.062-2.556 2.574-2.556 1.476 0 2.376.954 2.376 2.466v5.508h1.332v-5.796c0-2.034-1.278-3.42-3.366-3.42-1.422 0-2.448.702-2.916 1.674v-1.53h-1.332v9.072zm10.596 1.512l-.684 1.062a7.183 7.183 0 004.302 1.386c1.188 0 2.286-.342 3.06-.954 1.35-1.062 1.44-2.556 1.44-4.518v-7.56h-1.332v1.35c-.45-.774-1.44-1.62-3.222-1.62-2.538 0-4.59 1.998-4.59 4.734 0 2.736 2.052 4.716 4.59 4.716 1.782 0 2.772-.846 3.222-1.62v.756c0 .99-.108 2.124-.936 2.808-.558.45-1.35.666-2.25.666-1.476 0-2.556-.45-3.6-1.206zm.306-6.12c0-1.998 1.386-3.492 3.258-3.492 1.944 0 3.384 1.494 3.384 3.492s-1.44 3.474-3.384 3.474c-1.872 0-3.258-1.476-3.258-3.474zm10.26 4.608h1.332v-5.274c0-1.53 1.044-2.556 2.448-2.556.378 0 .684.036.9.09v-1.44a4.575 4.575 0 00-.558-.036c-1.368 0-2.34.702-2.79 1.674v-1.53h-1.332v9.072zm5.685-4.536c0 2.772 2.052 4.806 4.59 4.806 1.782 0 2.772-.846 3.222-1.62v1.35h1.332v-9.072h-1.332v1.35c-.45-.774-1.44-1.62-3.222-1.62-2.538 0-4.59 2.034-4.59 4.806zm1.332 0c0-2.034 1.386-3.564 3.258-3.564 1.944 0 3.384 1.53 3.384 3.564s-1.44 3.564-3.384 3.564c-1.872 0-3.258-1.53-3.258-3.564zm10.909 4.536h1.332v-7.83h2.016v-1.242h-2.016v-3.474h-1.332v3.474h-1.152v1.242h1.152v7.83zm5.167-3.51c0 2.466 1.602 3.726 3.744 3.726 2.214 0 3.87-1.314 3.87-3.852v-5.436h-1.332v5.418c0 1.746-.972 2.628-2.484 2.628-1.494 0-2.466-.882-2.466-2.61v-5.436h-1.332v5.562zm9.969 3.51h1.332v-12.546h-1.332v12.546zm3.399-4.536c0 2.772 2.052 4.806 4.59 4.806 1.782 0 2.772-.846 3.222-1.62v1.35h1.332v-9.072h-1.332v1.35c-.45-.774-1.44-1.62-3.222-1.62-2.538 0-4.59 2.034-4.59 4.806zm1.332 0c0-2.034 1.386-3.564 3.258-3.564 1.944 0 3.384 1.53 3.384 3.564s-1.44 3.564-3.384 3.564c-1.872 0-3.258-1.53-3.258-3.564zm10.909 4.536h1.332v-7.83h2.016v-1.242h-2.016v-3.474h-1.332v3.474h-1.152v1.242h1.152v7.83zm5.959-10.584c.468 0 .9-.378.9-.9s-.432-.9-.9-.9-.9.378-.9.9.432.9.9.9zm-.666 10.584h1.332v-9.072h-1.332v9.072zm3.399-4.536c0 2.772 2.16 4.806 4.824 4.806 2.664 0 4.824-2.034 4.824-4.806 0-2.772-2.16-4.806-4.824-4.806-2.664 0-4.824 2.034-4.824 4.806zm1.332 0c0-2.034 1.476-3.564 3.492-3.564s3.492 1.53 3.492 3.564-1.476 3.564-3.492 3.564-3.492-1.53-3.492-3.564zm10.366 4.536h1.332v-5.418c0-1.53 1.062-2.556 2.574-2.556 1.476 0 2.376.954 2.376 2.466v5.508h1.332v-5.796c0-2.034-1.278-3.42-3.366-3.42-1.422 0-2.448.702-2.916 1.674v-1.53h-1.332v9.072zm9.264-2.016c.522 1.494 1.872 2.232 3.492 2.232 2.142 0 3.258-1.044 3.258-2.574 0-1.584-.936-2.268-2.862-2.97-1.098-.414-1.872-.72-1.872-1.566 0-.648.54-1.224 1.53-1.224.684 0 1.314.396 1.62 1.026l1.026-.648c-.54-.99-1.512-1.602-2.682-1.602-1.674 0-2.826 1.026-2.826 2.52 0 1.404 1.08 2.07 2.556 2.61 1.386.486 2.178.882 2.178 1.836 0 .738-.504 1.35-1.944 1.35-1.152 0-1.98-.576-2.34-1.458l-1.134.468zm9.135-.774h1.116l.288-9.756h-1.692l.288 9.756zm-.342 2.16c0 .522.432.9.9.9s.9-.378.9-.9-.432-.9-.9-.9-.9.378-.9.9zm-147.486 24.63h1.404v-5.148l4.374-7.398h-1.512l-3.546 6.012-3.582-6.012h-1.548l4.41 7.398v5.148zm5.875-4.536c0 2.772 2.16 4.806 4.824 4.806 2.664 0 4.824-2.034 4.824-4.806 0-2.772-2.16-4.806-4.824-4.806-2.664 0-4.824 2.034-4.824 4.806zm1.332 0c0-2.034 1.476-3.564 3.492-3.564s3.492 1.53 3.492 3.564-1.476 3.564-3.492 3.564-3.492-1.53-3.492-3.564zm10.258 1.026c0 2.466 1.602 3.726 3.744 3.726 2.214 0 3.87-1.314 3.87-3.852v-5.436h-1.332v5.418c0 1.746-.972 2.628-2.484 2.628-1.494 0-2.466-.882-2.466-2.61v-5.436h-1.332v5.562zm15.414 5.022l-.684 1.062a7.183 7.183 0 004.302 1.386c1.188 0 2.286-.342 3.06-.954 1.35-1.062 1.44-2.556 1.44-4.518v-7.56h-1.332v1.35c-.45-.774-1.44-1.62-3.222-1.62-2.538 0-4.59 1.998-4.59 4.734 0 2.736 2.052 4.716 4.59 4.716 1.782 0 2.772-.846 3.222-1.62v.756c0 .99-.108 2.124-.936 2.808-.558.45-1.35.666-2.25.666-1.476 0-2.556-.45-3.6-1.206zm.306-6.12c0-1.998 1.386-3.492 3.258-3.492 1.944 0 3.384 1.494 3.384 3.492s-1.44 3.474-3.384 3.474c-1.872 0-3.258-1.476-3.258-3.474zm9.864.072c0 2.772 2.16 4.806 4.824 4.806 2.664 0 4.824-2.034 4.824-4.806 0-2.772-2.16-4.806-4.824-4.806-2.664 0-4.824 2.034-4.824 4.806zm1.332 0c0-2.034 1.476-3.564 3.492-3.564s3.492 1.53 3.492 3.564-1.476 3.564-3.492 3.564-3.492-1.53-3.492-3.564zm11.032 4.536h1.332v-7.83h2.016v-1.242h-2.016v-3.474h-1.332v3.474h-1.152v1.242h1.152v7.83zm10.02 3.474h1.332v-4.824c.45.774 1.44 1.62 3.222 1.62 2.538 0 4.59-2.034 4.59-4.806 0-2.772-2.052-4.806-4.59-4.806-1.782 0-2.772.846-3.222 1.62v-1.35h-1.332v12.546zm1.17-8.01c0-2.034 1.44-3.564 3.384-3.564 1.872 0 3.258 1.53 3.258 3.564s-1.386 3.564-3.258 3.564c-1.944 0-3.384-1.53-3.384-3.564zm10.026 4.536h1.332v-5.274c0-1.53 1.044-2.556 2.448-2.556.378 0 .684.036.9.09v-1.44a4.575 4.575 0 00-.558-.036c-1.368 0-2.34.702-2.79 1.674v-1.53h-1.332v9.072zm5.686-4.428c0 2.826 1.872 4.662 4.572 4.662 1.314 0 2.538-.342 3.672-1.602l-.882-.864c-.756.792-1.476 1.26-2.79 1.26-1.908 0-3.168-1.278-3.24-3.276h7.362c.018-.27.018-.576.018-.576 0-2.502-1.656-4.518-4.176-4.518-2.592 0-4.536 1.908-4.536 4.842v.072zm1.422-.99c.09-1.476 1.458-2.682 3.114-2.682 1.53 0 2.754 1.224 2.754 2.682h-5.868zm9.021 1.296h5.4v-1.242h-5.4v1.242zm7.186-.414c0 2.772 2.052 4.806 4.59 4.806 1.782 0 2.772-.846 3.222-1.62v4.824h1.332v-12.546h-1.332v1.35c-.45-.774-1.44-1.62-3.222-1.62-2.538 0-4.59 2.034-4.59 4.806zm1.332 0c0-2.034 1.386-3.564 3.258-3.564 1.944 0 3.384 1.53 3.384 3.564s-1.44 3.564-3.384 3.564c-1.872 0-3.258-1.53-3.258-3.564zm10.152 1.026c0 2.466 1.602 3.726 3.744 3.726 2.214 0 3.87-1.314 3.87-3.852v-5.436h-1.332v5.418c0 1.746-.972 2.628-2.484 2.628-1.494 0-2.466-.882-2.466-2.61v-5.436h-1.332v5.562zm9.555-1.026c0 2.772 2.052 4.806 4.59 4.806 1.782 0 2.772-.846 3.222-1.62v1.35h1.332v-9.072h-1.332v1.35c-.45-.774-1.44-1.62-3.222-1.62-2.538 0-4.59 2.034-4.59 4.806zm1.332 0c0-2.034 1.386-3.564 3.258-3.564 1.944 0 3.384 1.53 3.384 3.564s-1.44 3.564-3.384 3.564c-1.872 0-3.258-1.53-3.258-3.564zm10.261 4.536h1.332v-12.546h-1.332v12.546zm4.48-10.584c.468 0 .9-.378.9-.9s-.432-.9-.9-.9-.9.378-.9.9.432.9.9.9zm-.666 10.584h1.332v-9.072h-1.332v9.072zm4.785 0h1.332v-7.83h2.88v7.83h1.332v-9.072h-4.212v-.936c0-1.152.504-1.566 1.62-1.566.324 0 .702.018 1.026.09v-1.26a5.806 5.806 0 00-.882-.072c-.684 0-1.548.036-2.214.522-.594.486-.882 1.134-.882 2.466v.756h-1.458v1.242h1.458v7.83zm7.613-4.428c0 2.826 1.872 4.662 4.572 4.662 1.314 0 2.538-.342 3.672-1.602l-.882-.864c-.756.792-1.476 1.26-2.79 1.26-1.908 0-3.168-1.278-3.24-3.276h7.362c.018-.27.018-.576.018-.576 0-2.502-1.656-4.518-4.176-4.518-2.592 0-4.536 1.908-4.536 4.842v.072zm1.422-.99c.09-1.476 1.458-2.682 3.114-2.682 1.53 0 2.754 1.224 2.754 2.682h-5.868zm8.896.882c0 2.772 2.052 4.806 4.59 4.806 1.782 0 2.772-.846 3.222-1.62v1.35h1.332v-12.546h-1.332v4.824c-.45-.774-1.44-1.62-3.222-1.62-2.538 0-4.59 2.034-4.59 4.806zm1.332 0c0-2.034 1.386-3.564 3.258-3.564 1.944 0 3.384 1.53 3.384 3.564s-1.44 3.564-3.384 3.564c-1.872 0-3.258-1.53-3.258-3.564z"/><path fill="#16CA92" d="M144.186 83.778c-.661-.72-1.801-.78-2.52-.12-.72.662-.781 1.801-.12 2.52l7.263 7.863c.3.361.78.6 1.261.6h.061c.48 0 .961-.18 1.261-.539L169.695 75.8c.661-.72.661-1.861-.061-2.52-.719-.661-1.739-.661-2.461 0l-16.986 17.042-6.001-6.543z"/><path fill="#16CA92" d="M169.084 85.642c-1.02 0-1.8.78-1.8 1.8 0 8.763-7.082 15.842-15.842 15.842-8.763 0-15.841-7.08-15.841-15.842s7.079-15.841 15.841-15.841a1.77 1.77 0 001.801-1.8c0-1.02-.781-1.801-1.801-1.801C140.702 68 132 76.701 132 87.442c0 10.74 8.702 19.442 19.442 19.442 10.741 0 19.442-8.701 19.442-19.442 0-1.02-.778-1.8-1.8-1.8z"/><defs><filter id="filter0_d" width="294.12" height="258.12" x=".94" y=".57" color-interpolation-filters="sRGB" filterUnits="userSpaceOnUse"><feFlood flood-opacity="0" result="BackgroundImageFix"/><feColorMatrix in="SourceAlpha" values="0 0 0 0 0 0 0 0 0 0 0 0 0 0 0 0 0 0 127 0"/><feOffset dy="10.63"/><feGaussianBlur stdDeviation="8.53"/><feColorMatrix values="0 0 0 0 0 0 0 0 0 0 0 0 0 0 0 0 0 0 0.2 0"/><feBlend in2="BackgroundImageFix" result="effect1_dropShadow"/><feBlend in="SourceGraphic" in2="effect1_dropShadow" result="shape"/></filter></defs></svg>