<svg width="45" height="13" viewBox="0 0 45 13" fill="none" xmlns="http://www.w3.org/2000/svg">
<path d="M6.5161 11.8694C3.43311 11.8694 0.95 9.4045 0.95 6.40968C0.95 3.41487 3.43311 0.95 6.5161 0.95C9.59908 0.95 12.0822 3.41487 12.0822 6.40968C12.0822 9.4045 9.59908 11.8694 6.5161 11.8694Z" stroke="#0A4133" stroke-width="1.9"/>
<path fill-rule="evenodd" clip-rule="evenodd" d="M22.0991 12.8194C18.5063 12.8194 15.583 9.94385 15.583 6.40968C15.583 2.87551 18.5063 0 22.0991 0C25.6919 0 28.6152 2.87551 28.6152 6.40968C28.6152 9.94385 25.6919 12.8194 22.0991 12.8194V12.8194Z" fill="#16CA92"/>
<path d="M32.118 6.5901C32.118 3.59529 34.6011 1.13042 37.6841 1.13042C40.767 1.13042 43.2502 3.59529 43.2502 6.5901C43.2502 9.58492 40.767 12.0498 37.6841 12.0498C34.6011 12.0498 32.118 9.58492 32.118 6.5901Z" stroke="#0A4133" stroke-width="1.9"/>
</svg>
