<svg width="64" height="63" fill="none" xmlns="http://www.w3.org/2000/svg"><path d="M28.33 39.618c-1.334 0-2.446-.445-3.78-1.112-4.893-2.669-8.451-10.008-8.451-17.346 0-4.448 2.446-8.006 6.227-9.563 3.335-1.557 7.338-1.112 10.007.667 2.89-1.779 7.116-1.779 10.452 0 3.558 1.78 5.56 5.115 5.56 9.118 0 7.339-3.336 14.455-8.229 17.346-2.224 1.112-4.892 1.112-7.338-.222-.223-.223-.223-.223-.445-.223h-.445c-1.112.89-2.446 1.335-3.558 1.335Zm-1.334-26.91c-1.112 0-2.447.223-3.781.668-3.113 1.334-4.892 4.225-4.892 7.784 0 6.449 3.113 13.12 7.116 15.567 1.779 1.112 3.558 1.112 5.115 0 .445-.223.89-.445 1.557-.445.667 0 1.111.222 1.556.445 1.78.89 3.558.89 5.337-.223 4.003-2.446 7.117-8.895 7.117-15.344 0-4.226-2.669-6.227-4.226-7.117-2.89-1.557-6.671-1.334-8.895.445l-.667.667-.667-.667c-1.112-1.334-2.891-1.78-4.67-1.78Z" fill="#0A4133"/><path d="M31.443 14.042c-2.224-4.67-.667-9.785 3.336-11.786l.89 1.779c-2.892 1.557-4.004 5.56-2.447 8.895l-1.78 1.112ZM21.658 28.053c-2.446-5.782-.89-10.008 1.557-11.564l1.334 1.779c-1.78 1.112-2.446 4.447-.667 8.895l-2.224.89Z" fill="#0A4133"/><path d="M30.552 9.594c-1.334 0-4.003-.222-5.782-2.001C22.324 5.147 22.77.92 22.77.92v-.89h.89c.222 0 4.447-.444 6.671 2.002 2.224 2.446 2.002 6.672 2.002 6.672v.89h-1.78Zm-5.56-7.56c0 1.111.223 2.89 1.335 4.002C27.44 7.148 29.218 7.37 30.33 7.37c0-1.112-.222-2.89-1.334-4.003-1.112-1.111-2.891-1.334-4.003-1.334ZM31.89 50.735c-.445 0-1.113 0-1.557-.222L8.094 40.728v5.56c0 .666-.445 1.111-1.112 1.111s-1.112-.445-1.112-1.112v-5.782c0-.667.445-1.334.89-1.779.667-.445 1.334-.445 2.001-.222L31.222 48.51c.445.222.89.222 1.112 0l28.91-13.566-11.786-5.337c-.445-.222-.667-.89-.445-1.556.223-.668.89-.89 1.557-.668L62.356 32.5c.89.445 1.335 1.112 1.335 2.002 0 .89-.445 1.779-1.335 2.224L33.446 50.29c-.445.445-1.112.445-1.557.445Z" fill="#0A4133"/><path d="M31.89 62.3c-.668 0-1.113-.222-1.78-.445l-16.234-7.56c-.445-.223-.667-.89-.445-1.335.222-.667.89-.89 1.557-.445l16.234 7.339c.445.222 1.112.222 1.557 0l29.577-15.122c.445-.223 1.112 0 1.557.444.222.445 0 1.112-.445 1.557L33.891 61.855c-.668.223-1.335.445-2.002.445ZM7.649 51.85h-.445l-2.002-.89c-1.779-.89-3.113-2.67-3.113-4.67v-6.227c0-2.224 1.334-4.226 3.336-4.893l9.562-3.78c.668-.223 1.112 0 1.335.667.222.667 0 1.112-.667 1.334l-9.563 3.78c-1.112.445-2.002 1.557-2.002 2.892v6.226c0 1.112.668 2.224 1.78 2.67l2 .889c.668.222.446.444 0 1.112.223 0-.952.89-.221.89Z" fill="#0A4133"/><path d="m58.69 36.682-.08 10.23 2.224.017.08-10.23-2.224-.017Z" fill="#0A4133"/><path d="M7.204 59.855h-.445c-.445-.223-.667-.445-.667-.89l-.445-3.336-4.448.223c-.445 0-.89-.223-1.112-.667-.222-.445 0-1.112.445-1.335l10.23-6.671c.222-.223.667-.223 1.112 0l6.227 2.668c.444.223.667.445.667.89s-.223.667-.445 1.112L7.871 59.855h-.667Zm-.668-6.45c.445 0 1.112.445 1.112.89l.445 2.446 7.561-5.782-4.003-1.779-6.226 4.226h1.111Z" fill="#16CA92"/><path d="M31.666 57.852c-.667 0-1.111-.223-1.779-.445l-23.35-10.23c-.667-.222-.89-.89-.667-1.557.222-.667.89-.89 1.556-.667L31 55.405c.445.223 1.112.223 1.557 0l26.686-13.343c.445-.222 1.112 0 1.557.445.223.445 0 1.112-.445 1.557L33.668 57.407c-.667.445-1.334.445-2.002.445Z" fill="#0A4133"/></svg>