<svg xmlns="http://www.w3.org/2000/svg" width="56" height="58" fill="none"><g clip-path="url(#a)"><path fill="#5EC796" d="M11.344 13.416H9.445v8.964c0 .306-.012.528-.036.666a1.43 1.43 0 0 1-.135.432c-.096.18-.243.324-.44.432a1.299 1.299 0 0 1-.649.162 1.35 1.35 0 0 1-.657-.162 1.07 1.07 0 0 1-.432-.432 1.66 1.66 0 0 1-.144-.432 5.768 5.768 0 0 1-.027-.666v-8.964H5.026c-.468 0-.795-.048-.98-.144a.925.925 0 0 1-.388-.387 1.19 1.19 0 0 1-.144-.585c0-.216.048-.411.144-.585a.925.925 0 0 1 .387-.387c.186-.096.513-.144.981-.144h6.318c.468 0 .795.048.981.144a.925.925 0 0 1 .387.387c.096.174.144.369.144.585 0 .216-.048.411-.144.585a.925.925 0 0 1-.387.387c-.186.096-.513.144-.98.144Zm7.982-1.152 3.7 9.81c.096.258.162.462.198.612.035.15.035.315 0 .495a.976.976 0 0 1-.262.504c-.24.258-.54.387-.9.387-.27 0-.5-.078-.693-.234a1.233 1.233 0 0 1-.27-.315 5.868 5.868 0 0 1-.26-.63l-.423-1.161H15.41l-.422 1.161a4.578 4.578 0 0 1-.27.63c-.066.12-.153.225-.261.315a1.064 1.064 0 0 1-.694.234c-.36 0-.66-.129-.9-.387a1.041 1.041 0 0 1-.27-.504c-.03-.18-.026-.345.01-.495.036-.15.102-.354.198-.612l3.698-9.81c.157-.402.328-.684.514-.846.227-.204.527-.306.9-.306.371 0 .671.102.9.306.186.162.357.444.512.846Zm-1.413 2.709-1.718 4.653h3.438l-1.72-4.653Zm6.602-2.619a1.024 1.024 0 0 1 .144-.585c.114-.192.273-.345.477-.459.228-.132.45-.198.666-.198.162 0 .306.024.432.072.126.048.24.129.342.243.102.108.183.21.243.306.066.09.147.225.243.405l1.764 3.177 1.773-3.177c.096-.18.174-.315.234-.405.066-.096.15-.198.252-.306a.878.878 0 0 1 .342-.243c.126-.048.27-.072.432-.072.216 0 .438.066.666.198.204.114.36.267.468.459a.987.987 0 0 1 .153.585c-.012.222-.147.558-.405 1.008l-2.376 4.068 2.565 4.392c.258.45.393.786.405 1.008.012.204-.04.402-.153.594a1.208 1.208 0 0 1-.468.45c-.228.132-.45.198-.666.198a1.07 1.07 0 0 1-.567-.153 1.453 1.453 0 0 1-.37-.333 7.796 7.796 0 0 1-.323-.54l-1.962-3.501-1.953 3.501a5.598 5.598 0 0 1-.333.54 1.273 1.273 0 0 1-.37.333 1.025 1.025 0 0 1-.557.153c-.216 0-.438-.066-.666-.198a1.277 1.277 0 0 1-.477-.45 1.064 1.064 0 0 1-.144-.594c.012-.222.147-.558.405-1.008l2.556-4.392-2.367-4.068c-.258-.45-.393-.786-.405-1.008Z"/><path fill="#171717" d="M34.089 35.318c.672.94-.76 1.959-1.424 1.019l-2.617-3.643H24.83a26.722 26.722 0 0 0 4.38 6.794c.767.86-.549 2.024-1.308 1.164a28.45 28.45 0 0 1-4.973-7.958H.875A.88.88 0 0 1 0 31.812V3.022c0-.485.39-.875.875-.875h32.737c1.156 0 1.156 1.75 0 1.75H1.749V30.93h31.87c1.156 0 1.156 1.757 0 1.757h-1.41l1.88 2.623v.008ZM36.033 31.443c0-1.156 1.757-1.156 1.757 0v1.359c0 1.157-1.757 1.157-1.757 0v-1.359ZM36.033 23.796c0-1.15 1.757-1.15 1.757 0v3.216c0 1.157-1.757 1.157-1.757 0v-3.216ZM36.033 16.155c0-1.156 1.757-1.156 1.757 0v3.21c0 1.156-1.757 1.156-1.757 0v-3.21ZM36.033 8.507c0-1.149 1.757-1.149 1.757 0v3.217c0 1.157-1.757 1.157-1.757 0V8.507ZM36.033.867c0-1.156 1.757-1.156 1.757 0v3.217c0 1.15-1.757 1.15-1.757 0V.867Z"/><path fill="#323232" d="M40.233 3.903c-1.157 0-1.157-1.75 0-1.75h14.32c.483 0 .874.391.874.875v28.784a.88.88 0 0 1-.875.881h-2.335c-1.156 0-1.156-1.756 0-1.756h1.46V3.903H40.233Z"/><path fill="#171717" d="M47.432 45.777c-.289 0-.578.022-.853.065l-4.084-3.722c3.072-2.95 5.422-6.687 6.882-10.67 1.416-3.888 2.06-8.102 2.125-12.577.08-.882-1.07-1.322-1.583-.592l-13.25 18.504c-.462.137-2.089.513-2.37.78l-9.05 8.241a5.462 5.462 0 0 0-.854-.058 6.105 6.105 0 0 0-6.107 6.108 6.11 6.11 0 0 0 6.107 6.108 6.114 6.114 0 0 0 6.108-6.108c0-.578-.08-1.135-.224-1.662l5.617-5.046 5.652 5.082a6.281 6.281 0 0 0-.224 1.662A6.11 6.11 0 0 0 47.432 58a6.11 6.11 0 0 0 6.108-6.108c0-3.368-2.74-6.115-6.108-6.115ZM24.395 56.215a4.356 4.356 0 0 1-4.35-4.352c0-2.4 1.95-4.365 4.35-4.365 2.4 0 4.366 1.958 4.366 4.365a4.359 4.359 0 0 1-4.366 4.352Zm5.133-7.698a6.13 6.13 0 0 0-2.32-2.126l8.11-7.394h.007l2.118-.6c.708-.21 10.878-14.869 12.187-16.705-.246 3.239-.853 6.303-1.902 9.166-1.322 3.614-3.339 6.903-6.26 9.823-.693.101-3.729.463-4.112.803l-7.828 7.033Zm7.683-4.547 1.135-1.02 2.096-.339 4.186 3.817a6.077 6.077 0 0 0-2.32 2.125L37.21 43.97Zm10.221 12.274a4.353 4.353 0 0 1-4.358-4.352 4.364 4.364 0 0 1 4.358-4.358c2.4 0 4.352 1.944 4.352 4.358a4.342 4.342 0 0 1-4.352 4.352Z"/></g><defs><clipPath id="a"><path fill="#fff" d="M0 0h55.427v58H0z"/></clipPath></defs></svg>