<svg xmlns="http://www.w3.org/2000/svg" width="62" height="50" fill="none"><path fill="#000" d="m15.561 25.735-8.494-7.982a.712.712 0 0 0-.682-.181l-3.658.967c-.186.06-.372.182-.434.363s-.124.363-.062.544L4.96 27.67H1.363c-.186 0-.434.06-.558.241a.959.959 0 0 0-.186.545l.124.665c.062.302.248.484.558.544l2.914.726.186 1.088-2.48 1.572c-.248.12-.372.423-.31.726l.124.665a.716.716 0 0 0 .682.604c.062 0 .186 0 .248-.06l5.952-1.995 10.85.544-6.076 4.232c-.248.182-.372.423-.31.726l.434 1.874c.062.242.186.424.372.484.186.12.434.06.62 0l16.926-8.586 17.67-1.935c7.75-.846 11.532-4.353 12.152-6.53a1.765 1.765 0 0 0-.496-1.935 10.278 10.278 0 0 0-3.286-1.27c-1.24-.302-2.604-.665-3.224-1.21-2.48-1.995-5.084-2.72-7.378-2.115L29.45 22.046m23.994-1.45-3.286.664-.186-.786 2.48-.544c.31.181.558.423.868.665.062-.06.062 0 .124 0Zm-39.37 5.622-7.316 2.056-2.914-8.525 2.542-.665 4.278 4.05m-3.1 7.982 3.534-.484-5.89 1.996 2.356-1.512Zm6.944 7.498 14.88-10.34 12.028-3.325.124.665-26.908 13.544-.124-.544Zm14.508-14.935 18.228-4.958a5.87 5.87 0 0 1 3.224.181l-1.488.302c-.372.06-.62.424-.558.847l.434 2.177c.062.302.372.544.682.544h.124l5.952-1.149c.496.121.93.302 1.426.423a9.086 9.086 0 0 1 2.79 1.028c.062 0 .062.182 0 .484-.434 1.451-3.658 4.716-10.912 5.502l-13.95 1.512 7.75-3.93c.31-.121.434-.484.372-.786l-.434-1.875a1.312 1.312 0 0 0-.31-.484.616.616 0 0 0-.558-.06l-12.896 3.567c-.062 0-.124.06-.248.121l-7.006 4.898-1.798.06-7.688-.362 3.038-1.028c.31-.121.558-.423.496-.786l-.124-.665c-.062-.363-.434-.665-.806-.605l-7.502 1.088c-.124 0-.186.06-.31.121l-1.24.786-.124-.544 8.556-2.358"/><path stroke="#16CA92" stroke-linecap="round" stroke-linejoin="round" stroke-miterlimit="10" stroke-width="1.9" d="M18.746 40c3.005 3.456 6.686 6.737 10.083 8.32 5.444-2.548 12.022-9.475 15.66-15.82m4.831-17c.369-3.384.325-5.571.325-5.571L28.825 1 8.008 9.93s-.1 2.902.499 7.189"/></svg>