<svg viewBox="0 0 94 21" fill="none" xmlns="http://www.w3.org/2000/svg" class="aW-hgDIy"><path fill-rule="evenodd" clip-rule="evenodd" d="M24.489 7.44h9.433v1.616h-3.71v9.082h-2.039V9.056h-3.692V7.44h.008zm9.031 2.953h1.744v1.494h.033a1.7 1.7 0 01.32-.611 2.84 2.84 0 01.568-.543c.222-.167.469-.295.74-.4.272-.099.551-.152.831-.152.214 0 .37.008.452.015l.116.014c.045.006.091.013.14.017v1.645a6.477 6.477 0 00-.404-.052 3.72 3.72 0 00-.403-.023c-.312 0-.608.06-.888.174-.28.113-.518.287-.724.505-.205.227-.37.499-.493.83-.123.333-.181.71-.181 1.14v3.685h-1.859v-7.738h.008zm11.66 7.746h1.827V10.4h-1.86v4.492c0 .302-.032.582-.106.838a1.642 1.642 0 01-.987 1.11c-.263.113-.584.166-.979.166-.51 0-.913-.143-1.192-.423-.288-.279-.428-.762-.428-1.442v-4.748h-1.859v4.914c0 1.02.247 1.782.74 2.288.494.506 1.3.755 2.41.755.47 0 .93-.12 1.382-.355.452-.234.79-.543 1.02-.936h.033v1.08zm4.994-2.484c.058.498.264.845.617 1.05.362.196.79.301 1.291.301.173 0 .37-.015.593-.038a2.67 2.67 0 00.625-.143 1.21 1.21 0 00.485-.31c.123-.136.18-.31.173-.528a.705.705 0 00-.264-.536 1.894 1.894 0 00-.625-.34 6.73 6.73 0 00-.871-.219c-.27-.05-.54-.104-.813-.16l-.183-.036a10.147 10.147 0 01-1.003-.257 3.168 3.168 0 01-.863-.407 1.846 1.846 0 01-.61-.65c-.155-.264-.23-.588-.23-.981 0-.423.116-.77.338-1.057a2.5 2.5 0 01.847-.687 4.16 4.16 0 011.143-.37c.42-.068.823-.106 1.2-.106.437 0 .856.046 1.251.129.395.083.757.219 1.077.415.321.189.584.438.798.74.214.302.346.672.403 1.102h-1.94c-.091-.408-.289-.687-.61-.823a2.684 2.684 0 00-1.102-.211c-.131 0-.287.007-.468.03-.181.023-.346.06-.51.113a1.118 1.118 0 00-.403.242.557.557 0 00-.165.415c0 .211.083.377.239.506.156.128.362.234.617.324.255.083.543.159.871.22.259.047.522.099.79.152l.222.044c.337.068.666.158.995.256.33.098.617.234.872.408.255.174.46.385.617.642.156.256.238.581.238.959 0 .46-.115.845-.345 1.17a2.65 2.65 0 01-.888.777 4.403 4.403 0 01-1.218.438c-.444.09-.888.136-1.324.136a6.096 6.096 0 01-1.48-.166 3.76 3.76 0 01-1.176-.498 2.542 2.542 0 01-.782-.838c-.189-.332-.287-.733-.304-1.193h1.875v-.015zm7.54-5.262h-1.39v1.29h1.406v4.568c.009.317.05.604.107.853.066.25.173.453.346.62.164.166.403.294.699.377.296.083.69.128 1.184.128.206 0 .403-.007.6-.03.104-.012.212-.023.322-.033l.279-.027v-1.322c-.132.03-.263.046-.395.053-.132.008-.263.008-.395.008-.213 0-.37-.023-.493-.068a.52.52 0 01-.272-.204.813.813 0 01-.115-.332 3.89 3.89 0 01-.024-.468v-4.137h1.677v-1.276h-1.677V8.068h-1.86v2.325zm4.852 0h1.76v1.05h.033c.264-.454.626-.77 1.094-.967a3.88 3.88 0 011.522-.295c.666 0 1.242.106 1.735.325.494.211.905.506 1.234.883.329.378.567.816.732 1.314.164.498.246 1.034.246 1.6 0 .521-.073 1.027-.221 1.51-.149.491-.37.921-.667 1.299a3.207 3.207 0 01-1.135.898c-.46.227-.995.34-1.62.34-.271 0-.543-.023-.814-.068a3.827 3.827 0 01-.781-.219 2.88 2.88 0 01-.691-.385 2.481 2.481 0 01-.535-.544h-.033V21h-1.858V10.393zm6.35 2.862c.098.332.148.672.148 1.02 0 .34-.042.671-.116.996a2.47 2.47 0 01-.41.868c-.19.25-.428.46-.725.62-.296.158-.65.24-1.077.24a2.23 2.23 0 01-1.003-.21 2.187 2.187 0 01-.74-.567 2.357 2.357 0 01-.47-.86 3.53 3.53 0 01-.156-1.088c0-.83.198-1.494.593-1.993.394-.498.987-.747 1.768-.747.378 0 .715.083 1.011.234.288.15.535.355.732.611.198.257.346.544.444.876zm3.43-5.814h1.859v1.616h-1.86V7.44zm1.859 2.952h-1.86v7.746h1.86v-7.746zm1.66-2.952h1.859V18.14h-1.859V7.441zm5.758 10.6c.526.203 1.127.309 1.801.309.675 0 1.275-.106 1.801-.31a3.812 3.812 0 001.34-.845c.363-.363.642-.793.832-1.291.189-.498.287-1.05.287-1.646 0-.589-.098-1.132-.287-1.63a3.632 3.632 0 00-.831-1.292 4.004 4.004 0 00-1.34-.845c-.527-.204-1.127-.31-1.802-.31-.674 0-1.275.106-1.8.31a3.812 3.812 0 00-1.341.845 3.632 3.632 0 00-.831 1.291 4.558 4.558 0 00-.288 1.631c0 .597.099 1.148.288 1.646.189.498.469.928.83 1.29.37.356.815.643 1.341.846zM83.425 17a2.31 2.31 0 001.078-.242c.304-.158.55-.37.748-.626.197-.257.337-.552.436-.876.09-.325.14-.657.14-.997 0-.332-.05-.657-.14-.989a2.49 2.49 0 00-.436-.875 2.213 2.213 0 00-.749-.62 2.31 2.31 0 00-1.077-.241 2.31 2.31 0 00-1.077.241c-.305.159-.551.37-.749.62a2.639 2.639 0 00-.436.875c-.09.332-.14.657-.14.99 0 .339.05.671.14.996.09.324.239.619.436.876.198.256.444.468.749.626.304.166.666.242 1.077.242zm6.21-6.607h-1.39v1.29h1.406v4.568c.008.317.05.604.107.853.066.25.173.453.346.62.164.166.403.294.699.377.296.083.69.128 1.184.128.206 0 .403-.007.6-.03.104-.012.212-.023.322-.033l.279-.027v-1.322c-.132.03-.263.046-.395.053-.132.008-.263.008-.395.008-.214 0-.37-.023-.493-.068a.52.52 0 01-.272-.204.813.813 0 01-.115-.332 3.867 3.867 0 01-.025-.468v-4.137h1.678v-1.276h-1.678V8.068h-1.858v2.325z" fill="#000032"></path><path fill-rule="evenodd" clip-rule="evenodd" d="M15.42 12.042l6.893-4.598h-8.52L11.16 0 8.52 7.444 0 7.436l6.9 4.606-2.64 7.436 6.9-4.598 6.893 4.598-2.092-5.91-.537-1.527-.003.001zm.001 0l-4.257 2.837 4.852-1.155-.055-.155-.54-1.527z" fill="#00B67A"></path></svg>