<svg xmlns="http://www.w3.org/2000/svg" width="300" height="87" fill="none"><g fill="#1EC677" clip-path="url(#a)"><path d="M200.477 25.07c-5.274 0-11.575 1.878-17.608 8.402-6.033-6.524-12.379-8.401-17.608-8.401 0 0-20.154-1.52-20.154 22.032v38.12h14.613V49.248c0-10.547 7.061-10.77 8.446-10.457 0 0 2.548.134 4.871 2.547 0 0-4.647 6.078-5.005 13.72 0 0-1.028 19.797 14.837 19.797s14.837-19.798 14.837-19.798c-.358-7.642-5.005-13.72-5.005-13.72 2.324-2.413 4.871-2.547 4.871-2.547 1.341-.312 8.446-.089 8.446 10.458v35.975h14.614v-38.12c-.045-23.552-20.155-22.032-20.155-22.032Zm-17.653 39.06c-3.128 0-4.156-3.933-4.2-7.687-.09-6.525 4.156-11.217 4.2-11.307.09.09 4.291 4.782 4.201 11.307 0 3.754-1.072 7.686-4.201 7.686ZM136.884 26.054H122.27v59.213h14.614V26.054ZM129.599.402c-4.871 0-8.893 3.933-8.893 8.76 0 4.87 3.977 8.893 8.893 8.893 4.827 0 8.759-3.978 8.759-8.894 0-4.737-3.977-8.759-8.759-8.759ZM76.017 30.031V0h-14.48v85.267h14.48V42.59c23.998-11.664 23.104 6.793 23.104 6.793v35.885h14.524V49.382c-.045-34.68-30.344-23.239-37.628-19.35ZM240.697 58.543c7.776 2.726 17.652 2.503 17.652 2.503 23.418-.134 22.747-17.161 22.747-17.161-.581-19.172-23.104-18.814-23.104-18.814-18.636 0-31.685 12.78-31.685 31.059 0 18.278 12.781 30.076 32.534 30.076 8.402 0 16.401-2.324 21.987-6.39V65.737c-5.854 5.05-12.87 7.731-20.289 7.731.045 0-20.244 1.028-19.842-14.926Zm1.788-12.468c2.458-6.212 7.552-9.474 14.792-9.474 5.944 0 9.385 2.502 9.385 6.48 0 5.586-6.301 6.077-12.2 6.077-5.81 0-9.385-.625-10.994-1.028l-1.564-.357.581-1.698ZM31.55 86.206c10.28 0 17.564-3.888 21.899-7.15V64.889c-6.391 5.05-13.899 7.955-20.558 7.955-10.636 0-18.099-7.33-18.099-17.876 0-10.01 6.793-16.982 16.49-16.982 3.174 0 5.9.805 8.804 1.609 2.995.849 6.123 1.787 9.832 1.787 1.162 0 2.324-.089 3.486-.268V27.618c-.983.09-1.922.179-2.905.179-3.352 0-6.39-.626-9.564-1.296-3.351-.715-6.792-1.43-10.859-1.43-8.089 0-15.597 2.86-21.093 8.133C3.128 38.791 0 46.566 0 55.638c0 18.01 12.96 30.568 31.55 30.568ZM298.307 32.313c0-.884-.142-1.695-.428-2.436a5.723 5.723 0 0 0-1.189-1.909 5.238 5.238 0 0 0-1.773-1.227 5.332 5.332 0 0 0-2.182-.448c-.792 0-1.533.149-2.221.448a5.248 5.248 0 0 0-1.773 1.227 5.72 5.72 0 0 0-1.188 1.91c-.286.74-.429 1.552-.429 2.435 0 .831.13 1.61.39 2.338a5.79 5.79 0 0 0 1.11 1.91c.494.545 1.085.98 1.773 1.304.688.312 1.468.468 2.338.468a5.54 5.54 0 0 0 2.182-.429 5.483 5.483 0 0 0 1.773-1.247 5.767 5.767 0 0 0 1.189-1.89c.286-.74.428-1.558.428-2.454Zm1.559 0c0 1.09-.195 2.084-.585 2.98a6.793 6.793 0 0 1-1.558 2.3 6.91 6.91 0 0 1-2.28 1.48c-.857.351-1.76.526-2.708.526-1.052 0-2.02-.181-2.903-.545a7.054 7.054 0 0 1-2.26-1.54 7.285 7.285 0 0 1-1.481-2.298 7.89 7.89 0 0 1-.526-2.903c0-1.091.188-2.085.565-2.981.39-.896.91-1.663 1.559-2.3a7.28 7.28 0 0 1 5.046-2.007c.948.001 1.851.176 2.708.527a6.91 6.91 0 0 1 2.28 1.48 6.792 6.792 0 0 1 1.558 2.3c.39.896.585 1.89.585 2.98Zm-7.092-.41c.247 0 .481-.006.701-.019.234-.026.436-.084.605-.175a1.12 1.12 0 0 0 .408-.37c.105-.17.156-.403.156-.702 0-.247-.058-.441-.175-.584a1.027 1.027 0 0 0-.409-.332 1.571 1.571 0 0 0-.565-.136 4.867 4.867 0 0 0-.604-.039h-1.598v2.358h1.481Zm-1.481 4.58h-1.324v-8.067h3.059c.973 0 1.708.182 2.201.546.493.363.74.954.74 1.773 0 .727-.201 1.26-.604 1.597-.402.338-.902.54-1.5.604l2.26 3.546h-1.5l-2.085-3.448h-1.247v3.448Z"/><path fill-rule="evenodd" d="M294.863 26.863a5.197 5.197 0 0 0-2.128-.436c-.775 0-1.497.146-2.168.437h-.001a5.109 5.109 0 0 0-1.728 1.196 5.599 5.599 0 0 0-1.16 1.866c-.28.723-.42 1.518-.42 2.387 0 .817.128 1.58.382 2.293a5.68 5.68 0 0 0 1.084 1.865 5.432 5.432 0 0 0 1.729 1.273c.669.302 1.428.455 2.282.455a5.41 5.41 0 0 0 2.129-.418 5.349 5.349 0 0 0 1.729-1.216 5.636 5.636 0 0 0 1.161-1.846c.279-.723.419-1.525.419-2.406 0-.869-.14-1.664-.42-2.387a5.567 5.567 0 0 0-1.16-1.866 5.109 5.109 0 0 0-1.728-1.196h-.002Zm.054 11.041a5.54 5.54 0 0 1-2.182.43c-.87 0-1.65-.157-2.338-.469a5.572 5.572 0 0 1-1.773-1.305 5.79 5.79 0 0 1-1.11-1.91 6.894 6.894 0 0 1-.39-2.337c0-.884.143-1.695.429-2.436a5.72 5.72 0 0 1 1.188-1.909 5.248 5.248 0 0 1 1.773-1.227 5.517 5.517 0 0 1 2.221-.448c.779 0 1.507.149 2.182.448a5.238 5.238 0 0 1 1.773 1.227 5.723 5.723 0 0 1 1.189 1.91c.286.74.428 1.552.428 2.435 0 .896-.142 1.714-.428 2.455a5.767 5.767 0 0 1-1.189 1.89 5.483 5.483 0 0 1-1.773 1.246Zm-5.138 1.273a7.186 7.186 0 0 1-2.303-1.568l-.001-.001a7.405 7.405 0 0 1-1.507-2.341l-.001-.002a8.016 8.016 0 0 1-.536-2.952c0-1.107.192-2.119.576-3.033v-.002a7.321 7.321 0 0 1 1.588-2.34l.001-.002a7.41 7.41 0 0 1 5.139-2.044 7.22 7.22 0 0 1 2.759.536c.885.357 1.66.86 2.322 1.509a6.941 6.941 0 0 1 1.589 2.342c.397.915.595 1.927.595 3.034 0 1.107-.198 2.119-.595 3.033a6.942 6.942 0 0 1-1.589 2.343 7.048 7.048 0 0 1-2.322 1.509 7.222 7.222 0 0 1-2.759.535c-1.068 0-2.053-.184-2.954-.555l-.002-.001Zm5.664-.104a6.91 6.91 0 0 0 2.28-1.48 6.793 6.793 0 0 0 1.558-2.3c.39-.896.585-1.89.585-2.98 0-1.091-.195-2.085-.585-2.981a6.792 6.792 0 0 0-1.558-2.3 6.91 6.91 0 0 0-2.28-1.48 7.082 7.082 0 0 0-2.708-.526 7.28 7.28 0 0 0-5.046 2.007 7.206 7.206 0 0 0-1.559 2.299c-.377.896-.565 1.89-.565 2.98a7.89 7.89 0 0 0 .526 2.904c.364.883.857 1.65 1.481 2.299a7.054 7.054 0 0 0 2.26 1.539c.883.364 1.851.545 2.903.545.948 0 1.851-.175 2.708-.526Zm-1.08-8.938-.002-.003a.898.898 0 0 0-.357-.289 1.437 1.437 0 0 0-.517-.124H293.478a4.728 4.728 0 0 0-.587-.039h-1.464v2.09h1.347c.243 0 .473-.007.69-.02.219-.024.402-.078.552-.16a.998.998 0 0 0 .36-.324c.085-.14.134-.345.134-.629 0-.226-.053-.387-.145-.5l-.002-.002Zm.125 1.204a1.12 1.12 0 0 1-.408.37c-.169.09-.371.15-.605.175-.22.013-.454.02-.701.02h-1.481v-2.358h1.598c.195 0 .396.013.604.04.208.012.396.058.565.136.169.077.305.188.409.33.117.144.175.338.175.585 0 .299-.051.533-.156.702Zm-3.061 5.277h-1.593v-8.334h3.193c.987 0 1.755.184 2.282.572.538.397.795 1.035.795 1.88 0 .752-.209 1.329-.652 1.7a2.795 2.795 0 0 1-1.361.606l2.278 3.576h-1.82l-2.085-3.448h-1.037v3.448Zm-.134-3.582h1.247l2.085 3.448h1.5l-2.26-3.546c.05-.005.099-.011.147-.019.533-.08.984-.275 1.353-.585.403-.338.604-.87.604-1.597 0-.819-.247-1.41-.74-1.773-.493-.364-1.228-.546-2.201-.546h-3.059v8.066h1.324v-3.448Z" clip-rule="evenodd"/></g><defs><clipPath id="a"><path fill="#fff" d="M0 0h300v87H0z"/></clipPath></defs></svg>