<svg width="41" height="41" viewBox="0 0 41 41" fill="none" xmlns="http://www.w3.org/2000/svg">
<path d="M30.0446 40.7571C30.0007 40.7571 29.9568 40.7571 29.9128 40.7571C29.737 40.7132 29.6052 40.5813 29.5613 40.4056L26.3094 28.1893C26.2655 28.0135 26.3094 27.8378 26.4413 27.7059C26.5731 27.5741 26.7489 27.5302 26.9247 27.5741L39.097 30.8259C39.2727 30.8699 39.4046 31.0017 39.4485 31.1775C39.4925 31.3532 39.4485 31.529 39.3167 31.6608L36.4604 34.5172C36.2846 34.6929 35.933 34.6929 35.7573 34.5172C35.5815 34.3414 35.5815 33.9898 35.7573 33.8141L37.9984 31.5729L27.452 28.7606L30.2644 39.307L32.5055 37.0659C32.6812 36.8901 33.0328 36.8901 33.2086 37.0659C33.3843 37.2416 33.3843 37.5932 33.2086 37.769L30.3522 40.6253C30.3083 40.7132 30.1765 40.7571 30.0446 40.7571Z" fill="#16CA92" stroke="#16CA92" stroke-width="0.4"/>
<path d="M38.8333 40.6253C38.7015 40.6253 38.5697 40.5813 38.4818 40.4935L34.9224 36.934C34.7466 36.7583 34.7466 36.4067 34.9224 36.231C35.0981 36.0552 35.4497 36.0552 35.6255 36.231L39.1849 39.7904C39.3606 39.9661 39.3606 40.3177 39.1849 40.4935C39.053 40.5813 38.9212 40.6253 38.8333 40.6253Z" fill="#16CA92" stroke="#16CA92" stroke-width="0.4"/>
<path d="M23.8727 33.6381H3.46993C2.0833 33.6381 1 32.5115 1 31.1682V9.97875C1 8.80878 1.95331 7.85547 3.12328 7.85547H30.2059C31.3759 7.85547 32.3292 8.80878 32.3292 9.97875V25.1816C32.3292 25.4416 32.1125 25.6583 31.8525 25.6583C31.5925 25.6583 31.3759 25.4416 31.3759 25.1816V9.97875C31.3759 9.32876 30.8559 8.85211 30.2492 8.85211H3.12328C2.47329 8.85211 1.99664 9.37209 1.99664 9.97875V31.1682C1.99664 31.9915 2.68995 32.6848 3.51327 32.6848H23.916C24.176 32.6848 24.3927 32.9015 24.3927 33.1615C24.3927 33.4215 24.1327 33.6381 23.8727 33.6381Z" fill="#225447" stroke="#225447" stroke-width="0.2"/>
<path d="M5.29023 12.4052C5.721 12.4052 6.07021 12.056 6.07021 11.6252C6.07021 11.1944 5.721 10.8452 5.29023 10.8452C4.85946 10.8452 4.51025 11.1944 4.51025 11.6252C4.51025 12.056 4.85946 12.4052 5.29023 12.4052Z" fill="#225447" stroke="#225447" stroke-width="0.2"/>
<path d="M8.54072 12.4052C8.97149 12.4052 9.3207 12.056 9.3207 11.6252C9.3207 11.1944 8.97149 10.8452 8.54072 10.8452C8.10995 10.8452 7.76074 11.1944 7.76074 11.6252C7.76074 12.056 8.10995 12.4052 8.54072 12.4052Z" fill="#225447" stroke="#225447" stroke-width="0.2"/>
<path d="M11.7907 12.4052C12.2215 12.4052 12.5707 12.056 12.5707 11.6252C12.5707 11.1944 12.2215 10.8452 11.7907 10.8452C11.36 10.8452 11.0107 11.1944 11.0107 11.6252C11.0107 12.056 11.36 12.4052 11.7907 12.4052Z" fill="#225447" stroke="#225447" stroke-width="0.2"/>
<path d="M28.1691 15.3083H5.15976C4.89977 15.3083 4.68311 15.0916 4.68311 14.8316C4.68311 14.5716 4.89977 14.355 5.15976 14.355H28.1691C28.4291 14.355 28.6458 14.5716 28.6458 14.8316C28.6458 15.0916 28.4291 15.3083 28.1691 15.3083Z" fill="#225447" stroke="#225447" stroke-width="0.2"/>
<path d="M16.3783 28.6724C14.9721 28.6724 13.8296 27.5299 13.8296 26.1237C13.8296 25.8601 14.0493 25.6404 14.313 25.6404C14.5766 25.6404 14.7963 25.8601 14.7963 26.1237C14.7963 27.0026 15.4994 27.7057 16.3783 27.7057C17.2572 27.7057 17.9603 27.0026 17.9603 26.1237C17.9603 25.3767 17.4769 24.9373 16.2465 24.5418C15.6313 24.366 13.8296 23.7508 13.8296 21.9931C13.8296 20.5869 14.9721 19.4443 16.3783 19.4443C17.7845 19.4443 18.927 20.5869 18.927 21.9931C18.927 22.2567 18.7073 22.4764 18.4436 22.4764C18.18 22.4764 17.9603 22.2567 17.9603 21.9931C17.9603 21.1142 17.2572 20.4111 16.3783 20.4111C15.4994 20.4111 14.7963 21.1142 14.7963 21.9931C14.7963 22.4764 14.9721 23.0916 16.5101 23.575C17.6527 23.9266 18.927 24.5418 18.927 26.1237C18.927 27.5299 17.7845 28.6724 16.3783 28.6724Z" fill="#225447" stroke="#225447" stroke-width="0.4"/>
<path d="M16.3779 20.411C16.1142 20.411 15.8945 20.1913 15.8945 19.9277V18.7412C15.8945 18.4775 16.1142 18.2578 16.3779 18.2578C16.6416 18.2578 16.8613 18.4775 16.8613 18.7412V19.9277C16.8613 20.1913 16.6416 20.411 16.3779 20.411Z" fill="#225447" stroke="#225447" stroke-width="0.4"/>
<path d="M16.3779 29.8148C16.1142 29.8148 15.8945 29.5951 15.8945 29.3315V28.145C15.8945 27.8813 16.1142 27.6616 16.3779 27.6616C16.6416 27.6616 16.8613 27.8813 16.8613 28.145V29.3315C16.8613 29.5951 16.6416 29.8148 16.3779 29.8148Z" fill="#225447" stroke="#225447" stroke-width="0.4"/>
</svg>
